<?xml version="1.0" encoding="utf-8"?>
<!-- Generator: Adobe Illustrator 17.1.0, SVG Export Plug-In . SVG Version: 6.00 Build 0)  -->
<!DOCTYPE svg PUBLIC "-//W3C//DTD SVG 1.1//EN" "http://www.w3.org/Graphics/SVG/1.1/DTD/svg11.dtd" [
	<!ENTITY ns_flows "http://ns.adobe.com/Flows/1.0/">
	<!ENTITY ns_extend "http://ns.adobe.com/Extensibility/1.0/">
	<!ENTITY ns_ai "http://ns.adobe.com/AdobeIllustrator/10.0/">
	<!ENTITY ns_graphs "http://ns.adobe.com/Graphs/1.0/">
	<!ENTITY ns_vars "http://ns.adobe.com/Variables/1.0/">
	<!ENTITY ns_imrep "http://ns.adobe.com/ImageReplacement/1.0/">
	<!ENTITY ns_sfw "http://ns.adobe.com/SaveForWeb/1.0/">
	<!ENTITY ns_custom "http://ns.adobe.com/GenericCustomNamespace/1.0/">
	<!ENTITY ns_adobe_xpath "http://ns.adobe.com/XPath/1.0/">
]>
<svg version="1.1" xmlns:x="&ns_extend;" xmlns:i="&ns_ai;" xmlns:graph="&ns_graphs;"
	 xmlns="http://www.w3.org/2000/svg" xmlns:xlink="http://www.w3.org/1999/xlink" xmlns:a="http://ns.adobe.com/AdobeSVGViewerExtensions/3.0/"
	 x="0px" y="0px" viewBox="0 0 260 308" enable-background="new 0 0 260 308" xml:space="preserve">
<metadata>
	<sfw  xmlns="&ns_sfw;">
		<slices></slices>
		<sliceSourceBounds  width="256" height="305.562" bottomLeftOrigin="true" x="2" y="-307.5"></sliceSourceBounds>
	</sfw>
</metadata>
<g id="Layer_6">
</g>
<g id="app_icon">
	<g id="txr">
		<g>
			<text transform="matrix(1 0 0 0.96 89.9709 298.1595)" fill="#E6E4E6" font-family="'TitilliumWeb-Light'" font-size="35">123D</text>
		</g>
	</g>
	<g id="Layer_5">
		<rect x="2" y="258.5" opacity="0" fill="#FFFFFF" width="256" height="12"/>
	</g>
	<g id="base">
		<g opacity="0.4">
			<path fill="#8E8E8E" d="M198.493,225.529l6.166,8.487c9.629-6.923,18.251-15.145,25.621-24.417l-8.494-6.172
				C215.067,211.811,207.227,219.249,198.493,225.529z"/>
			<path fill="#8E8E8E" d="M247.558,132.463c-0.231,11.133-1.988,21.896-5.119,32.07l9.955,3.235
				c3.449-11.189,5.374-23.039,5.606-35.305H247.558z"/>
			<path fill="#8E8E8E" d="M225.367,198.722l8.487,6.166c6.932-9.596,12.58-20.178,16.661-31.515l-9.954-3.234
				C236.819,180.412,231.666,190.006,225.367,198.722z"/>
			<path fill="#8E8E8E" d="M59.83,224.336l-6.166,8.487c8.974,6.673,18.863,12.171,29.427,16.333l3.241-9.976
				C76.83,235.366,67.924,230.372,59.83,224.336z"/>
			<path fill="#8E8E8E" d="M130,247.62c-0.661,0-1.312-0.039-1.97-0.05v10.442c0.658,0.01,1.309,0.05,1.97,0.05
				c11.191,0,22.044-1.444,32.39-4.141l-3.237-9.962C149.827,246.346,140.06,247.62,130,247.62z"/>
			<path fill="#8E8E8E" d="M91.878,241.244l-3.234,9.953c10.604,3.618,21.825,5.893,33.475,6.601v-10.471
				C111.602,246.627,101.465,244.539,91.878,241.244z"/>
			<path fill="#8E8E8E" d="M86.616,20.707l-3.241-9.976c-10.488,4.104-20.309,9.531-29.239,16.109l6.166,8.487
				C68.352,29.386,77.189,24.463,86.616,20.707z"/>
			<path fill="#8E8E8E" d="M31.788,65.384l-8.499-6.175C17.268,68.268,12.388,78.142,8.81,88.624l9.953,3.234
				C22.002,82.439,26.393,73.557,31.788,65.384z"/>
			<path fill="#8E8E8E" d="M164.846,242.349l3.235,9.956c11.328-3.523,21.962-8.604,31.699-14.947l-6.174-8.498
				C184.754,234.575,175.108,239.16,164.846,242.349z"/>
			<path fill="#8E8E8E" d="M240.229,88.984l9.975-3.241c-4.147-11.259-9.845-21.762-16.811-31.281l-8.487,6.166
				C231.236,69.267,236.423,78.79,240.229,88.984z"/>
			<path fill="#8E8E8E" d="M12.442,132.463H2c0.212,11.205,1.861,22.051,4.774,32.375l9.954-3.234
				C14.128,152.299,12.651,142.536,12.442,132.463z"/>
			<path fill="#8E8E8E" d="M16.984,97.495L7.03,94.261c-2.986,10.29-4.709,21.11-5.005,32.291h10.442
				C12.759,116.501,14.313,106.767,16.984,97.495z"/>
			<path fill="#8E8E8E" d="M221.295,55.946l8.494-6.172c-7.381-9.169-16-17.288-25.602-24.127l-6.166,8.487
				C206.728,40.331,214.565,47.666,221.295,55.946z"/>
			<path fill="#8E8E8E" d="M130,12.38c9.954,0,19.619,1.254,28.856,3.593l3.241-9.976C151.84,3.348,141.085,1.938,130,1.938
				c-0.661,0-1.312,0.04-1.97,0.05V12.43C128.688,12.419,129.339,12.38,130,12.38z"/>
			<path fill="#8E8E8E" d="M122.119,12.673V2.203c-11.545,0.702-22.668,2.942-33.187,6.503l3.234,9.953
				C101.668,15.42,111.707,13.366,122.119,12.673z"/>
			<path fill="#8E8E8E" d="M193.117,30.826l6.174-8.498c-9.689-6.248-20.256-11.248-31.504-14.717l-3.235,9.955
				C174.735,20.702,184.315,25.205,193.117,30.826z"/>
			<path fill="#8E8E8E" d="M55.631,38.953l-6.172-8.494c-8.582,6.953-16.243,14.989-22.782,23.906l8.487,6.166
				C41.058,52.507,47.935,45.251,55.631,38.953z"/>
			<path fill="#8E8E8E" d="M18.462,167.255l-9.953,3.234c3.516,10.555,8.36,20.497,14.349,29.63l8.498-6.175
				C25.994,185.699,21.641,176.747,18.462,167.255z"/>
			<path fill="#8E8E8E" d="M34.703,198.82l-8.487,6.166c6.527,9.017,14.182,17.161,22.787,24.196l6.173-8.497
				C47.457,214.305,40.586,206.943,34.703,198.82z"/>
			<path fill="#8E8E8E" d="M247.533,126.552h10.442c-0.325-12.241-2.338-24.059-5.866-35.212l-9.951,3.233
				C245.367,104.711,247.211,115.443,247.533,126.552z"/>
		</g>
	</g>
	<g id="skill_ratio">
		<g>
			<path fill="#FFFFFF" d="M198.493,225.529l6.166,8.487c9.629-6.923,18.251-15.145,25.621-24.417l-8.494-6.172
				C215.067,211.811,207.227,219.249,198.493,225.529z"/>
			<path fill="#FFFFFF" d="M247.558,132.463c-0.231,11.133-1.988,21.896-5.119,32.07l9.955,3.235
				c3.449-11.189,5.374-23.039,5.606-35.305H247.558z"/>
			<path fill="#FFFFFF" d="M225.367,198.722l8.487,6.166c6.932-9.596,12.58-20.178,16.661-31.515l-9.954-3.234
				C236.819,180.412,231.666,190.006,225.367,198.722z"/>
			<path fill="#FFFFFF" d="M59.83,224.336l-6.166,8.487c8.974,6.673,18.863,12.171,29.427,16.333l3.241-9.976
				C76.83,235.366,67.924,230.372,59.83,224.336z"/>
			<path fill="#FFFFFF" d="M130,247.62c-0.661,0-1.312-0.039-1.97-0.05v10.442c0.658,0.01,1.309,0.05,1.97,0.05
				c11.191,0,22.044-1.444,32.39-4.141l-3.237-9.962C149.827,246.346,140.06,247.62,130,247.62z"/>
			<path fill="#FFFFFF" d="M91.878,241.244l-3.234,9.953c10.604,3.618,21.825,5.893,33.475,6.601v-10.471
				C111.602,246.627,101.465,244.539,91.878,241.244z"/>
			<path fill="#FFFFFF" d="M86.616,20.707l-3.241-9.976c-10.488,4.104-20.309,9.531-29.239,16.109l6.166,8.487
				C68.352,29.386,77.189,24.463,86.616,20.707z"/>
			<path fill="#FFFFFF" d="M31.788,65.384l-8.499-6.175C17.268,68.268,12.388,78.142,8.81,88.624l9.953,3.234
				C22.002,82.439,26.393,73.557,31.788,65.384z"/>
			<path fill="#FFFFFF" d="M164.846,242.349l3.235,9.956c11.328-3.523,21.962-8.604,31.699-14.947l-6.174-8.498
				C184.754,234.575,175.108,239.16,164.846,242.349z"/>
			<path display="none" fill="#FFFFFF" d="M240.229,88.984l9.975-3.241c-4.147-11.259-9.845-21.762-16.811-31.281l-8.487,6.166
				C231.236,69.267,236.423,78.79,240.229,88.984z"/>
			<path fill="#FFFFFF" d="M12.442,132.463H2c0.212,11.205,1.861,22.051,4.774,32.375l9.954-3.234
				C14.128,152.299,12.651,142.536,12.442,132.463z"/>
			<path fill="#FFFFFF" d="M16.984,97.495L7.03,94.261c-2.986,10.29-4.709,21.11-5.005,32.291h10.442
				C12.759,116.501,14.313,106.767,16.984,97.495z"/>
			<path display="none" fill="#FFFFFF" d="M221.295,55.946l8.494-6.172c-7.381-9.169-16-17.288-25.602-24.127l-6.166,8.487
				C206.728,40.331,214.565,47.666,221.295,55.946z"/>
			<path display="none" fill="none" d="M130,12.38c9.954,0,19.619,1.254,28.856,3.593l3.241-9.976
				C151.84,3.348,141.085,1.938,130,1.938c-0.661,0-1.312,0.04-1.97,0.05V12.43C128.688,12.419,129.339,12.38,130,12.38z"/>
			<path fill="#FFFFFF" d="M122.119,12.673V2.203c-11.545,0.702-22.668,2.942-33.187,6.503l3.234,9.953
				C101.668,15.42,111.707,13.366,122.119,12.673z"/>
			<path display="none" fill="none" d="M193.117,30.826l6.174-8.498c-9.689-6.248-20.256-11.248-31.504-14.717l-3.235,9.955
				C174.735,20.702,184.315,25.205,193.117,30.826z"/>
			<path fill="#FFFFFF" d="M55.631,38.953l-6.172-8.494c-8.582,6.953-16.243,14.989-22.782,23.906l8.487,6.166
				C41.058,52.507,47.935,45.251,55.631,38.953z"/>
			<path fill="#FFFFFF" d="M18.462,167.255l-9.953,3.234c3.516,10.555,8.36,20.497,14.349,29.63l8.498-6.175
				C25.994,185.699,21.641,176.747,18.462,167.255z"/>
			<path fill="#FFFFFF" d="M34.703,198.82l-8.487,6.166c6.527,9.017,14.182,17.161,22.787,24.196l6.173-8.497
				C47.457,214.305,40.586,206.943,34.703,198.82z"/>
			<path display="none" fill="#FFFFFF" d="M247.533,126.552h10.442c-0.325-12.241-2.338-24.059-5.866-35.212l-9.951,3.233
				C245.367,104.711,247.211,115.443,247.533,126.552z"/>
		</g>
	</g>
	<g id="icon">
		<g>
			<path fill="#DADADA" d="M206.516,77.561c0.867-1.404,0.226-2.553-1.424-2.553H54.908c-1.65,0-2.291,1.149-1.424,2.553
				l74.941,121.42c0.867,1.404,2.285,1.404,3.151,0L206.516,77.561z"/>
		</g>
		<g>
			<g>
				<path fill="#DADADA" d="M128.43,198.99c0.863,1.399,1.57,1.198,1.57-0.445v-84.823c0-1.644-1.223-3.548-2.718-4.232
					L54.626,76.252c-1.495-0.684-2.012-0.099-1.148,1.3L128.43,198.99z"/>
			</g>
		</g>
		<g>
			<path fill="#F4F4F4" d="M205.374,76.252c1.495-0.684,1.373-1.243-0.271-1.243H54.897c-1.644,0-1.766,0.56-0.271,1.243
				l72.656,33.238c1.495,0.684,3.941,0.684,5.436,0L205.374,76.252z"/>
		</g>
		<g>
			<g>
				<path fill="#C7C7C7" d="M206.522,77.552c0.863-1.399,0.347-1.984-1.148-1.3l-72.656,33.238
					c-1.495,0.684-2.718,2.588-2.718,4.232v84.823c0,1.644,0.706,1.844,1.57,0.445L206.522,77.552z"/>
			</g>
		</g>
	</g>
</g>
</svg>
