<?xml version="1.0" encoding="utf-8"?>
<!-- Generator: Adobe Illustrator 17.1.0, SVG Export Plug-In . SVG Version: 6.00 Build 0)  -->
<!DOCTYPE svg PUBLIC "-//W3C//DTD SVG 1.1//EN" "http://www.w3.org/Graphics/SVG/1.1/DTD/svg11.dtd" [
	<!ENTITY ns_flows "http://ns.adobe.com/Flows/1.0/">
	<!ENTITY ns_extend "http://ns.adobe.com/Extensibility/1.0/">
	<!ENTITY ns_ai "http://ns.adobe.com/AdobeIllustrator/10.0/">
	<!ENTITY ns_graphs "http://ns.adobe.com/Graphs/1.0/">
	<!ENTITY ns_vars "http://ns.adobe.com/Variables/1.0/">
	<!ENTITY ns_imrep "http://ns.adobe.com/ImageReplacement/1.0/">
	<!ENTITY ns_sfw "http://ns.adobe.com/SaveForWeb/1.0/">
	<!ENTITY ns_custom "http://ns.adobe.com/GenericCustomNamespace/1.0/">
	<!ENTITY ns_adobe_xpath "http://ns.adobe.com/XPath/1.0/">
]>
<svg version="1.1" id="Layer_1" xmlns:x="&ns_extend;" xmlns:i="&ns_ai;" xmlns:graph="&ns_graphs;"
	 xmlns="http://www.w3.org/2000/svg" xmlns:xlink="http://www.w3.org/1999/xlink" xmlns:a="http://ns.adobe.com/AdobeSVGViewerExtensions/3.0/"
	 x="0px" y="0px" viewBox="0 0 32 32" enable-background="new 0 0 32 32" xml:space="preserve">
<metadata>
	<sfw  xmlns="&ns_sfw;">
		<slices></slices>
		<sliceSourceBounds  width="31" height="31" bottomLeftOrigin="true" x="0.5" y="-31.5"></sliceSourceBounds>
	</sfw>
</metadata>
<g id="Layer_2">
	<circle fill="#FFFFFF" cx="16" cy="16" r="15.5"/>
</g>
<g id="Layer_2_copy">
	<circle fill="#FDC010" cx="16" cy="16" r="15.5"/>
</g>
<g id="bloger_1_">
	<path id="bloger" fill="#FFFFFF" d="M24.294,14.669l-0.132-0.274l-0.223-0.174c-0.288-0.225-1.75,0.016-2.143-0.343
		c-0.28-0.257-0.323-0.719-0.408-1.345c-0.156-1.216-0.257-1.28-0.445-1.689c-0.689-1.462-2.556-2.561-3.84-2.714h-3.475
		c-2.734,0-4.969,2.24-4.969,4.975v5.8c0,2.729,2.234,4.964,4.969,4.964h5.71c2.734,0,4.955-2.235,4.97-4.964l0.031-4.018
		L24.294,14.669z M13.692,12.194h2.756c0.526,0,0.952,0.429,0.952,0.95c0,0.52-0.427,0.952-0.952,0.952h-2.756
		c-0.526,0-0.951-0.432-0.951-0.952C12.741,12.623,13.166,12.194,13.692,12.194z M19.291,19.779h-5.599
		c-0.526,0-0.951-0.434-0.951-0.948c0-0.523,0.425-0.945,0.951-0.945h5.599c0.523,0,0.946,0.422,0.946,0.945
		C20.237,19.346,19.814,19.779,19.291,19.779z"/>
</g>
</svg>
