<?xml version="1.0" encoding="utf-8"?>
<!-- Generator: Adobe Illustrator 17.1.0, SVG Export Plug-In . SVG Version: 6.00 Build 0)  -->
<!DOCTYPE svg PUBLIC "-//W3C//DTD SVG 1.1//EN" "http://www.w3.org/Graphics/SVG/1.1/DTD/svg11.dtd" [
	<!ENTITY ns_extend "http://ns.adobe.com/Extensibility/1.0/">
	<!ENTITY ns_ai "http://ns.adobe.com/AdobeIllustrator/10.0/">
	<!ENTITY ns_graphs "http://ns.adobe.com/Graphs/1.0/">
	<!ENTITY ns_vars "http://ns.adobe.com/Variables/1.0/">
	<!ENTITY ns_imrep "http://ns.adobe.com/ImageReplacement/1.0/">
	<!ENTITY ns_sfw "http://ns.adobe.com/SaveForWeb/1.0/">
	<!ENTITY ns_custom "http://ns.adobe.com/GenericCustomNamespace/1.0/">
	<!ENTITY ns_adobe_xpath "http://ns.adobe.com/XPath/1.0/">
]>
<svg version="1.1" id="Layer_2" xmlns:x="&ns_extend;" xmlns:i="&ns_ai;" xmlns:graph="&ns_graphs;"
	 xmlns="http://www.w3.org/2000/svg" xmlns:xlink="http://www.w3.org/1999/xlink" x="0px" y="0px" viewBox="0 0 1240 936"
	 enable-background="new 0 0 1240 936" xml:space="preserve">
<metadata><?xpacket begin="﻿" id="W5M0MpCehiHzreSzNTczkc9d"?>
<x:xmpmeta xmlns:x="adobe:ns:meta/" x:xmptk="Adobe XMP Core 5.5-c014 79.151739, 2013/04/03-12:12:15        ">
   <rdf:RDF xmlns:rdf="http://www.w3.org/1999/02/22-rdf-syntax-ns#">
      <rdf:Description rdf:about=""
            xmlns:xmp="http://ns.adobe.com/xap/1.0/"
            xmlns:xmpGImg="http://ns.adobe.com/xap/1.0/g/img/"
            xmlns:xmpTPg="http://ns.adobe.com/xap/1.0/t/pg/"
            xmlns:stDim="http://ns.adobe.com/xap/1.0/sType/Dimensions#"
            xmlns:stFnt="http://ns.adobe.com/xap/1.0/sType/Font#"
            xmlns:xmpG="http://ns.adobe.com/xap/1.0/g/"
            xmlns:dc="http://purl.org/dc/elements/1.1/">
         <xmp:CreatorTool>Adobe Illustrator CC (Macintosh)</xmp:CreatorTool>
         <xmp:CreateDate>2014-10-29T12:26:10+08:00</xmp:CreateDate>
         <xmp:Thumbnails>
            <rdf:Alt>
               <rdf:li rdf:parseType="Resource">
                  <xmpGImg:width>256</xmpGImg:width>
                  <xmpGImg:height>184</xmpGImg:height>
                  <xmpGImg:format>JPEG</xmpGImg:format>
                  <xmpGImg:image>/9j/4AAQSkZJRgABAgEASABIAAD/7QAsUGhvdG9zaG9wIDMuMAA4QklNA+0AAAAAABAASAAAAAEA&#xA;AQBIAAAAAQAB/+4ADkFkb2JlAGTAAAAAAf/bAIQABgQEBAUEBgUFBgkGBQYJCwgGBggLDAoKCwoK&#xA;DBAMDAwMDAwQDA4PEA8ODBMTFBQTExwbGxscHx8fHx8fHx8fHwEHBwcNDA0YEBAYGhURFRofHx8f&#xA;Hx8fHx8fHx8fHx8fHx8fHx8fHx8fHx8fHx8fHx8fHx8fHx8fHx8fHx8fHx8f/8AAEQgAuAEAAwER&#xA;AAIRAQMRAf/EAaIAAAAHAQEBAQEAAAAAAAAAAAQFAwIGAQAHCAkKCwEAAgIDAQEBAQEAAAAAAAAA&#xA;AQACAwQFBgcICQoLEAACAQMDAgQCBgcDBAIGAnMBAgMRBAAFIRIxQVEGE2EicYEUMpGhBxWxQiPB&#xA;UtHhMxZi8CRygvElQzRTkqKyY3PCNUQnk6OzNhdUZHTD0uIIJoMJChgZhJRFRqS0VtNVKBry4/PE&#xA;1OT0ZXWFlaW1xdXl9WZ2hpamtsbW5vY3R1dnd4eXp7fH1+f3OEhYaHiImKi4yNjo+Ck5SVlpeYmZ&#xA;qbnJ2en5KjpKWmp6ipqqusra6voRAAICAQIDBQUEBQYECAMDbQEAAhEDBCESMUEFURNhIgZxgZEy&#xA;obHwFMHR4SNCFVJicvEzJDRDghaSUyWiY7LCB3PSNeJEgxdUkwgJChgZJjZFGidkdFU38qOzwygp&#xA;0+PzhJSktMTU5PRldYWVpbXF1eX1RlZmdoaWprbG1ub2R1dnd4eXp7fH1+f3OEhYaHiImKi4yNjo&#xA;+DlJWWl5iZmpucnZ6fkqOkpaanqKmqq6ytrq+v/aAAwDAQACEQMRAD8A9U4q7FXYq7FXYq7FXYq7&#xA;FXYq7FXYq7FXjFp+Un5haQxvNH14W890eeo2Vsxto5RHd+oF5sk/KaW3mmjabitCI9vhxVLZfyw/&#xA;O0Xcd5b6zbJdQ3H16WSW5eQS3D6Q1g7oqwR+m/NmFf8AKDdVxVlGjeT/AM24dUsb2/8AMBkhikgN&#xA;zaeuWRoo/qqyAp6VCWRbk/a+0Rv3xVjx/Kz8zbPVnvtDntrG3Rb+NVN0BfSi9mtZQ0l1HaoDRrat&#xA;XUvQcSzcqhVMLzyN+dt3ctNJ5gt4niF7Bbz28rxyGB1D2pY+id/WA5jwA69Aqn35PSeeHi14+bPr&#xA;pnF8VsXvF4KbdQQOC0UciRycxj09wE2GKvRMVdirsVdirsVdirsVdirsVdirsVdirsVdirsVdirs&#xA;VdirsVdirsVdirsVdirsVdiry/zX5J87S+cNR1ry56cK3kUKTXEl0kc7cGgDR27fVZJLdSkR5L6h&#xA;UncBSzHFUph8g/nBDavZNqcMkMlydRupra7e2eWb66Lh40pA3peoq9RsK04nfFVreRPzyFqlpa6/&#xA;DYxwW7qphuDxeVNOeO14p9W/dql7waUb81JPbjirKPN/kHX/ADFBrH+ni0uL+904WUkUjg29hp7r&#xA;KGWgoZjM8slKUPwqSaYqwRPyN86z2f6Q1S6tLnVI59OmfTYpJEiuooJYHu7aa5ZSRA4jk4x+mfio&#xA;xPbFXsHkrSNQ0fyzZadfujXUAk5LG7SRxo8rPHCjsELLCjLGp4jZegxVO8VdirsVdirsVdirsVdi&#xA;rsVdirsVdirsVdirsVdirsVdirsVdirsVdirsVdirsVdirsVdiqnI7hqIKkfEw9vAe5xSAqAggEb&#xA;g7g4odirsVdirsVdirsVdirsVdirsVdirsVdirsVdirsVdirsVdirsVdirsVdirsVdirsVdirsVd&#xA;irTsFUse2KhqNSBVvtNu3zxSWk+Byn7J3T+IxUr8UOxV2KuxV2KuxV2KuxV2KuxV2KuxV2KuxV2K&#xA;uxV2KuxV2KuxV2KuxV2KuxV2KuxV2KuxVC3OqadbNwnuESTtHWr/APAirZIRJa5ZYx5lUilS44yJ&#xA;UxABhUFSSemzUO2RIbAbF97CdW88eZbS3kuE0w+lBcxpOVgnmMcLMyNyVPiY1C/EooMuy4xECi4W&#xA;l1M8hIlGqb/LfzJ5z11b1fMdiLF7WO3a2b6tNb+pJIZPWP70mnpOphK9Tw514yLlLnAsvl1fT4ZB&#xA;HcSiFyP92AqvhTmRx/HJCBIsNM88IGpGkVHJHIgeNg6HoykEfeMiQ2Ag7hdil2KuxV2KuxV2KuxV&#xA;2KuxV2KuxV2KuxV2KuxV2KuxV2KuxV2KuxV2KuxV2KpfLqweRoLCI3c6mjsp4xIf8uTpX2FTkxDq&#xA;dmg57NRHEfs+bX6MurnfULpnB/494CYovkSDzb6T9GPEByC+FKX1H4DYfrREVpaWacbWBIi2w4qB&#xA;UnxI65EyJbYY4x5CldQEUL4d/E+OBkS16mGmvjXBgcaZCVrGAV9xVJNmB6V/twM+YQkmiWBcyQKb&#xA;WY/7ttz6Z+kD4W+kZMZD13cc6aF2PSfLZYZdXs/71Rf246yRjhMB7p9l/wDY0+WGonyReSHP1D7f&#xA;l1Rlpe2t3F6tvIHWtG7EHwYHcH55AxI5tsMkZCwrYGbsVdirsVdirsVdirsVdirsVdirsVdirsVd&#xA;irsVdirsVdirsVWTTwwRNNM4jiQVZ22AGEC2MpCIs8ktCXeq/FLzttOP2YhVZZh4ueqKfDqe+T2j&#xA;73HqWXn6Yfaf1BMoYYoY1iiQRxoKKiigA+QyBNuTGIAoL8CVifG5k7DZP4n6cUlTuJWVSUXkQRXe&#xA;gpXffJBpmgm1O1EnAvQ/ePvGXCBpwJZwDVo2FwwBBBB6EZVIOXjlasyhlKnocg5ILUbEghvtrs39&#xA;fpxSV2KEFeaYksn1m3c216Ok6DZh/LIvRx8/oyYl0PJpnhs2Npfjm6y1B5JTaXaCC9QVKA1SRR+3&#xA;Ge49uowSj1HJceSzwy2l+OSNyLc7FXYq7FXYq7FXYq7FXYq7FXYq7FXYq7FXYq7FXYq7FWndI0Z3&#xA;YKiglmOwAHU4gIJAFlK4In1OZLy5BFkh5WdswpyPaWQf8RH05aTw7Dm4sR4p4pfT0H6T+hNajKnK&#xA;txIAJPQdcUpfPchqgtx5d60ooxTy3LGfM/nKDTYWt7RvUvSKKB9mMeLePsMthjs7uFqNYIg8PN55&#xA;d+evNVwOMl8Qv8qpGo/BczhiiOQdDLWZZ8ymejXusS6f9Ze6d5nYmPkajiNqUO25BxMURyG900sf&#xA;ON/bnjLGGA6hSV/A1GUygC5uPUGLJLHzrpU9FmZ7d/8AKB4/eK5RLCejsceugeeycR3cMwE9vMsq&#xA;DZyjBhTx28MpIIcyExIbG0XGzKQx3xSiwQRXFUNf2EN5CEclXQ8oZl2dHHRlOSjKmvJjEgpafeyu&#xA;72l2At7AKtTZZE6CRPY9x2OMh1HJGOZPpl9Q/Fo7ItrsVdirsVdirsVdirsVdirsVdirsVdirsVU&#xA;ItQsZZZYo7iN5YP75FdSUp/MAdsJiQwjkjIkAgkJXZeefJl/qEGnWOuWF3fXSGS2t4LiKVpFUuCU&#xA;4MeVPSfp/KfA4GatpPmry1rFiL/StUtb2yMgg+sQSo6eqwBVKg/aIYEDwIOKt3V5o2oSfU/r8DmF&#xA;g9zbJIjEgKkirIAagUmjffqCOxyUZU1ZcYmKPL70b68bV4MGCkq1DWhHUbYQGuc6UpL2CEVkcL4D&#xA;ufkMlwEtYzAJdfa4zKUhXgvVnbr92EYu9l+YvkxLXfMhso2jRud9L0B3Ea9iR4+2SquTj5sxYNPL&#xA;I/qSuxaQ1ZmO5J61OWQG4dbklsUrCs7qiirMQFHiTtmUXDiGe28KwQRwr0jUKD8hTAyQ17bb+qo6&#xA;/bH8chIN0ZIVRkWStE0kbBkYow6MpofwxpQSOScWXmjWrYBRP6qD9mUcvx+1+OVnFEuTDWZI9b96&#xA;fWHn1AAt5akf5cRr/wAK1P15WcHcXKh2l/OCf6ZrVlqBZ7ZyxUDmpBBWvTr/AAyqWMjm5ePUxmNl&#xA;e5tEuJIJgxjngfkki9eJ+0h9mGAGmZAkQeoREdxBI7pHIjvGaSKrAlT4MB0wEFsEgdgeSC07zFoO&#xA;pSJHp+oW93JJELiNYZUctCyRyLIOJPwlLiNgfBh44GSYYq7FXYq7FXYq7FXYq7FXYq7FXYq7FUps&#xA;PLdrY3txeQSyerMrogbiRGJG5tx23+L+auWTymQpxcOkjjkZC9/7WJ+XPya0vQ9ah1SLVb2fg0ck&#xA;1o4gEMksD3TwuaR+ooQ30h4q1CaVytylOL8ifJMOhLpCNclfqMenPdyyCa4aNEWMn1Jlk481jReC&#xA;0QBVCqAoGKoQf849eTA2oVmuGiv2nYwlbeievHHEFU+lXhCtunpL0Q1p1xQUf+V/kS78m6fqunXF&#xA;xFcPeX73iyojKSHijT4mY1cj06ePizGpycS4+WNppMCsshY1YMRU/PMu9nUiJtj/AJg19LNTbwEP&#xA;dNu3cJ8/f2yuRcjj4R5sLkkeR2d2LOxqzHcknAA4kpKU390/yOWwG7RkOzvL9t6+pxkiqwgyH5jY&#xA;f8MRl5aAzHFk6ldjuD1wMggJoPTeg+yfsnIENltAYqvAxQqAYoZX5PkEcbrSjSPs3sq5VlDmaWdW&#xA;GWxk5jF2mMpbpHlyDTb6a7WYuZgyIhVVorNzIJG7mvc5LJlMhTHT6QY5E3z/AB8Un8mfljpflW8i&#xA;urW+ubpoLUWEKT+lxWBIrWCMfAiEssdhGKk77nKnMZjirsVdirsVdirsVdirsVdirsVdirsVdirs&#xA;VS66rcava23+67dTdSj/ACvsRj7yx+jJjaJLRP1ZAO7f9SY5BvU3jVmIIqCB+GG2Ji8682a+tjcz&#xA;2tswe4LN8XX0wT1PifDLxLZ1eahIsGd2dizEszGrMdyScQHFlJblgDRIrJj+6f8A1T+rLYhpkU18&#xA;q23C1luCN5W4r/qr/aTliAnmBLsUrXRXUqfoPgciWQQvAqSD1GBK4DFCoBirK/LqLGlty/aqT9Nc&#xA;pyHZ2Olx8mUqktRwoFrvy8PbMYl2kIKOswu9g8kQrNbEXEP+tEeVP9kKjDjO/vY6iNwsc47/ACRc&#xA;MqTQpNGapIodD7MKjIkU3RkCLC/Al2KuxV2KuxV2KuxV2KuxV2KuxV2KuxV2Kpfpo9S91G5PeVYV&#xA;/wBWFB/xszZZPkA4+HeUj518kwytyFC7k4gKPtMCPoxV4F5nkuNE1+5sr0NNGWMkF11Z0bcFq9WH&#xA;RvfIDMYmpONl0ImLgd+4qVvd21wvKGQP4gdR8wd8zMcxLk6fNinA+oUq5eA4sio3X9wwHU0H45YA&#xA;1Xuy2xthbWcMA6ooDU/m6sfvxZq+KXYEuxSskTkKj7Q/EYClTAwIVAMKGY6coQQLShQBSPcCmYsz&#xA;YLvcMeEgMmjfkvv3zHc5cQCKHpiqX6FVbD6udzaySQfRG5C/8LTJ5OdtGn2jXdYTDIN7sVdirsVd&#xA;irsVdirsVdirsVdirsVdirsVQGh72BkPWWaeQ/7KZv4ZZk5uPpfovvJ+8o5mCqWPQZW5CWXMrMaj&#xA;7bGijw/2sUhg/wCY3lgavp0hgWt9aD1LfxYcRzT/AGVPvwzx8UPMNIy8OQ9xeHCR43DIxRx0YGhH&#xA;3ZiR2b50RRTK08y3MVFuFEyfzdGH8Dmbj1BHPd1OfQQlvH0lkmh3ljqV5Ckcg5Kwcxts3wfFSh69&#xA;O2Z8MsZDZ1E9NOEtwzHCh2KXYpawJbxVplH2h9I98CCFW0i9S5iT+Z1H3nE8kwFyAZco4XUbdFZl&#xA;DfOtAf4Zink76PMJ3CxXiT0I3yhy0TiqA034bzUo+wuFcf7OFD+vJy5BpxfVIef6Aj8g3OxV2Kux&#xA;V2KuxV2KuxV2KuxV2KuxV2KuxVAaF/xzI/8AWl/5OtlmX6nH0v8Adj4/eURfCT0CU/Z3I8RlbkJO&#xA;LiRqybdKJ8vH6cWXkgr6d/rHbdQcuhycPN9Txj8yPLv6N1T6/AlLO+JagGyS9WX6ftD6fDMfJCjb&#xA;OE7DDScQGMiprdXFtdQT278Jom5ow6gjbceBrmRiFbuHnN7PV9E1dNS0+O5iJRjtLHX7LjqP6ZmA&#xA;26uUaNJkLiQdaH5j+mFC8XI2qvzIwJXiaM96exxVeCD0NaeG+BLYND7dximkw0eINqEXdRVq/IGn&#xA;45GZ2Z6aP7wMlIBIB6V3yh24NFNIpKKUbd0JB999j9OY7nFGICFAPXFCBsd9T1I9g8S/SIlP8cnL&#xA;kGnH9cvh9yPyDc7FXYq7FXYq7FXYq7FXYq7FXYq7FXYq7FUBo3wxXMP++bmZQPZn9Qfg+WZOh8nH&#xA;03Ijukfvv9KMl+KkY/a+1/q9/v6ZW5ISm9gEEtAPgbdf6YsSaSa9b94h/wAmn3E5fjGzh55+pK9c&#xA;0e31nSZ9Pm29Vf3b90cbq30HGUbRCTwO/tLiyu5rS5XhPA5SRfAg0yoBZFRSIvJXw2zJiNnCySss&#xA;k8t37abc8yf9Hkosy+3ZvmMsBpx5C2fpJE6K6SKyMAysGFCDuCN8m0nZ3qw93A+/+AxRYWtcwg9S&#xA;fkP60xpeILWvIh9kMfnQfxONLxNfpJgNlNR0q1R91MPCnjZT5UguWha9uAERxxgWm5Hdvw2ynIej&#xA;n6TGfqKdyOemVBzCnECfF6/Zfte4Ir+HXMdzxujsUJfpHxvfzf78unAPtGFj/WmTn09zRh34j/S/&#xA;YmGQb3Yq7FXYq7FXYq7FXYq7FXYq7FXYq7FXYqgoIpINRvJCv+jzLHKH7c1BRh/wKqcmTsGmECJy&#xA;7jXz5IqNTQs32m3I8B2GQbyo3sImiK/tdVPvkg4+QsSvSfUIG5jJVx4E775kY3XZybBWRk4yDPHJ&#xA;5/8Amx5XV7dPMMAp6REeoU2+DYJJ9H2T9GQptyA1s8rOrQptCvqv3Y7D+3JHJ3NEdOTzWG4ubg/v&#xA;XJXsg2X7srMiW+MIx5PRfKt6ZtLihfZ4VCr7qPhH6sycMrFOv1uGiJDqnBOXOCtJxStJxSmfl/R2&#xA;1K8o4ItYqNM3j4KPc5Cc6DkafDxy8mf0VFCKAqqAFUdABsBmM7fkou2SAaZTZBZyD0kp3RSfmRlE&#xA;hu5cMmwVVcoGQDkVBaNelR4fRkKbybFqWk20ltp0EUu03HlKP8tyXf8A4Zjkpmy14YGMADzReRbX&#xA;Yq7FXYq7FXYq7FXYq7FXYq7FXYqx+183R3F3qFuLVlNlFLMrFx8YhbiQwpVCT065dPFwgFw8GsGS&#xA;ZjVV+uvg860D/nI6y1CFZbzQri1DJYxjjIlPrNysxnWs3o8o4mhAUpyZ96L8JylzEx078+tKvWsr&#xA;Z9Fu/r1/FZy21tDLbSAyX3EQxc2kj/b5VcjiKCpqaYq9F0DWbTXNC07WrMMLTVLWG9thIKOI7iNZ&#xA;U5AE0PFt8VRrrXCC1zilGp2CcvWCijbSfPpXJ20HGks1q8J5LvGfHtkxO2vwuH3KkQSSB45UDxvV&#xA;XRgGUqRQgg9QcWTxv8wfyt/Rbvq2hxl9NNWuLYVZoO5YdzH+r5ZEhJYVbw4GBZHodybVkepoGIdf&#xA;8g0/28nCVFMsXiYzFmHIEVBqD0OZroSKWk4qqWlrNd3MdvCOUkhoPAeJPsMSaDOEDI0Ho+nWEOnW&#xA;aW0W4Xd37sx6k5iSlZt3OPGIRoKrttiEyaitppieA27sdgMmCA4s4mXJNrZZEMaAFgqUL9ASKbZT&#xA;It+IECkHqnmWLT9UtbJrdpTMFYyBgvEO/pgKvVzXqMMcXFEllPWeHMQrn+ths353W9n541ny3e6a&#xA;Wh01isdxbyq0nGOOCSSSZJfSREVbjls9aKaBjlDsEsk/5yX8uyaFLqNno996jR3v1NLj0IY3n08R&#xA;m5jdml5RiP6xHuyjlWigttiqY3v5/wCgWF1b2l3pV79Yup4LSAxm3Mck00ccrBS8qGiCeMfEBUnY&#xA;bVxV6lirsVdirsVdirsVdirsVdirsVQ93zt7W6uLS3WW7EbOkYopldVJRS3udsNoEQHkI/NfznZ+&#xA;X7q+l8q3Gty2DxUKWc9kWkaOKT04IGW4JVA8g5s6sHHDgTgSiNJ/MzzjqE1neWXlILptw0MCyxrM&#xA;/wAM0QuvUiYwRBkH9y9SFEi1BYYqyfyT561vXNWOn3uhNp9qthHdpeL6xi9Vn4vbkTQ27KyBh9pR&#xA;Wh41oaKs3xVp0V1KsKgihxRSR3MHpu0Tio/WDipCCMBhBI3QnY5dGVuLOHD7nfCRRgCD1ByVMQXm&#xA;Pnb8uktWfVNHjP1cktc2i7+n4tGP5fEdvl0iQxIYhDGVjO22xP8An9OBswHemQaPd+rbekx+OHb/&#xA;AGPb+mZWKVinXdoYeGfEOUvvRxOXOAzfyrpK2UBnmX/S5h3/AGU/l+fjmNknbtNNh4RZ5lPdyaAV&#xA;Phlblc0VbacZHHqfd2+nKzPubo4e9NBAigKBQDoO30ZG2UsfcuEeG2IxtmGIsrsisy/ZYgEj5HI2&#xA;2iAeX6l55852/mbzva2mgM8Gm6TPc6Dc/Up3Nxe21uGSKV02k9Zy3phT8Sigo1RgZIGw/M7zrLqT&#xA;6afIrm3muZUtGYSRQwokMLqkhMFXYTlhIyIQppTlxJxVKvMfnTzZrNvZNq3kWC8sre89Z7OeO8DR&#xA;x/ov19pPSp6jSu0CkpwavFuO7BV7J5Z1iTWvL9hq7wfVRqEK3MUBJZlilHOLlUL8RjKlhTY7Yqme&#xA;KuxV2KuxV2KuxV2KuxV2KuxVYvxycv2U2X3Pc/wxSuRERFRFCooAVQKAAbAADFCG1GC6khD2rlLi&#xA;FvUjWtFegoUf2Yfd1yUCL35NWaMiLj9Q/FLrG9ivLcSoCpqVkjbZkcfaVh4jGUaKcWQTFhEZFsQt&#xA;/b+rFyUfGm49x4Yql0aq0ZVhUE7jEFBFoK4iMLeKHof4ZfGVuJOHCo+r4bZJhbBvNfkwOst9pkZ5&#xA;PvJaoOp/mQfrGRplDaQLDIBd6ddq1xDJCD8LrIrKaH2I7YYSot2oxDJAhnnlrSvXkF7MP3MZ/dA9&#xA;GYd/kMyMk+jp9Nhs2ejM4IJ3IanFf5j/AEzFM6drHESm9vFCigoNz3PXKibciMQOSYQR8VqepwMl&#xA;TFUseaW+vvQt3ZbS1cG5mQ0LyLuIlI7Dq/3ZOqDQZccqHIc/1frTOuQb1rqGUr0B6HwPbFILo25L&#xA;vsw2Ye+KkNsqspVgGVhRlO4IPY4ocqqqhVAVVFFUbAAdhireKuxV2KuxV2KuxV2KuxV2KrZGNAq/&#xA;abYHw8T9GKQ2qhVCjoNhihvFXYql95ZzxTm/sADcEATwE0WZR037OP2W+g5ZGQIouPkxkHjhz6jv&#xA;/aibK+t7yL1IiaqeMkbCjow6qy9jkZRIbMeQTFhXyLYgpLB+bGMqFY1oa7fhiqk+mSupVipB67n+&#xA;mEFBFpPe6bPbScSQUPRt/u6ZfE24OUcBUPSfxGT4WkZFWLTbi7rGqK6n7XL7P01GQJpugDLkmNr5&#xA;eFuigcPh+yBso+QAyqUyXKhiARf6On/mX7z/AEyDaqwWciN+8KlOtBX+mKoqngcVSye7uL+RrSwb&#xA;jEp43N6vbxSLxfxP7PzyYFblx5TMzwx5dT+rzR9tBBbQJBCvCOMUVf8APrkSbboxERQVaffgZOr2&#xA;OKqbfA4bs2zfwOKVTFDsVdirsVdirsVdirzDT/z58v8A1m1s9ctJNMvdRgtr3TLeFjeNNaXcskCS&#xA;UjRGDrJFR0VWIqCKitFV5/5yB8iIscspn9C4DNamNBK7LGQspZVNB6bNuAzGlSQKGirOPLXmPT/M&#xA;OljUbASpD6ssDxzoY5EkgcxurKa/tLiqaYqsj+ImQ/tbL/q/24pK/FDsVdirsVQV5poll+s20htr&#xA;0CgmUVDAfsyL+0MnGfQ8mnJhs8Q2l+OanHqxhYQ6nGLWUmizVrA5/wAl/wBn5NTEwvkxGetp7H7P&#xA;x70xBBFRuD0OQcha7qgqxpU0FfE4rSHuI1kjZHFQ3Wv8Msjs4uYWEsg0oCUmVuSA/CB3+eXGezgQ&#xA;xb7pxAqooVAFUdAMx5OzxbKuRbnYqh7zULS0UGeQKzbJGPidj4Ko3OSjEnk15MsYc0GYdQ1L/egN&#xA;Z2J/3QD++kH+Ww+wPYb++SsR5blq4ZZOfpj3dT+pMoYYoYliiQJGgoqKKADIE25EYgCguwJdTw2x&#xA;V2/ffFVrAEFTuD2OKWomNCjGrJtXxHY4qWGebPzOtfLGuT2uoWdNGsLazu9U1b1aGBb+a5hipAEJ&#xA;cK1mxc8hQHYHFCWS/n75EVoOLzcZY5p3aVDHSK3EvqMla+pRoOPJfg3+3iqN0n84NC15LyLQLae5&#xA;1C2tprqKC6U20Uq2627yhZwJVqI76F9gahx70VSeL8/dJttOuLvXdMk036vb2963pu1zGbaeO2lY&#xA;h1jT95Gl6hKcd/5sVVJv+cgPKkNzfpLb3EUOneo90zo4kjjtmkiuTJGEPF45YWRVqedCRsMVRqfn&#xA;h5SuZ7ixsIbufVoGkg+oSRGFvrMd1HZeg5b7J+sTKnKhX7VCeLUVeRQfmr5O06Kyk1HyLp9tCsNz&#xA;dXYgiKM10CssCW7hWqGsysr8thyAqKHFUd5k8z/lI+q6THceWprUWF4yWdtZPAsdzDLfC0aSReBU&#xA;qZk+OroSrEcmDMuKsq0H8/vLrxW9vo/lyVBqEsLWkcDJHFLJqF+bNJCzLGArzciWO/sd6Kqlt/zk&#xA;fpN7Itmug3q3ckEFz6ZePj6V3ZpfW/7zdPijlUOOqkjr1CkFmnkHzy/myTVR9WNkmnSQIiGaKSVh&#xA;NAsjF41FVCyFlVujU23BGK2y7g3+/G/4X+mK27g3+/G/4X+mK27g3+/G/wCF/pitu4N/vxv+F/pi&#xA;tu4N/vxv+F/pituMashSQeorbMGAII8CKYoIBQH6HMB5adcPaf8AFP8AeQ/8A32f9iRk+O+bR4Ff&#xA;Qa+531nWIdp7NLhR+3buAf8AgJeP/EjjUe9PFMcxfu/agtb8xjTltibVmM6s7K7rEyqlKgVryf4v&#xA;s5Zjx8V7uJqdRwEbc/h+CwrVPzltdK8zXmk3WntMIPrXo21s4N6UsYEuLieVJfRhjjWJywHql2HE&#xA;qprtXxOQMSlafn5pbzXIk0m5SGKS9SGTnAwcaZFCbsclkZKpLcIFbl6bIQ3LrSJLdGNPRotWuJ7a&#xA;Ca2sZJfXiSYH1IfTAkUNT1FdlaleqVHhkhEdSwnkkDQiT8qbMGtXP99OlnGeqW45yU/4yOKD6Fw3&#xA;Ect2HDllzIiPLn8z+pXtNMs7Vi8acpm+3O5LyN82apyMpktmPDGO459/VEcG/wB+N/wv9Mi3W7g3&#xA;+/G/4X+mK27g3+/G/wCF/pitu4N/vxv+F/pitu4N/vxv+F/pitu4N/vxv+F/pitrPQ/erJzaq1FN&#xA;gCD40GKeLZ5j5/1XQrTzxLJqGk6VeTafpVvKi3caNqF6t1LeQ/VrRpHRAIfTLPVWosh6d1iwS48z&#xA;+Rb0alpWoeV7CzUPdaVDcxTQW8wjaWGAn1ZmIt0/0lwWcFZOJFOq4qnX5d+YtHt9I1XRNB0iCPX9&#xA;Csbq4m1S7h9SGXn9Wklifg0b0kgECBVag9MDiERAVUDdefNHtkvNN8w+UdMvQkQKPb26CGa2g0zS&#xA;7ma2Mczuysv1yFEY1XioFPhxVqb8yvJdxquqW975Ms2CSXxnR4IWeVRbtcXkfNjxkaW5jYu4FACv&#xA;IVcYqm35d3PkXzD+bOrXtloc9lrVpHLNerLJC1vHcCRVeSONU5EySvIwblTnzfirNUqvaZLa3kQJ&#xA;JEjoNgrKCABQ9D8sVUbvStMvLZ7a6tIp7eRGjeJ0VlKOCGWhHQhjiqD0Hyn5d0G0W10mxjt4lYvU&#xA;lpHLNSpMkhdyfhHVu2KpibS1Lq5hjLp9hioqKimxptsKYqvWKJGLKiqzABmAAJArQH5VOKrsVdir&#xA;sVdirsVdirsVdiq1443481DcTyXkAaEdxXG0EA83j/mnz35ssde8wWh8rt5g00F7P6rHZywEQMls&#xA;EMl6/KOVLgTzrxVdig7VxTSFvvzw13Tp4Le88n/VY7i6Syto5neNWRpZI3aN/RZXHp+ltsOR4GjE&#xA;Lir1Lyhq2o6poq3Go6adKvI5ZreSzqxQCCVo1aNnSJijqoI+AYqnWKuxV2KuxV2KuxV2KuxV2Kqb&#xA;29vJIskkSPIleDsoJWvWhPSuKtPZ2j8+cEbeoKPVVPIV5UNRvvvira21ushkWJBIw4s4UBivgT4Y&#xA;q2YIT1jU/MDwA/hirRt7cmpiQn4t+Ir8Wzff3xVLLbyl5ctvMFz5hgsUTWbtOE92CxLAhFNFJ4KW&#xA;ESBiBU8RXFX/2Q==</xmpGImg:image>
               </rdf:li>
            </rdf:Alt>
         </xmp:Thumbnails>
         <xmpTPg:MaxPageSize rdf:parseType="Resource">
            <stDim:w>1240.000000</stDim:w>
            <stDim:h>936.000000</stDim:h>
            <stDim:unit>Pixels</stDim:unit>
         </xmpTPg:MaxPageSize>
         <xmpTPg:NPages>1</xmpTPg:NPages>
         <xmpTPg:HasVisibleTransparency>True</xmpTPg:HasVisibleTransparency>
         <xmpTPg:HasVisibleOverprint>False</xmpTPg:HasVisibleOverprint>
         <xmpTPg:Fonts>
            <rdf:Bag>
               <rdf:li rdf:parseType="Resource">
                  <stFnt:fontName>TitilliumWeb-Regular</stFnt:fontName>
                  <stFnt:fontFamily>Titillium Web</stFnt:fontFamily>
                  <stFnt:fontFace>Regular</stFnt:fontFace>
                  <stFnt:fontType>Open Type</stFnt:fontType>
                  <stFnt:versionString>Version 1.001;PS 57.000;hotconv 1.0.70;makeotf.lib2.5.55311</stFnt:versionString>
                  <stFnt:composite>False</stFnt:composite>
                  <stFnt:fontFileName>TitilliumWeb-Regular.ttf</stFnt:fontFileName>
               </rdf:li>
            </rdf:Bag>
         </xmpTPg:Fonts>
         <xmpTPg:PlateNames>
            <rdf:Seq>
               <rdf:li>Cyan</rdf:li>
               <rdf:li>Magenta</rdf:li>
               <rdf:li>Yellow</rdf:li>
               <rdf:li>Black</rdf:li>
            </rdf:Seq>
         </xmpTPg:PlateNames>
         <xmpTPg:SwatchGroups>
            <rdf:Seq>
               <rdf:li rdf:parseType="Resource">
                  <xmpG:groupName>Default Swatch Group</xmpG:groupName>
                  <xmpG:groupType>0</xmpG:groupType>
               </rdf:li>
            </rdf:Seq>
         </xmpTPg:SwatchGroups>
         <dc:format>image/svg+xml</dc:format>
      </rdf:Description>
   </rdf:RDF>
</x:xmpmeta>
                                                                                                    
                                                                                                    
                                                                                                    
                                                                                                    
                                                                                                    
                                                                                                    
                                                                                                    
                                                                                                    
                                                                                                    
                                                                                                    
                                                                                                    
                                                                                                    
                                                                                                    
                                                                                                    
                                                                                                    
                                                                                                    
                                                                                                    
                                                                                                    
                                                                                                    
                                                                                                    
                           
<?xpacket end="w"?>
	</metadata>
<g>
	<g id="Layer_2_2_">
		<g opacity="0.54">
			<g opacity="0.3">
				<path fill="#A91E22" d="M841.4,432.7c-2.3,0-4.1-1.8-4.1-4.1c0-2.2,1.8-4.1,4.1-4.1c2.2,0,4.1,1.8,4.1,4.1
					C845.5,430.9,843.7,432.7,841.4,432.7z M841.4,426.6c-1.1,0-2,0.9-2,2c0,1.1,0.9,2,2,2c1.1,0,2-0.9,2-2
					C843.5,427.5,842.6,426.6,841.4,426.6z"/>
			</g>
			<g opacity="0.3">
				<path fill="#A91E22" d="M322.4,404.9c-2.3,0-4.1-1.8-4.1-4.1s1.8-4.1,4.1-4.1c2.2,0,4.1,1.8,4.1,4.1
					C326.5,403.1,324.7,404.9,322.4,404.9z M322.4,398.8c-1.1,0-2,0.9-2,2s0.9,2,2,2c1.1,0,2-0.9,2-2
					C324.5,399.7,323.6,398.8,322.4,398.8z"/>
			</g>
			<g opacity="0.3">
				<path fill="#A91E22" d="M832.4,670.6c-2.3,0-4.1-1.8-4.1-4.1s1.8-4.1,4.1-4.1c2.2,0,4.1,1.8,4.1,4.1
					C836.5,668.7,834.6,670.6,832.4,670.6z M832.4,664.5c-1.1,0-2,0.9-2,2s0.9,2,2,2c1.1,0,2-0.9,2-2S833.5,664.5,832.4,664.5z"/>
			</g>
			<g opacity="0.3">
				<path fill="#A91E22" d="M494.6,836.3c-2.3,0-4.1-1.8-4.1-4.1s1.8-4.1,4.1-4.1c2.2,0,4.1,1.8,4.1,4.1
					C498.7,834.5,496.9,836.3,494.6,836.3z M494.6,830.2c-1.1,0-2,0.9-2,2s0.9,2,2,2c1.1,0,2-0.9,2-2
					C496.7,831.1,495.8,830.2,494.6,830.2z"/>
			</g>
			<g>
				<g opacity="0.1">
					<path fill="#A91E22" d="M359.8,640.7l113.3-97.8l365.3-113.7L359.8,640.7z M474.8,544.6l-112.7,93.6l477.7-208.3L474.8,544.6z"
						/>
				</g>
				<g opacity="0.1">
					<path fill="#A91E22" d="M570.4,549.6L318.8,400.7l216-124L570.4,549.6z M324.8,400.2l245.7,149.4l-36.5-270.1L324.8,400.2z"/>
				</g>
				<g opacity="0.1">
					<path fill="#A91E22" d="M494.6,832.7l295.8-499.7l4.2,12.3L835,667.7l-0.9,0.4L494.6,832.7z M790.3,338.6L495.7,832.2
						l336.7-165.7L790.3,338.6z"/>
				</g>
				<g opacity="0.1">
					<path fill="#A91E22" d="M991.7,844.3L359.5,641.6l-37.7-241L991.7,844.3L532.3,276.5l309.4,151.1l-0.5,2L536.4,279.7
						L991.7,844.3z M361.2,639.7l630.5,204.6L324.3,400.1L361.2,639.7z"/>
				</g>
				<g opacity="0.3">
					<path fill="#A91E22" d="M991.7,849c-2.3,0-4.1-1.8-4.1-4.1c0-2.3,1.8-4.1,4.1-4.1s4.1,1.8,4.1,4.1
						C995.8,847.2,994,849,991.7,849z M991.7,842.9c-1.1,0-2,0.9-2,2c0,1.1,0.9,2,2,2s2-0.9,2-2
						C993.8,843.8,992.8,842.9,991.7,842.9z"/>
				</g>
				<g opacity="0.3">
					<path fill="#A91E22" d="M360.4,644.7c-2.3,0-4.1-1.8-4.1-4.1c0-2.2,1.8-4.1,4.1-4.1s4.1,1.8,4.1,4.1
						C364.4,642.9,362.6,644.7,360.4,644.7z M360.4,638.6c-1.1,0-2,0.9-2,2c0,1.1,0.9,2,2,2s2-0.9,2-2
						C362.4,639.5,361.5,638.6,360.4,638.6z"/>
				</g>
				<g opacity="0.3">
					<path fill="#A91E22" d="M534.3,282.2c-2.3,0-4.1-1.8-4.1-4.1s1.8-4.1,4.1-4.1c2.2,0,4.1,1.8,4.1,4.1S536.6,282.2,534.3,282.2z
						 M534.3,276.1c-1.1,0-2,0.9-2,2c0,1.1,0.9,2,2,2c1.1,0,2-0.9,2-2S535.5,276.1,534.3,276.1z"/>
				</g>
			</g>
		</g>
		<line fill="none" x1="841.7" y1="427.6" x2="989" y2="842.9"/>
		
			<line opacity="6.000000e-02" fill="none" stroke="#A91E22" stroke-width="1.0258" stroke-miterlimit="10" enable-background="new    " x1="536.3" y1="278.7" x2="790.7" y2="334.8"/>
		<g opacity="0.14">
			<polygon fill="#868686" points="441,781.4 441,539.5 650.5,660.5 			"/>
			<polygon fill="#C6C6C5" points="441,781.4 441,297.2 650.5,418.3 441,539.5 			"/>
			<polygon fill="#D9D9D9" points="650.5,660.5 441,539.5 650.5,418.3 860.3,539.5 			"/>
			<polygon fill="#B1B1B1" points="650.5,660.5 441,539.5 650.5,418.3 			"/>
			<polygon fill="#C6C6C5" points="860.3,539.5 720.5,297.3 650.5,418.3 			"/>
			<polyline fill="#B1B1B1" points="720.5,297.3 441,297.3 650.5,418.3 			"/>
			<polygon fill="#B1B1B1" points="860.3,539.5 720.5,781.4 650.5,660.5 			"/>
			<polygon fill="#6F6F6E" points="720.5,781.4 441,781.4 650.5,660.5 			"/>
			<polygon fill="#9C9B9B" points="441,297.3 293,539.3 441,539.5 			"/>
			<polygon fill="#575756" points="441,781.4 293,539.5 292.9,539.4 441,539.5 441,539.5 			"/>
		</g>
		
			<radialGradient id="SVGID_1_" cx="360.1252" cy="1482.397" r="251.6146" gradientTransform="matrix(1 0 0 -1 224 2034)" gradientUnits="userSpaceOnUse">
			<stop  offset="0" style="stop-color:#FFFFFF"/>
			<stop  offset="1" style="stop-color:#90D1E4"/>
		</radialGradient>
		<polygon opacity="0.5" fill="url(#SVGID_1_)" enable-background="new    " points="564.3,282.8 350.9,376.5 367.3,628.2 
			552,820.4 817.3,659.7 798.2,395.7 		"/>
		
			<polyline opacity="0.18" fill="none" stroke="#A91E22" stroke-width="2.0517" stroke-miterlimit="10" enable-background="new    " points="
			918.2,719.5 991.4,846.4 734.6,846.4 		"/>
		
			<polyline opacity="0.18" fill="none" stroke="#A91E22" stroke-width="2.0517" stroke-miterlimit="10" enable-background="new    " points="
			261.2,650.4 569.7,116 877.8,649.5 		"/>
		
			<polyline opacity="0.18" fill="none" stroke="#A91E22" stroke-width="2.0517" stroke-miterlimit="10" enable-background="new    " points="
			400.2,846.4 148,846.4 221,720 		"/>
		<g opacity="0.18">
			<g>
				
					<radialGradient id="SVGID_2_" cx="593.3307" cy="1374.3435" r="61.55" gradientTransform="matrix(1 0 0 -1 224 2034)" gradientUnits="userSpaceOnUse">
					<stop  offset="0" style="stop-color:#00FFFF"/>
					<stop  offset="1" style="stop-color:#00FFFF;stop-opacity:0"/>
				</radialGradient>
				<circle fill="url(#SVGID_2_)" cx="817.3" cy="659.7" r="61.5"/>
				
					<radialGradient id="SVGID_3_" cx="593.3287" cy="1374.3435" r="25.521" gradientTransform="matrix(1 0 0 -1 224 2034)" gradientUnits="userSpaceOnUse">
					<stop  offset="0" style="stop-color:#00FFFF"/>
					<stop  offset="1" style="stop-color:#00FFFF;stop-opacity:0"/>
				</radialGradient>
				<circle fill="url(#SVGID_3_)" cx="817.3" cy="659.7" r="25.5"/>
			</g>
			<g>
				
					<radialGradient id="SVGID_4_" cx="328.6667" cy="1213.6305" r="61.55" gradientTransform="matrix(1 0 0 -1 224 2034)" gradientUnits="userSpaceOnUse">
					<stop  offset="0" style="stop-color:#00FFFF"/>
					<stop  offset="1" style="stop-color:#00FFFF;stop-opacity:0"/>
				</radialGradient>
				<circle fill="url(#SVGID_4_)" cx="552.7" cy="820.4" r="61.5"/>
				
					<radialGradient id="SVGID_5_" cx="328.6658" cy="1213.6305" r="25.521" gradientTransform="matrix(1 0 0 -1 224 2034)" gradientUnits="userSpaceOnUse">
					<stop  offset="0" style="stop-color:#00FFFF"/>
					<stop  offset="1" style="stop-color:#00FFFF;stop-opacity:0"/>
				</radialGradient>
				<circle fill="url(#SVGID_5_)" cx="552.7" cy="820.4" r="25.5"/>
			</g>
			<g>
				
					<radialGradient id="SVGID_6_" cx="144.0188" cy="1405.1184" r="61.55" gradientTransform="matrix(1 0 0 -1 224 2034)" gradientUnits="userSpaceOnUse">
					<stop  offset="0" style="stop-color:#00FFFF"/>
					<stop  offset="1" style="stop-color:#00FFFF;stop-opacity:0"/>
				</radialGradient>
				<circle fill="url(#SVGID_6_)" cx="368" cy="628.9" r="61.5"/>
				
					<radialGradient id="SVGID_7_" cx="144.0168" cy="1405.1184" r="25.521" gradientTransform="matrix(1 0 0 -1 224 2034)" gradientUnits="userSpaceOnUse">
					<stop  offset="0" style="stop-color:#00FFFF"/>
					<stop  offset="1" style="stop-color:#00FFFF;stop-opacity:0"/>
				</radialGradient>
				<circle fill="url(#SVGID_7_)" cx="368" cy="628.9" r="25.5"/>
			</g>
			<g>
				
					<radialGradient id="SVGID_8_" cx="574.1508" cy="1637.9005" r="61.55" gradientTransform="matrix(1 0 0 -1 224 2034)" gradientUnits="userSpaceOnUse">
					<stop  offset="0" style="stop-color:#00FFFF"/>
					<stop  offset="1" style="stop-color:#00FFFF;stop-opacity:0"/>
				</radialGradient>
				<circle fill="url(#SVGID_8_)" cx="798.2" cy="396.1" r="61.5"/>
				
					<radialGradient id="SVGID_9_" cx="574.1487" cy="1637.9005" r="25.521" gradientTransform="matrix(1 0 0 -1 224 2034)" gradientUnits="userSpaceOnUse">
					<stop  offset="0" style="stop-color:#00FFFF"/>
					<stop  offset="1" style="stop-color:#00FFFF;stop-opacity:0"/>
				</radialGradient>
				<circle fill="url(#SVGID_9_)" cx="798.1" cy="396.1" r="25.5"/>
			</g>
			<g>
				
					<radialGradient id="SVGID_10_" cx="339.6097" cy="1751.1635" r="61.55" gradientTransform="matrix(1 0 0 -1 224 2034)" gradientUnits="userSpaceOnUse">
					<stop  offset="0" style="stop-color:#00FFFF"/>
					<stop  offset="1" style="stop-color:#00FFFF;stop-opacity:0"/>
				</radialGradient>
				<circle fill="url(#SVGID_10_)" cx="563.6" cy="282.8" r="61.5"/>
				
					<radialGradient id="SVGID_11_" cx="339.6078" cy="1751.1635" r="25.521" gradientTransform="matrix(1 0 0 -1 224 2034)" gradientUnits="userSpaceOnUse">
					<stop  offset="0" style="stop-color:#00FFFF"/>
					<stop  offset="1" style="stop-color:#00FFFF;stop-opacity:0"/>
				</radialGradient>
				<circle fill="url(#SVGID_11_)" cx="563.6" cy="282.8" r="25.5"/>
			</g>
			<g>
				
					<radialGradient id="SVGID_12_" cx="127.6158" cy="1657.7795" r="61.55" gradientTransform="matrix(1 0 0 -1 224 2034)" gradientUnits="userSpaceOnUse">
					<stop  offset="0" style="stop-color:#00FFFF"/>
					<stop  offset="1" style="stop-color:#00FFFF;stop-opacity:0"/>
				</radialGradient>
				<circle fill="url(#SVGID_12_)" cx="351.6" cy="376.2" r="61.5"/>
				
					<radialGradient id="SVGID_13_" cx="127.6147" cy="1657.7795" r="25.521" gradientTransform="matrix(1 0 0 -1 224 2034)" gradientUnits="userSpaceOnUse">
					<stop  offset="0" style="stop-color:#00FFFF"/>
					<stop  offset="1" style="stop-color:#00FFFF;stop-opacity:0"/>
				</radialGradient>
				<circle fill="url(#SVGID_13_)" cx="351.6" cy="376.2" r="25.5"/>
			</g>
		</g>
		
			<linearGradient id="SVGID_14_" gradientUnits="userSpaceOnUse" x1="69.3273" y1="1754.78" x2="286.3193" y2="1754.78" gradientTransform="matrix(1 0 0 -1 224 2034)">
			<stop  offset="0" style="stop-color:#4EC3D2"/>
			<stop  offset="1" style="stop-color:#67B8C1"/>
		</linearGradient>
		
			<path opacity="0.8" fill="none" stroke="url(#SVGID_14_)" stroke-width="6.155" stroke-linecap="round" stroke-miterlimit="10" enable-background="new    " d="
			M296.4,348.1c48.6-70.4,123.7-121,210.8-137.7"/>
		
			<linearGradient id="SVGID_15_" gradientUnits="userSpaceOnUse" x1="405.7982" y1="1754.78" x2="622.7903" y2="1754.78" gradientTransform="matrix(1 0 0 -1 224 2034)">
			<stop  offset="0" style="stop-color:#4EC3D2"/>
			<stop  offset="1" style="stop-color:#67B8C1"/>
		</linearGradient>
		
			<path opacity="0.8" fill="none" stroke="url(#SVGID_15_)" stroke-width="6.155" stroke-linecap="round" stroke-miterlimit="10" enable-background="new    " d="
			M843.7,348.1C795.1,277.7,720,227,632.9,210.4"/>
		
			<linearGradient id="SVGID_16_" gradientUnits="userSpaceOnUse" x1="69.3273" y1="1239.8149" x2="286.3193" y2="1239.8149" gradientTransform="matrix(1 0 0 -1 224 2034)">
			<stop  offset="0" style="stop-color:#4EC3D2"/>
			<stop  offset="1" style="stop-color:#67B8C1"/>
		</linearGradient>
		
			<path opacity="0.8" fill="none" stroke="url(#SVGID_16_)" stroke-width="6.155" stroke-linecap="round" stroke-miterlimit="10" enable-background="new    " d="
			M296.4,725.3c48.6,70.4,123.7,121,210.8,137.7"/>
		
			<linearGradient id="SVGID_17_" gradientUnits="userSpaceOnUse" x1="405.7982" y1="1239.8149" x2="622.7903" y2="1239.8149" gradientTransform="matrix(1 0 0 -1 224 2034)">
			<stop  offset="0" style="stop-color:#4EC3D2"/>
			<stop  offset="1" style="stop-color:#67B8C1"/>
		</linearGradient>
		
			<path opacity="0.8" fill="none" stroke="url(#SVGID_17_)" stroke-width="6.155" stroke-linecap="round" stroke-miterlimit="10" enable-background="new    " d="
			M843.7,725.3C795.1,795.7,720,846.4,632.9,863"/>
		
			<linearGradient id="SVGID_18_" gradientUnits="userSpaceOnUse" x1="10.5693" y1="1512.593" x2="41.1752" y2="1512.593" gradientTransform="matrix(1 0 0 -1 224 2034)">
			<stop  offset="0" style="stop-color:#4EC3D2"/>
			<stop  offset="1" style="stop-color:#67B8C1"/>
		</linearGradient>
		
			<path opacity="0.8" fill="none" stroke="url(#SVGID_18_)" stroke-width="6.155" stroke-linecap="round" stroke-miterlimit="10" enable-background="new    " d="
			M251.3,631.4c-8.9-30-13.6-61.7-13.6-94.5c0-44.4,8.7-86.7,24.5-125.4"/>
		
			<linearGradient id="SVGID_19_" gradientUnits="userSpaceOnUse" x1="650.6063" y1="1513.4015" x2="681.4603" y2="1513.4015" gradientTransform="matrix(1 0 0 -1 224 2034)">
			<stop  offset="0" style="stop-color:#4EC3D2"/>
			<stop  offset="1" style="stop-color:#67B8C1"/>
		</linearGradient>
		
			<path opacity="0.8" fill="none" stroke="url(#SVGID_19_)" stroke-width="6.155" stroke-linecap="round" stroke-miterlimit="10" enable-background="new    " d="
			M877.7,410.9c15.9,38.8,24.7,81.4,24.7,126c0,32.5-4.7,63.9-13.3,93.5"/>
		<g>
			<text transform="matrix(1 0 0 1 896.1084 678.0302)" font-family="'TitilliumWeb-Regular'" font-size="28.3128">Branding </text>
			<text transform="matrix(1 0 0 1 896.1084 712.0062)" font-family="'TitilliumWeb-Regular'" font-size="28.3128">&amp; Identity</text>
			<text transform="matrix(1 0 0 1 566.3716 212.2909)" font-family="'TitilliumWeb-Regular'" font-size="28.3128">UX</text>
			<text transform="matrix(1 0 0 1 887.1406 386.1689)" font-family="'TitilliumWeb-Regular'" font-size="28.3128">UI</text>
			<g>
				<text transform="matrix(1 0 0 1 464.813 50.0352)" font-family="'TitilliumWeb-Regular'" font-size="30.7748">Problem Sloving</text>
				<text transform="matrix(1 0 0 1 474.1069 86.9651)" font-family="'TitilliumWeb-Regular'" font-size="30.7748">Solution / NPD</text>
			</g>
			<text transform="matrix(1 0 0 1 191.6309 384.1171)" font-family="'TitilliumWeb-Regular'" font-size="28.3128">3D Printing</text>
			<text transform="matrix(1 0 0 1 191.6304 678.0312)" font-family="'TitilliumWeb-Regular'" font-size="28.3128">Motion </text>
			<text transform="matrix(1 0 0 1 191.6304 712.0073)" font-family="'TitilliumWeb-Regular'" font-size="28.3128">Graphics</text>
			<g>
				<text transform="matrix(1 0 0 1 0.9999 838.3212)" font-family="'TitilliumWeb-Regular'" font-size="30.7748">Design  </text>
				<text transform="matrix(1 0 0 1 0.9999 875.2512)" font-family="'TitilliumWeb-Regular'" font-size="30.7748">Management</text>
			</g>
			<text transform="matrix(1 0 0 1 1018.1084 838.3212)" font-family="'TitilliumWeb-Regular'" font-size="30.7748">Design Thinking/</text>
			<text transform="matrix(1 0 0 1 1018.1084 875.2512)" font-family="'TitilliumWeb-Regular'" font-size="30.7748">Criticle Thinking</text>
			<text transform="matrix(1 0 0 1 548.024 871.6592)" font-family="'TitilliumWeb-Regular'" font-size="28.3128">Grphic </text>
			<text transform="matrix(1 0 0 1 548.251 905.6351)" font-family="'TitilliumWeb-Regular'" font-size="28.3128">Design</text>
		</g>
		<g>
			
				<linearGradient id="triangle36_1_" gradientUnits="userSpaceOnUse" x1="371.8428" y1="1746.7517" x2="376.9272" y2="1751.8361" gradientTransform="matrix(29 0 0 35 -10423.6689 -60693.9531)">
				<stop  offset="0" style="stop-color:#8F7254"/>
				<stop  offset="1" style="stop-color:#3B7076"/>
			</linearGradient>
			<polygon id="triangle36_15_" fill="url(#triangle36_1_)" points="348.1,456.5 491.1,521.6 456.6,638.5 			"/>
			
				<linearGradient id="triangle36_2_" gradientUnits="userSpaceOnUse" x1="373.0424" y1="1741.2689" x2="378.0941" y2="1746.3207" gradientTransform="matrix(31 0 0 40 -11203.6689 -69351.9531)">
				<stop  offset="0" style="stop-color:#93A691"/>
				<stop  offset="1" style="stop-color:#4CB8C6"/>
			</linearGradient>
			<polygon id="triangle36_14_" fill="url(#triangle36_2_)" points="348.1,456.5 491.1,521.6 501,306 			"/>
			
				<linearGradient id="triangle36_3_" gradientUnits="userSpaceOnUse" x1="359.5412" y1="1741.0411" x2="365.0103" y2="1746.5101" gradientTransform="matrix(14 0 0 41 -4544.6562 -71078.9531)">
				<stop  offset="0" style="stop-color:#45ACBA"/>
				<stop  offset="1" style="stop-color:#5B9398"/>
			</linearGradient>
			<polygon id="triangle36_13_" fill="url(#triangle36_3_)" points="491.1,521.6 560.1,300.9 501,306 			"/>
			
				<linearGradient id="triangle36_4_" gradientUnits="userSpaceOnUse" x1="364.0956" y1="1761.2777" x2="369.1053" y2="1766.2875" gradientTransform="matrix(18 0 0 23 -6111.6562 -39969.9688)">
				<stop  offset="0" style="stop-color:#2B4F53"/>
				<stop  offset="1" style="stop-color:#5FADB4"/>
			</linearGradient>
			<polygon id="triangle36_12_" fill="url(#triangle36_4_)" points="456.6,638.5 491.1,521.6 545.4,597.8 			"/>
			
				<linearGradient id="triangle36_5_" gradientUnits="userSpaceOnUse" x1="371.7738" y1="1753.9181" x2="376.7695" y2="1758.9138" gradientTransform="matrix(24 0 0 30 -8451.6562 -52036.9648)">
				<stop  offset="0" style="stop-color:#354544"/>
				<stop  offset="1" style="stop-color:#7CA3A1"/>
			</linearGradient>
			<polygon id="triangle36_11_" fill="url(#triangle36_5_)" points="456.6,638.5 574.9,750.3 545.4,597.8 			"/>
			
				<linearGradient id="triangle36_16_" gradientUnits="userSpaceOnUse" x1="365.4593" y1="1753.4406" x2="370.4666" y2="1758.4479" gradientTransform="matrix(16 0 0 32 -5313.6562 -55488.9648)">
				<stop  offset="0" style="stop-color:#7F868F"/>
				<stop  offset="1" style="stop-color:#847C88"/>
			</linearGradient>
			<polygon id="triangle36_10_" fill="url(#triangle36_16_)" points="574.9,750.3 624.3,760.4 545.4,597.8 			"/>
			
				<linearGradient id="triangle36_17_" gradientUnits="userSpaceOnUse" x1="381.4255" y1="1779.6208" x2="386.4214" y2="1784.6167" gradientTransform="matrix(54 0 0 15 -20144.6621 -26161.9688)">
				<stop  offset="0" style="stop-color:#44AAB7"/>
				<stop  offset="1" style="stop-color:#5CAFB7"/>
			</linearGradient>
			<polygon id="triangle36_9_" fill="url(#triangle36_17_)" points="491.1,521.6 545.4,597.8 757.4,577.5 			"/>
			
				<linearGradient id="triangle36_18_" gradientUnits="userSpaceOnUse" x1="381.3736" y1="1738.517" x2="386.5282" y2="1743.6715" gradientTransform="matrix(54 0 0 52 -20144.6621 -90064.9531)">
				<stop  offset="0" style="stop-color:#4EC3D2"/>
				<stop  offset="1" style="stop-color:#67B8C1"/>
			</linearGradient>
			<polygon id="triangle36_8_" fill="url(#triangle36_18_)" points="491.1,521.6 560.1,300.9 757.4,577.5 			"/>
			
				<linearGradient id="triangle36_19_" gradientUnits="userSpaceOnUse" x1="381.5636" y1="1748.8711" x2="386.6017" y2="1753.9092" gradientTransform="matrix(43 0 0 36 -15843.6611 -62396.9531)">
				<stop  offset="0" style="stop-color:#6FC4CB"/>
				<stop  offset="1" style="stop-color:#69AFC0"/>
			</linearGradient>
			<polygon id="triangle36_7_" fill="url(#triangle36_19_)" points="545.4,597.8 624.3,760.4 757.4,577.5 			"/>
			
				<linearGradient id="triangle36_20_" gradientUnits="userSpaceOnUse" x1="382.794" y1="1737.1553" x2="387.9353" y2="1742.2968" gradientTransform="matrix(47 0 0 52 -17400.6602 -90064.9531)">
				<stop  offset="0" style="stop-color:#76B8BE"/>
				<stop  offset="1" style="stop-color:#8ADCE3"/>
			</linearGradient>
			<polygon id="triangle36_6_" fill="url(#triangle36_20_)" points="560.1,300.9 792,364 757.4,577.5 			"/>
		</g>
		<g>
			<path fill="#FFFFFF" d="M875.1,661.9c-5.7,0-10.3,4.6-10.3,10.3c0,5.7,4.6,10.2,10.3,10.2c5.7,0,10.3-4.6,10.3-10.2
				C885.4,666.5,880.8,661.9,875.1,661.9z"/>
			
				<linearGradient id="SVGID_20_" gradientUnits="userSpaceOnUse" x1="640.8828" y1="1361.8815" x2="661.3987" y2="1361.8815" gradientTransform="matrix(1 0 0 -1 224 2034)">
				<stop  offset="0" style="stop-color:#4EC3D2"/>
				<stop  offset="1" style="stop-color:#67B8C1"/>
			</linearGradient>
			<path fill="url(#SVGID_20_)" d="M875.1,661.9c-5.7,0-10.3,4.6-10.3,10.3c0,5.7,4.6,10.2,10.3,10.2c5.7,0,10.3-4.6,10.3-10.2
				C885.4,666.5,880.8,661.9,875.1,661.9z M882,673.6h-5.4v5.4h-3v-5.4h-5.4v-3h5.4v-5.3h3v5.3h5.4V673.6z"/>
		</g>
		<g>
			<path fill="#FFFFFF" d="M169.1,661.9c-5.7,0-10.3,4.6-10.3,10.3c0,5.7,4.6,10.2,10.3,10.2c5.7,0,10.3-4.6,10.3-10.2
				C179.4,666.5,174.8,661.9,169.1,661.9z"/>
			
				<linearGradient id="SVGID_21_" gradientUnits="userSpaceOnUse" x1="-65.1432" y1="1361.8815" x2="-44.6272" y2="1361.8815" gradientTransform="matrix(1 0 0 -1 224 2034)">
				<stop  offset="0" style="stop-color:#4EC3D2"/>
				<stop  offset="1" style="stop-color:#67B8C1"/>
			</linearGradient>
			<path fill="url(#SVGID_21_)" d="M169.1,661.9c-5.7,0-10.3,4.6-10.3,10.3c0,5.7,4.6,10.2,10.3,10.2c5.7,0,10.3-4.6,10.3-10.2
				C179.4,666.5,174.8,661.9,169.1,661.9z M176,673.6h-5.4v5.4h-3v-5.4h-5.4v-3h5.4v-5.3h3v5.3h5.4V673.6z"/>
		</g>
		<g>
			<path fill="#FFFFFF" d="M862.8,368.2c-5.7,0-10.3,4.6-10.3,10.3c0,5.7,4.6,10.2,10.3,10.2c5.7,0,10.3-4.6,10.3-10.2
				C873.1,372.8,868.5,368.2,862.8,368.2z"/>
			
				<linearGradient id="SVGID_22_" gradientUnits="userSpaceOnUse" x1="628.5728" y1="1655.5245" x2="649.0887" y2="1655.5245" gradientTransform="matrix(1 0 0 -1 224 2034)">
				<stop  offset="0" style="stop-color:#4EC3D2"/>
				<stop  offset="1" style="stop-color:#67B8C1"/>
			</linearGradient>
			<path fill="url(#SVGID_22_)" d="M862.8,368.2c-5.7,0-10.3,4.6-10.3,10.3c0,5.7,4.6,10.2,10.3,10.2c5.7,0,10.3-4.6,10.3-10.2
				C873.1,372.8,868.5,368.2,862.8,368.2z M869.7,379.9h-5.4v5.4h-3v-5.4H856v-3h5.4v-5.3h3v5.3h5.4V379.9z"/>
		</g>
		<g>
			<path fill="#FFFFFF" d="M169.1,366.2c-5.7,0-10.3,4.6-10.3,10.3c0,5.7,4.6,10.2,10.3,10.2c5.7,0,10.3-4.6,10.3-10.2
				C179.4,370.8,174.8,366.2,169.1,366.2z"/>
			
				<linearGradient id="SVGID_23_" gradientUnits="userSpaceOnUse" x1="-65.1432" y1="1657.5765" x2="-44.6272" y2="1657.5765" gradientTransform="matrix(1 0 0 -1 224 2034)">
				<stop  offset="0" style="stop-color:#4EC3D2"/>
				<stop  offset="1" style="stop-color:#67B8C1"/>
			</linearGradient>
			<path fill="url(#SVGID_23_)" d="M169.1,366.2c-5.7,0-10.3,4.6-10.3,10.3c0,5.7,4.6,10.2,10.3,10.2c5.7,0,10.3-4.6,10.3-10.2
				C179.4,370.8,174.8,366.2,169.1,366.2z M176,377.9h-5.4v5.4h-3v-5.4h-5.4v-3h5.4v-5.3h3v5.3h5.4V377.9z"/>
		</g>
		<g>
			<path fill="#FFFFFF" d="M553.2,194c-5.7,0-10.3,4.6-10.3,10.3c0,5.7,4.6,10.2,10.3,10.2c5.7,0,10.3-4.6,10.3-10.2
				C563.4,198.6,558.8,194,553.2,194z"/>
			
				<linearGradient id="SVGID_24_" gradientUnits="userSpaceOnUse" x1="318.8958" y1="1829.7004" x2="339.4117" y2="1829.7004" gradientTransform="matrix(1 0 0 -1 224 2034)">
				<stop  offset="0" style="stop-color:#4EC3D2"/>
				<stop  offset="1" style="stop-color:#67B8C1"/>
			</linearGradient>
			<path fill="url(#SVGID_24_)" d="M553.2,194c-5.7,0-10.3,4.6-10.3,10.3c0,5.7,4.6,10.2,10.3,10.2c5.7,0,10.3-4.6,10.3-10.2
				C563.4,198.6,558.8,194,553.2,194z M560,205.8h-5.4v5.4h-3v-5.4h-5.4v-3h5.4v-5.3h3v5.3h5.4V205.8z"/>
		</g>
		<g>
			<path fill="#FFFFFF" d="M531.5,854.5c-5.7,0-10.3,4.6-10.3,10.3c0,5.7,4.6,10.2,10.3,10.2c5.7,0,10.3-4.6,10.3-10.2
				C541.8,859.1,537.2,854.5,531.5,854.5z"/>
			
				<linearGradient id="SVGID_25_" gradientUnits="userSpaceOnUse" x1="297.2448" y1="1169.2825" x2="317.7607" y2="1169.2825" gradientTransform="matrix(1 0 0 -1 224 2034)">
				<stop  offset="0" style="stop-color:#4EC3D2"/>
				<stop  offset="1" style="stop-color:#67B8C1"/>
			</linearGradient>
			<path fill="url(#SVGID_25_)" d="M531.5,854.5c-5.7,0-10.3,4.6-10.3,10.3c0,5.7,4.6,10.2,10.3,10.2c5.7,0,10.3-4.6,10.3-10.2
				C541.8,859.1,537.2,854.5,531.5,854.5z M538.3,866.2H533v5.4h-3v-5.4h-5.4v-3h5.4v-5.3h3v5.3h5.4V866.2z"/>
		</g>
	</g>
	<polygon opacity="0.36" fill="#CAFFFC" points="560.1,300.9 491.1,521.6 545.4,597.8 757.4,577.5 	"/>
</g>
</svg>
