<?xml version="1.0" encoding="utf-8"?>
<!-- Generator: Adobe Illustrator 17.1.0, SVG Export Plug-In . SVG Version: 6.00 Build 0)  -->
<!DOCTYPE svg PUBLIC "-//W3C//DTD SVG 1.1//EN" "http://www.w3.org/Graphics/SVG/1.1/DTD/svg11.dtd" [
	<!ENTITY ns_flows "http://ns.adobe.com/Flows/1.0/">
	<!ENTITY ns_extend "http://ns.adobe.com/Extensibility/1.0/">
	<!ENTITY ns_ai "http://ns.adobe.com/AdobeIllustrator/10.0/">
	<!ENTITY ns_graphs "http://ns.adobe.com/Graphs/1.0/">
	<!ENTITY ns_vars "http://ns.adobe.com/Variables/1.0/">
	<!ENTITY ns_imrep "http://ns.adobe.com/ImageReplacement/1.0/">
	<!ENTITY ns_sfw "http://ns.adobe.com/SaveForWeb/1.0/">
	<!ENTITY ns_custom "http://ns.adobe.com/GenericCustomNamespace/1.0/">
	<!ENTITY ns_adobe_xpath "http://ns.adobe.com/XPath/1.0/">
]>
<svg version="1.1" xmlns:x="&ns_extend;" xmlns:i="&ns_ai;" xmlns:graph="&ns_graphs;"
	 xmlns="http://www.w3.org/2000/svg" xmlns:xlink="http://www.w3.org/1999/xlink" xmlns:a="http://ns.adobe.com/AdobeSVGViewerExtensions/3.0/"
	 x="0px" y="0px" viewBox="0 0 194 48" enable-background="new 0 0 194 48" xml:space="preserve">
<metadata>
	<sfw  xmlns="&ns_sfw;">
		<slices></slices>
		<sliceSourceBounds  height="42.2" width="176" bottomLeftOrigin="true" x="9" y="-45.1"></sliceSourceBounds>
	</sfw>
</metadata>
<g id="gray" display="none">
	<g id="RESUME_2_" display="inline">
		<g>
			<text transform="matrix(1.0007 0 0 1 35.1734 35.5977)" fill="#616067" font-family="'JUICELight'" font-size="22.2942">RESUME</text>
		</g>
	</g>
	<g display="inline">
		<path fill="#616067" stroke="#616067" stroke-width="0.2052" stroke-miterlimit="10" d="M151.3,31.6v-1h1.5c2.4,0,4.4-2,4.4-4.4
			c0-2.5-1.6-4-3.3-4.4c-0.4-4-3.4-5.8-6.1-5.8c-2.7,0-4.4,1.4-5.4,3c-0.5-0.2-1-0.4-1.5-0.4c-1.1,0-2.2,0.5-2.9,1.4
			c-0.4,0.5-0.6,1-0.6,1.6c-2.3,0.1-4.1,2.1-4.1,4.5c0,2.4,2,4.4,4.4,4.4h1.9v1h-1.9c-2.9,0-5.3-2.4-5.3-5.3c0-2.3,1.6-4.4,3.8-5.1
			l0.5-0.1l0.1-0.5c0.5-1.7,2-2.8,3.8-2.8c0.3,0,0.7,0,1,0.1l0.5,0.1l0.4-0.4c1.3-1.6,3.3-2.5,5.4-2.5c3.4,0,6.3,2.4,6.9,5.7
			l0.1,0.4l0.4,0.2c1.9,0.9,3,2.7,3,4.8c0,2.9-2.4,5.3-5.3,5.3H151.3z"/>
		<g id="download-9-icon">
			<g>
				<path fill="#616067" d="M149,32.7c0.2,0,0.3,0.1,0.1,0.3l-3.5,3.8c-0.2,0.2-0.4,0.2-0.6,0l-3.5-3.8c-0.2-0.2-0.1-0.3,0.1-0.3
					h0.8c0.2,0,0.4-0.2,0.4-0.4v-0.8c0-0.2,0.2-0.4,0.4-0.4h4c0.2,0,0.4,0.2,0.4,0.4v0.8c0,0.2,0.2,0.4,0.4,0.4H149z M143,30.1
					c0,0.2,0.2,0.4,0.4,0.4h4c0.2,0,0.4-0.2,0.4-0.4v-0.5c0-0.2-0.2-0.4-0.4-0.4h-4c-0.2,0-0.4,0.2-0.4,0.4V30.1z M147.3,28.8
					c0.2,0,0.4-0.2,0.4-0.4v-0.3c0-0.2-0.2-0.4-0.4-0.4h-4c-0.2,0-0.4,0.2-0.4,0.4v0.3c0,0.2,0.2,0.4,0.4,0.4H147.3z"/>
			</g>
		</g>
		<g>
			<text transform="matrix(1.0004 0 0 1 140.364 25.9365)" fill="#616067" font-family="'MyriadPro-Semibold'" font-size="4.9251">.PDF</text>
		</g>
	</g>
	<g display="inline">
		<path fill="#616067" d="M184.6,3.4v41.3H9.4V3.4H184.6 M185,2.9H9v42.2h176V2.9L185,2.9z"/>
	</g>
</g>
<g id="activeYellow">
	<g>
		<rect x="9.2" y="3.1" fill="#FFC000" width="175.6" height="41.7"/>
		<path fill="#FFC000" d="M184.6,3.4v41.3H9.4V3.4H184.6 M185,2.9H9v42.2h176V2.9L185,2.9z"/>
	</g>
	<g id="RESUME_1_">
		<g>
			<text transform="matrix(1.0007 0 0 1 35.1734 35.5977)" fill="#FFFFFF" font-family="'JUICELight'" font-size="22.2942">RESUME</text>
		</g>
	</g>
	<g>
		<path fill="#FFFFFF" stroke="#FFFFFF" stroke-width="0.2052" stroke-miterlimit="10" d="M151.3,31.6v-1h1.5c2.4,0,4.4-2,4.4-4.4
			c0-2.5-1.6-4-3.3-4.4c-0.4-4-3.4-5.8-6.1-5.8c-2.7,0-4.4,1.4-5.4,3c-0.5-0.2-1-0.4-1.5-0.4c-1.1,0-2.2,0.5-2.9,1.4
			c-0.4,0.5-0.6,1-0.6,1.6c-2.3,0.1-4.1,2.1-4.1,4.5c0,2.4,2,4.4,4.4,4.4h1.9v1h-1.9c-2.9,0-5.3-2.4-5.3-5.3c0-2.3,1.6-4.4,3.8-5.1
			l0.5-0.1l0.1-0.5c0.5-1.7,2-2.8,3.8-2.8c0.3,0,0.7,0,1,0.1l0.5,0.1l0.4-0.4c1.3-1.6,3.3-2.5,5.4-2.5c3.4,0,6.3,2.4,6.9,5.7
			l0.1,0.4l0.4,0.2c1.9,0.9,3,2.7,3,4.8c0,2.9-2.4,5.3-5.3,5.3H151.3z"/>
		<g id="download-9-icon_1_">
			<g>
				<path fill="#FFFFFF" d="M149,32.7c0.2,0,0.3,0.1,0.1,0.3l-3.5,3.8c-0.2,0.2-0.4,0.2-0.6,0l-3.5-3.8c-0.2-0.2-0.1-0.3,0.1-0.3
					h0.8c0.2,0,0.4-0.2,0.4-0.4v-0.8c0-0.2,0.2-0.4,0.4-0.4h4c0.2,0,0.4,0.2,0.4,0.4v0.8c0,0.2,0.2,0.4,0.4,0.4H149z M143,30.1
					c0,0.2,0.2,0.4,0.4,0.4h4c0.2,0,0.4-0.2,0.4-0.4v-0.5c0-0.2-0.2-0.4-0.4-0.4h-4c-0.2,0-0.4,0.2-0.4,0.4V30.1z M147.3,28.8
					c0.2,0,0.4-0.2,0.4-0.4v-0.3c0-0.2-0.2-0.4-0.4-0.4h-4c-0.2,0-0.4,0.2-0.4,0.4v0.3c0,0.2,0.2,0.4,0.4,0.4H147.3z"/>
			</g>
		</g>
		<g>
			<text transform="matrix(1.0004 0 0 1 140.364 25.9365)" fill="#FFFFFF" font-family="'MyriadPro-Semibold'" font-size="4.9251">.PDF</text>
		</g>
	</g>
</g>
</svg>
