<?xml version="1.0" encoding="utf-8"?>
<!-- Generator: Adobe Illustrator 17.1.0, SVG Export Plug-In . SVG Version: 6.00 Build 0)  -->
<!DOCTYPE svg PUBLIC "-//W3C//DTD SVG 1.1//EN" "http://www.w3.org/Graphics/SVG/1.1/DTD/svg11.dtd" [
	<!ENTITY ns_flows "http://ns.adobe.com/Flows/1.0/">
	<!ENTITY ns_extend "http://ns.adobe.com/Extensibility/1.0/">
	<!ENTITY ns_ai "http://ns.adobe.com/AdobeIllustrator/10.0/">
	<!ENTITY ns_graphs "http://ns.adobe.com/Graphs/1.0/">
	<!ENTITY ns_vars "http://ns.adobe.com/Variables/1.0/">
	<!ENTITY ns_imrep "http://ns.adobe.com/ImageReplacement/1.0/">
	<!ENTITY ns_sfw "http://ns.adobe.com/SaveForWeb/1.0/">
	<!ENTITY ns_custom "http://ns.adobe.com/GenericCustomNamespace/1.0/">
	<!ENTITY ns_adobe_xpath "http://ns.adobe.com/XPath/1.0/">
]>
<svg version="1.1" id="Layer_1" xmlns:x="&ns_extend;" xmlns:i="&ns_ai;" xmlns:graph="&ns_graphs;"
	 xmlns="http://www.w3.org/2000/svg" xmlns:xlink="http://www.w3.org/1999/xlink" xmlns:a="http://ns.adobe.com/AdobeSVGViewerExtensions/3.0/"
	 x="0px" y="0px" viewBox="0 0 260 360" enable-background="new 0 0 260 360" xml:space="preserve">
<metadata>
	<sfw  xmlns="&ns_sfw;">
		<slices></slices>
		<sliceSourceBounds  width="248" height="354.139" bottomLeftOrigin="true" x="6" y="-359.787"></sliceSourceBounds>
	</sfw>
</metadata>
<g>
	<g>
		<text transform="matrix(1 0 0 1 58.6537 350.9222)" fill="#FFC000" font-family="'Alwyn'" font-size="45">DESIGN</text>
	</g>
	<g>
		<path fill="#FFC000" d="M130,252.648c-67.822,0-123-55.178-123-123s55.178-123,123-123s123,55.178,123,123
			S197.822,252.648,130,252.648z"/>
		<path fill="#FFC000" d="M130,7.648c32.587,0,63.224,12.69,86.267,35.733S252,97.061,252,129.648s-12.69,63.224-35.733,86.267
			s-53.68,35.733-86.267,35.733s-63.224-12.69-86.267-35.733S8,162.236,8,129.648s12.69-63.224,35.733-86.267
			S97.413,7.648,130,7.648 M130,5.648c-68.483,0-124,55.517-124,124s55.517,124,124,124s124-55.517,124-124S198.483,5.648,130,5.648
			L130,5.648z"/>
	</g>
	<g>
		<g id="ICON_DESIGN_3_">
			<g>
				<g>
					<g>
						
							<path fill="none" stroke="#FFFFFF" stroke-width="4.2" stroke-linecap="round" stroke-linejoin="round" stroke-miterlimit="10" d="
							M121.997,127.429l19.132,58.532c0.676,2.068,2.978,3.429,5.115,3.025l24.509,6.857c2.127,0.458,5.129-0.421,6.671-1.955
							l9.425-9.371c1.543-1.534,2.555-4.551,2.25-6.705l-5.308-26.481c0.559-2.102-0.677-4.37-2.747-5.039l-58.878-19.03"/>
					</g>
					<g>
						
							<line fill="none" stroke="#FFFFFF" stroke-width="4.2" stroke-linecap="round" stroke-linejoin="round" stroke-miterlimit="10" x1="156.904" y1="161.968" x2="122.084" y2="127.344"/>
					</g>
					<g>
						<path fill="none" stroke="#FFFFFF" stroke-width="4.2" stroke-miterlimit="10" d="M160.583,158.307
							c-2.031-2.022-5.328-2.022-7.364,0.002c-2.031,2.02-2.031,5.3,0,7.321c2.035,2.026,5.332,2.026,7.364,0.004
							C162.619,163.61,162.619,160.33,160.583,158.307z"/>
					</g>
					<g>
						
							<line fill="none" stroke="#FFFFFF" stroke-width="4.2" stroke-linecap="round" stroke-linejoin="round" stroke-miterlimit="10" x1="193.998" y1="186.478" x2="179.399" y2="200.995"/>
					</g>
				</g>
				<g>
					
						<path fill="none" stroke="#FFFFFF" stroke-width="4.2" stroke-linecap="round" stroke-linejoin="round" stroke-miterlimit="10" d="
						M69.404,177.162c0-98.028,107.671-4.433,107.671-112.11"/>
					
						<rect x="63.322" y="171.113" fill="none" stroke="#FFFFFF" stroke-width="4.2" stroke-linecap="round" stroke-linejoin="round" stroke-miterlimit="10" width="12.166" height="12.095"/>
					
						<rect x="170.836" y="59.005" fill="none" stroke="#FFFFFF" stroke-width="4.2" stroke-linecap="round" stroke-linejoin="round" stroke-miterlimit="10" width="12.166" height="12.095"/>
				</g>
				
					<line fill="none" stroke="#FFFFFF" stroke-width="4.2" stroke-linecap="round" stroke-linejoin="round" stroke-miterlimit="10" x1="67.026" y1="125.052" x2="196.678" y2="125.052"/>
			</g>
		</g>
	</g>
</g>
</svg>
