<?xml version="1.0" encoding="utf-8"?>
<!-- Generator: Adobe Illustrator 17.1.0, SVG Export Plug-In . SVG Version: 6.00 Build 0)  -->
<!DOCTYPE svg PUBLIC "-//W3C//DTD SVG 1.1//EN" "http://www.w3.org/Graphics/SVG/1.1/DTD/svg11.dtd" [
	<!ENTITY ns_flows "http://ns.adobe.com/Flows/1.0/">
	<!ENTITY ns_extend "http://ns.adobe.com/Extensibility/1.0/">
	<!ENTITY ns_ai "http://ns.adobe.com/AdobeIllustrator/10.0/">
	<!ENTITY ns_graphs "http://ns.adobe.com/Graphs/1.0/">
	<!ENTITY ns_vars "http://ns.adobe.com/Variables/1.0/">
	<!ENTITY ns_imrep "http://ns.adobe.com/ImageReplacement/1.0/">
	<!ENTITY ns_sfw "http://ns.adobe.com/SaveForWeb/1.0/">
	<!ENTITY ns_custom "http://ns.adobe.com/GenericCustomNamespace/1.0/">
	<!ENTITY ns_adobe_xpath "http://ns.adobe.com/XPath/1.0/">
]>
<svg version="1.1" id="Layer_1" xmlns:x="&ns_extend;" xmlns:i="&ns_ai;" xmlns:graph="&ns_graphs;"
	 xmlns="http://www.w3.org/2000/svg" xmlns:xlink="http://www.w3.org/1999/xlink" xmlns:a="http://ns.adobe.com/AdobeSVGViewerExtensions/3.0/"
	 x="0px" y="0px" viewBox="0 0 260 360" enable-background="new 0 0 260 360" xml:space="preserve">
<metadata>
	<sfw  xmlns="&ns_sfw;">
		<slices></slices>
		<sliceSourceBounds  width="248" height="354.139" bottomLeftOrigin="true" x="6" y="-359.787"></sliceSourceBounds>
	</sfw>
</metadata>
<g>
	<text transform="matrix(1 0 0 1 15.567 350.9222)" fill="#FFC000" font-family="'Alwyn'" font-size="45">EMPATHIZE</text>
</g>
<g>
	<path fill="#FFC000" d="M130,252.648c-67.822,0-123-55.178-123-123s55.178-123,123-123s123,55.178,123,123
		S197.822,252.648,130,252.648z"/>
	<path fill="#FFC000" d="M130,7.648c32.587,0,63.224,12.69,86.267,35.733S252,97.061,252,129.648s-12.69,63.224-35.733,86.267
		s-53.68,35.733-86.267,35.733s-63.224-12.69-86.267-35.733S8,162.236,8,129.648s12.69-63.224,35.733-86.267S97.413,7.648,130,7.648
		 M130,5.648c-68.483,0-124,55.517-124,124s55.517,124,124,124s124-55.517,124-124S198.483,5.648,130,5.648L130,5.648z"/>
</g>
<g id="icon">
	<g>
		<path fill="none" stroke="#FFFFFF" stroke-width="4.2" stroke-linejoin="round" stroke-miterlimit="10" d="M130,176.934
			l-1.284-0.699c-2.201-1.197-53.915-29.656-53.915-59.102c0-18.784,13.827-34.066,30.821-34.066
			c9.589,0,18.588,4.972,24.379,13.233c5.791-8.261,14.79-13.233,24.379-13.233c16.995,0,30.821,15.282,30.821,34.066
			c0,29.446-51.714,57.906-53.915,59.102L130,176.934z"/>
	</g>
	<path fill="none" stroke="#FFFFFF" stroke-width="4.2" stroke-linejoin="round" stroke-miterlimit="10" d="M123.371,136.94
		c1.849,1.885,4.046,2.805,6.673,2.849c2.625-0.044,4.864-0.964,6.714-2.849c1.851-1.883,2.755-4.162,2.799-6.837
		c-0.044-2.673-0.948-4.952-2.799-6.837c-1.85-1.885-4.089-2.805-6.714-2.805c-2.627,0-4.823,0.92-6.673,2.805
		c-1.851,1.885-2.755,4.164-2.755,6.837C120.616,132.777,121.52,135.057,123.371,136.94L123.371,136.94z"/>
	<path fill="none" stroke="#FFFFFF" stroke-width="4.2" stroke-linejoin="round" stroke-miterlimit="10" d="M157.981,130.059
		c-17.692-22.176-36.332-22.263-55.962-0.219C121.649,152.148,140.289,152.235,157.981,130.059L157.981,130.059z"/>
</g>
</svg>
