<?xml version="1.0" encoding="utf-8"?>
<!-- Generator: Adobe Illustrator 17.1.0, SVG Export Plug-In . SVG Version: 6.00 Build 0)  -->
<!DOCTYPE svg PUBLIC "-//W3C//DTD SVG 1.1//EN" "http://www.w3.org/Graphics/SVG/1.1/DTD/svg11.dtd" [
	<!ENTITY ns_flows "http://ns.adobe.com/Flows/1.0/">
	<!ENTITY ns_extend "http://ns.adobe.com/Extensibility/1.0/">
	<!ENTITY ns_ai "http://ns.adobe.com/AdobeIllustrator/10.0/">
	<!ENTITY ns_graphs "http://ns.adobe.com/Graphs/1.0/">
	<!ENTITY ns_vars "http://ns.adobe.com/Variables/1.0/">
	<!ENTITY ns_imrep "http://ns.adobe.com/ImageReplacement/1.0/">
	<!ENTITY ns_sfw "http://ns.adobe.com/SaveForWeb/1.0/">
	<!ENTITY ns_custom "http://ns.adobe.com/GenericCustomNamespace/1.0/">
	<!ENTITY ns_adobe_xpath "http://ns.adobe.com/XPath/1.0/">
]>
<svg version="1.1" id="Layer_1" xmlns:x="&ns_extend;" xmlns:i="&ns_ai;" xmlns:graph="&ns_graphs;"
	 xmlns="http://www.w3.org/2000/svg" xmlns:xlink="http://www.w3.org/1999/xlink" xmlns:a="http://ns.adobe.com/AdobeSVGViewerExtensions/3.0/"
	 x="0px" y="0px" viewBox="0 0 32 32" enable-background="new 0 0 32 32" xml:space="preserve">
<metadata>
	<sfw  xmlns="&ns_sfw;">
		<slices></slices>
		<sliceSourceBounds  width="31" height="31" bottomLeftOrigin="true" x="0.5" y="-31.5"></sliceSourceBounds>
	</sfw>
</metadata>
<g id="Layer_2">
	<circle fill="#FFFFFF" cx="16" cy="16" r="15.5"/>
</g>
<g id="Layer_2_copy">
	<circle fill="#FDC010" cx="16" cy="16" r="15.5"/>
	<g id="google-plus1_1_">
		<g>
			<polygon fill="#FFFFFF" points="26.75,17.421 24.388,17.421 24.388,19.785 22.486,19.785 22.486,17.421 20.123,17.421 
				20.123,15.518 22.486,15.518 22.486,13.156 24.388,13.156 24.388,15.518 26.75,15.518 			"/>
			<path fill="#FFFFFF" d="M17.922,18.381c-0.55-0.388-1.597-1.333-1.597-1.888c0-0.653,0.186-0.973,1.165-1.737
				c1.003-0.785,1.715-1.888,1.715-3.17c0-1.526-0.681-3.015-1.958-3.506h1.924l1.358-0.981h-6.071
				c-2.721,0-5.282,2.062-5.282,4.449c0,2.441,1.855,4.41,4.623,4.41c0.192,0,0.38-0.004,0.562-0.016
				c-0.18,0.342-0.309,0.733-0.309,1.133c0,0.679,0.366,1.229,0.827,1.677c-0.349,0-0.686,0.01-1.052,0.01
				c-3.371,0-5.966,2.147-5.966,4.373c0,2.193,2.844,3.563,6.214,3.563c3.843,0,5.966-2.18,5.968-4.373
				C20.045,20.568,19.527,19.514,17.922,18.381z M14.677,15.34c-1.563-0.048-3.05-1.749-3.32-3.802
				C11.087,9.482,12.137,7.91,13.7,7.958c1.563,0.048,3.05,1.694,3.32,3.748C17.289,13.759,16.24,15.386,14.677,15.34z
				 M14.066,25.727c-2.33,0-4.013-1.474-4.013-3.244c0-1.737,2.087-3.183,4.417-3.157c0.543,0.005,1.051,0.093,1.51,0.241
				c1.263,0.88,2.171,1.377,2.427,2.379c0.049,0.203,0.075,0.412,0.075,0.626C18.482,24.344,17.342,25.727,14.066,25.727z"/>
		</g>
	</g>
</g>
</svg>
