<?xml version="1.0" encoding="utf-8"?>
<!-- Generator: Adobe Illustrator 17.1.0, SVG Export Plug-In . SVG Version: 6.00 Build 0)  -->
<!DOCTYPE svg PUBLIC "-//W3C//DTD SVG 1.1//EN" "http://www.w3.org/Graphics/SVG/1.1/DTD/svg11.dtd" [
	<!ENTITY ns_flows "http://ns.adobe.com/Flows/1.0/">
	<!ENTITY ns_extend "http://ns.adobe.com/Extensibility/1.0/">
	<!ENTITY ns_ai "http://ns.adobe.com/AdobeIllustrator/10.0/">
	<!ENTITY ns_graphs "http://ns.adobe.com/Graphs/1.0/">
	<!ENTITY ns_vars "http://ns.adobe.com/Variables/1.0/">
	<!ENTITY ns_imrep "http://ns.adobe.com/ImageReplacement/1.0/">
	<!ENTITY ns_sfw "http://ns.adobe.com/SaveForWeb/1.0/">
	<!ENTITY ns_custom "http://ns.adobe.com/GenericCustomNamespace/1.0/">
	<!ENTITY ns_adobe_xpath "http://ns.adobe.com/XPath/1.0/">
]>
<svg version="1.1" xmlns:x="&ns_extend;" xmlns:i="&ns_ai;" xmlns:graph="&ns_graphs;"
	 xmlns="http://www.w3.org/2000/svg" xmlns:xlink="http://www.w3.org/1999/xlink" xmlns:a="http://ns.adobe.com/AdobeSVGViewerExtensions/3.0/"
	 x="0px" y="0px" viewBox="0 400 32 32" enable-background="new 0 400 32 32" xml:space="preserve">
<metadata>
	<sfw  xmlns="&ns_sfw;">
		<slices></slices>
		<sliceSourceBounds  height="27" width="31.6" bottomLeftOrigin="true" x="-0.6" y="-30.3"></sliceSourceBounds>
		<optimizationSettings>
			<targetSettings  fileFormat="PNG24Format" targetSettingsID="0">
				<PNG24Format  transparency="true" filtered="false" interlaced="false" matteColor="#FFFFFF" noMatteColor="false">
					</PNG24Format>
			</targetSettings>
		</optimizationSettings>
	</sfw>
</metadata>
<g id="MyCVlogo">
	<polygon display="none" fill="#CACACC" points="6.1,411.4 9.1,406.2 12.2,411.4 	"/>
	<polygon display="none" opacity="0.79" fill="#F7F8DB" enable-background="new    " points="2.3,409.3 4.8,405 7.3,409.3 	"/>
	<polygon display="none" opacity="0.86" fill="#E5E5E5" enable-background="new    " points="0.2,411.4 2.6,407.3 5,411.4 	"/>
	<polygon display="none" opacity="0.83" fill="#79797D" enable-background="new    " points="0.8,411.4 3.4,406.9 6.1,411.4 	"/>
	<polygon display="none" opacity="0.9" fill="#DDE250" enable-background="new    " points="8.7,408.5 10.8,404.8 13,408.5 	"/>
	<polygon display="none" opacity="0.96" fill="#F1F1F1" enable-background="new    " points="9.2,411.4 11.6,407.3 14,411.4 	"/>
	<polygon display="none" opacity="0.58" fill="#666666" enable-background="new    " points="7.9,411.4 10.7,406.7 13.5,411.4 	"/>
	
		<line display="none" fill="none" stroke="#A3A3A3" stroke-width="9.013496e-03" stroke-miterlimit="10" x1="0.2" y1="411.4" x2="2.6" y2="407.3"/>
	<path display="none" fill="none" stroke="#A3A3A3" stroke-width="9.013496e-03" stroke-miterlimit="10" d="M9.1,406.1"/>
	<path display="none" fill="none" stroke="#A3A3A3" stroke-width="9.013496e-03" stroke-miterlimit="10" d="M6,411.4"/>
	
		<line display="none" fill="none" stroke="#A3A3A3" stroke-width="9.013496e-03" stroke-miterlimit="10" x1="11.8" y1="408.4" x2="12.7" y2="406.8"/>
	
		<line display="none" fill="none" stroke="#A3A3A3" stroke-width="9.013496e-03" stroke-miterlimit="10" x1="1.1" y1="411.4" x2="4.2" y2="406.1"/>
	
		<line display="none" fill="none" stroke="#A3A3A3" stroke-width="9.013496e-03" stroke-miterlimit="10" x1="9" y1="409.5" x2="11.8" y2="404.7"/>
	
		<line display="none" fill="none" stroke="#A3A3A3" stroke-width="9.013496e-03" stroke-miterlimit="10" x1="7.6" y1="408.7" x2="9.2" y2="406.1"/>
	
		<line display="none" fill="none" stroke="#A3A3A3" stroke-width="9.013496e-03" stroke-miterlimit="10" x1="3.1" y1="406.3" x2="6" y2="411.3"/>
	
		<line display="none" fill="none" stroke="#A3A3A3" stroke-width="9.013496e-03" stroke-miterlimit="10" x1="6.4" y1="407.5" x2="7.9" y2="410.1"/>
	
		<line display="none" fill="none" stroke="#A3A3A3" stroke-width="9.013496e-03" stroke-miterlimit="10" x1="5.4" y1="404.9" x2="7.1" y2="407.8"/>
	
		<line display="none" fill="none" stroke="#A3A3A3" stroke-width="9.013496e-03" stroke-miterlimit="10" x1="11.8" y1="407.6" x2="14" y2="411.3"/>
	
		<line display="none" fill="none" stroke="#A3A3A3" stroke-width="9.013496e-03" stroke-miterlimit="10" x1="7.9" y1="404.6" x2="11.1" y2="410.2"/>
	
		<line display="none" fill="none" stroke="#A3A3A3" stroke-width="9.013496e-03" stroke-miterlimit="10" x1="-0.6" y1="411.4" x2="14.8" y2="411.4"/>
	<polygon opacity="0.78" fill="#DAE030" enable-background="new    " points="5.3,428.7 18.2,407 31,428.7 	"/>
	<polygon opacity="0.86" fill="#56565C" enable-background="new    " points="2.7,421.9 10.5,408.6 18.4,421.9 	"/>
	<polygon opacity="0.68" fill="#EDEDED" enable-background="new    " points="29.5,403.3 21.7,416.5 13.9,403.3 	"/>
	<line display="none" fill="none" x1="15.7" y1="410" x2="7.4" y2="410"/>
	<line display="none" fill="none" x1="16" y1="411" x2="10.1" y2="411"/>
	<line fill="none" x1="24.9" y1="403.3" x2="14.3" y2="403.3"/>
	<line fill="none" x1="25.9" y1="419" x2="17.1" y2="419"/>
	<g display="none">
		<path display="inline" fill="#A6A8AB" d="M12.8,410.5v-0.2c0-0.2,0.1-0.2,0.2-0.2c0.1,0,0.1,0,0.2,0.1v-0.3h0.1v1h-0.1l0-0.1
			c0,0.1-0.1,0.1-0.2,0.1C12.8,410.8,12.8,410.7,12.8,410.5 M13,410.7c0.1,0,0.2-0.1,0.2-0.2v-0.2c0-0.1,0-0.2-0.2-0.2
			c-0.1,0-0.2,0.1-0.2,0.2v0.2C12.8,410.7,12.9,410.7,13,410.7"/>
		<path display="inline" fill="#A6A8AB" d="M13.9,410.6c0,0.1-0.1,0.2-0.2,0.2c-0.2,0-0.2-0.1-0.2-0.3v-0.2c0-0.2,0.1-0.3,0.2-0.3
			c0.2,0,0.2,0.1,0.2,0.3v0.1h-0.4v0.1c0,0.2,0,0.2,0.2,0.2C13.8,410.7,13.8,410.6,13.9,410.6L13.9,410.6z M13.8,410.3L13.8,410.3
			c0-0.2,0-0.3-0.2-0.3c-0.1,0-0.2,0.1-0.2,0.2v0.1H13.8L13.8,410.3z"/>
		<path display="inline" fill="#A6A8AB" d="M14.1,410.5c0,0.1,0,0.1,0.2,0.1c0.1,0,0.2-0.1,0.2-0.2c0-0.1-0.1-0.1-0.2-0.2
			c-0.1,0-0.2,0-0.2-0.2c0-0.1,0.1-0.2,0.2-0.2c0.2,0,0.2,0.1,0.2,0.2h-0.1c0-0.1,0-0.1-0.2-0.1c-0.1,0-0.2,0.1-0.2,0.1
			c0,0.1,0.1,0.1,0.2,0.1c0.1,0,0.2,0,0.2,0.2c0,0.1-0.1,0.2-0.2,0.2C14.1,410.8,14,410.7,14.1,410.5L14.1,410.5L14.1,410.5z"/>
		<path display="inline" fill="#A6A8AB" d="M14.6,410.7C14.6,410.6,14.7,410.6,14.6,410.7C14.7,410.8,14.6,410.8,14.6,410.7
			 M14.6,409.9L14.6,409.9l0.1,0.7h-0.1V409.9z"/>
		<path display="inline" fill="#A6A8AB" d="M14.9,410.9c0,0.1,0,0.1,0.2,0.1c0.1,0,0.2-0.1,0.2-0.2v-0.1c0,0.1-0.1,0.1-0.2,0.1
			c-0.2,0-0.2-0.1-0.2-0.3v-0.2c0-0.2,0.1-0.3,0.2-0.3c0.1,0,0.1,0,0.2,0.1V410h0.1v0.7c0,0.2-0.1,0.3-0.2,0.3
			C14.9,411,14.9,411,14.9,410.9L14.9,410.9L14.9,410.9z M15.3,410.3c0-0.1,0-0.2-0.2-0.2c-0.1,0-0.2,0.1-0.2,0.2v0.2
			c0,0.2,0.1,0.2,0.2,0.2c0.1,0,0.2-0.1,0.2-0.2L15.3,410.3L15.3,410.3z"/>
		<path display="inline" fill="#A6A8AB" d="M15.6,410L15.6,410c0,0,0.1,0,0.2,0c0.2,0,0.2,0.1,0.2,0.3v0.5h-0.1v-0.5
			c0-0.2,0-0.2-0.2-0.2c-0.1,0-0.2,0.1-0.2,0.2v0.5h-0.1L15.6,410L15.6,410z"/>
	</g>
	<g id="LOGO_6_"  a:adobe-blending-mode="darken">
		<g  a:adobe-blending-mode="normal">
			<g>
				<path fill="#4C4C4C" d="M26.2,427.9c-0.3,0-0.7-0.1-1-0.2c-0.6-0.3-1-0.7-1.3-1.3c-0.2-0.6-0.2-1.2,0-1.8c0.3-0.6,0.7-1,1.3-1.2
					c1.2-0.5,2.6,0.1,3.1,1.3c0.1,0.4-0.2,0.7-1,1.2c-0.1,0-0.1,0.1-0.2,0.1l-0.5-0.6l0.2-0.1c0.4-0.3,0.6-0.4,0.6-0.5
					c-0.4-0.7-1.2-1-2-0.7c-0.4,0.1-0.7,0.4-0.9,0.8s-0.2,0.8,0,1.2c0.2,0.4,0.5,0.7,0.8,0.9c0.4,0.2,0.8,0.2,1.2,0
					c0.4-0.2,0.8-0.5,0.9-0.9l0.7,0.3c-0.2,0.6-0.7,1.1-1.4,1.3C26.8,427.9,26.5,427.9,26.2,427.9L26.2,427.9z"/>
				<path fill="none" d="M26.2,427.9c-0.3,0-0.7-0.1-1-0.2c-0.6-0.3-1-0.7-1.3-1.3c-0.2-0.6-0.2-1.2,0-1.8c0.3-0.6,0.7-1,1.3-1.2
					c1.2-0.5,2.6,0.1,3.1,1.3c0.1,0.4-0.2,0.7-1,1.2c-0.1,0-0.1,0.1-0.2,0.1l-0.5-0.6l0.2-0.1c0.4-0.3,0.6-0.4,0.6-0.5
					c-0.4-0.7-1.2-1-2-0.7c-0.4,0.1-0.7,0.4-0.9,0.8s-0.2,0.8,0,1.2c0.2,0.4,0.5,0.7,0.8,0.9c0.4,0.2,0.8,0.2,1.2,0
					c0.4-0.2,0.8-0.5,0.9-0.9l0.7,0.3c-0.2,0.6-0.7,1.1-1.4,1.3C26.8,427.9,26.5,427.9,26.2,427.9L26.2,427.9z"/>
			</g>
			<g>
				<path fill="#4C4C4C" d="M22.2,428c-0.5,0-1.1-0.2-1.5-0.5c-0.5-0.4-0.8-1-0.8-1.6c-0.1-0.6,0.1-1.2,0.5-1.7
					c0.4-0.5,1.1-0.8,1.8-0.8l0,0.8c-0.5,0-0.9,0.2-1.2,0.6c-0.6,0.7-0.5,1.6,0.2,2.2c0.7,0.6,1.7,0.5,2.3-0.2
					c0.3-0.3,0.4-0.8,0.4-1.2l0.8-0.1c0.1,0.7-0.1,1.3-0.5,1.9C23.6,427.7,22.9,428,22.2,428L22.2,428z"/>
				<path fill="none" d="M22.2,428c-0.5,0-1.1-0.2-1.5-0.5c-0.5-0.4-0.8-1-0.8-1.6c-0.1-0.6,0.1-1.2,0.5-1.7
					c0.4-0.5,1.1-0.8,1.8-0.8l0,0.8c-0.5,0-0.9,0.2-1.2,0.6c-0.6,0.7-0.5,1.6,0.2,2.2c0.7,0.6,1.7,0.5,2.3-0.2
					c0.3-0.3,0.4-0.8,0.4-1.2l0.8-0.1c0.1,0.7-0.1,1.3-0.5,1.9C23.6,427.7,22.9,428,22.2,428L22.2,428z"/>
			</g>
			<g>
				<path fill="#4C4C4C" d="M17.9,428.5c0,0.1,0,0.1,0,0.2c0,0.4,0.4,0.8,0.8,0.8c0.5,0,0.8-0.4,0.8-0.8c0-0.4-0.4-0.8-0.8-0.8
					c0,0-0.4,0-0.5,0c-1.3,0-2.4-1-2.4-2.3c0-1.3,1.1-2.3,2.4-2.3c1.3,0,2.4,1,2.4,2.3c0,0.8-0.4,1.4-1,1.9c0.4,0.3,0.7,0.7,0.7,1.3
					c0,0.9-0.7,1.6-1.6,1.6l0,0c-0.9,0-1.6-0.7-1.6-1.6c0-0.1,0-0.3,0.1-0.4L17.9,428.5z M18.2,424c-0.9,0-1.6,0.7-1.6,1.6
					c0,0.9,0.7,1.6,1.6,1.6c0.9,0,1.6-0.7,1.6-1.6C19.8,424.7,19.1,424,18.2,424L18.2,424z"/>
				<path fill="none" d="M17.9,428.5c0,0.1,0,0.1,0,0.2c0,0.4,0.4,0.8,0.8,0.8c0.5,0,0.8-0.4,0.8-0.8c0-0.4-0.4-0.8-0.8-0.8
					c0,0-0.4,0-0.5,0c-1.3,0-2.4-1-2.4-2.3c0-1.3,1.1-2.3,2.4-2.3c1.3,0,2.4,1,2.4,2.3c0,0.8-0.4,1.4-1,1.9c0.4,0.3,0.7,0.7,0.7,1.3
					c0,0.9-0.7,1.6-1.6,1.6l0,0c-0.9,0-1.6-0.7-1.6-1.6c0-0.1,0-0.3,0.1-0.4L17.9,428.5z M18.2,424c-0.9,0-1.6,0.7-1.6,1.6
					c0,0.9,0.7,1.6,1.6,1.6c0.9,0,1.6-0.7,1.6-1.6C19.8,424.7,19.1,424,18.2,424L18.2,424z"/>
			</g>
			<g>
				<path fill="#4C4C4C" d="M14.2,427.9c-1.3,0-2.4-1-2.4-2.3h0.8c0,0.9,0.7,1.6,1.6,1.6c0.9,0,1.6-0.7,1.6-1.6
					c0-0.9-0.7-1.6-1.6-1.6c-0.4,0-0.8,0.1-1.1,0.4l-0.5-0.6c0.4-0.4,1-0.6,1.6-0.6c1.3,0,2.4,1,2.4,2.3
					C16.6,426.9,15.5,427.9,14.2,427.9L14.2,427.9z"/>
				<path fill="none" d="M14.2,427.9c-1.3,0-2.4-1-2.4-2.3h0.8c0,0.9,0.7,1.6,1.6,1.6c0.9,0,1.6-0.7,1.6-1.6c0-0.9-0.7-1.6-1.6-1.6
					c-0.4,0-0.8,0.1-1.1,0.4l-0.5-0.6c0.4-0.4,1-0.6,1.6-0.6c1.3,0,2.4,1,2.4,2.3C16.6,426.9,15.5,427.9,14.2,427.9L14.2,427.9z"/>
			</g>
			<g>
				<path opacity="0.86" fill="#56565C" enable-background="new    " d="M7.4,427.9c-1.3,0-2.4-1-2.4-2.3h0v-1.9h0.8v1.8
					c0,0.9,0.7,1.6,1.6,1.6c0.4,0,0.7-0.1,1-0.3l0.5,0.6C8.4,427.8,7.9,427.9,7.4,427.9L7.4,427.9z"/>
				<path fill="none" d="M7.4,427.9c-1.3,0-2.4-1-2.4-2.3h0v-1.9h0.8v1.8c0,0.9,0.7,1.6,1.6,1.6c0.4,0,0.7-0.1,1-0.3l0.5,0.6
					C8.4,427.8,7.9,427.9,7.4,427.9L7.4,427.9z"/>
			</g>
			<g>
				<path fill="#4C4C4C" d="M10.2,427.9c-1.3,0-2.4-1-2.4-2.3c0-0.7,0.3-1.3,0.8-1.8l0.5,0.6c-0.4,0.3-0.6,0.7-0.6,1.2
					c0,0.9,0.7,1.6,1.6,1.6c0.9,0,1.6-0.7,1.6-1.6h0.8C12.6,426.9,11.5,427.9,10.2,427.9L10.2,427.9z M12.6,425.6h-0.8
					c0-0.7,0.3-1.3,0.8-1.8l0.5,0.6C12.8,424.7,12.6,425.1,12.6,425.6L12.6,425.6z"/>
				<path fill="none" d="M10.2,427.9c-1.3,0-2.4-1-2.4-2.3c0-0.7,0.3-1.3,0.8-1.8l0.5,0.6c-0.4,0.3-0.6,0.7-0.6,1.2
					c0,0.9,0.7,1.6,1.6,1.6c0.9,0,1.6-0.7,1.6-1.6h0.8C12.6,426.9,11.5,427.9,10.2,427.9L10.2,427.9z M12.6,425.6h-0.8
					c0-0.7,0.3-1.3,0.8-1.8l0.5,0.6C12.8,424.7,12.6,425.1,12.6,425.6L12.6,425.6z"/>
			</g>
			<g>
				<path opacity="0.86" fill="#56565C" enable-background="new    " d="M5,427.8l-0.5-0.6c0.3-0.3,0.5-0.7,0.5-1.2
					c0-0.9-0.7-1.6-1.6-1.6c-0.9,0-1.6,0.7-1.6,1.6c0,0.4,0.2,0.9,0.5,1.2l-0.5,0.6c-0.5-0.4-0.8-1.1-0.8-1.7v-2.3h0.8v0.6
					c0.4-0.4,1-0.6,1.6-0.6c1.3,0,2.4,1,2.4,2.3C5.8,426.7,5.5,427.4,5,427.8L5,427.8z"/>
				<path fill="none" d="M5,427.8l-0.5-0.6c0.3-0.3,0.5-0.7,0.5-1.2c0-0.9-0.7-1.6-1.6-1.6c-0.9,0-1.6,0.7-1.6,1.6
					c0,0.4,0.2,0.9,0.5,1.2l-0.5,0.6c-0.5-0.4-0.8-1.1-0.8-1.7v-2.3h0.8v0.6c0.4-0.4,1-0.6,1.6-0.6c1.3,0,2.4,1,2.4,2.3
					C5.8,426.7,5.5,427.4,5,427.8L5,427.8z"/>
			</g>
		</g>
	</g>
	<path fill="#FFFFFF" stroke="#FFFFFF" stroke-width="4.528426e-02" d="M12.6,423.8c-0.5,0.4-0.8,1.1-0.8,1.8c0,0.9-0.7,1.6-1.6,1.6
		c-0.9,0-1.6-0.7-1.6-1.6c0-0.5,0.2-0.9,0.6-1.2l-0.5-0.6c-0.5,0.4-0.8,1.1-0.8,1.8c0,1.3,1.1,2.3,2.4,2.3c0.8,0,1.6-0.4,2-1.1
		c0.4,0.6,1.2,1.1,2,1.1s1.6-0.4,2-1.1c0.4,0.6,1.2,1.1,2,1.1c0.1,0,0.4,0,0.5,0c0.5,0,0.8,0.4,0.8,0.8c0,0.4-0.4,0.8-0.8,0.8
		c-0.5,0-0.8-0.4-0.8-0.8c0-0.1,0-0.2,0-0.2l-0.8-0.2c0,0.1-0.1,0.3-0.1,0.4c0,0.9,0.7,1.6,1.6,1.6c0.9,0,1.6-0.7,1.6-1.6
		c0-0.5-0.3-1-0.7-1.3c0.2-0.2,0.4-0.4,0.6-0.6c0.1,0.2,0.3,0.4,0.5,0.5c0.4,0.4,1,0.5,1.5,0.5c0.7,0,1.4-0.3,1.8-0.8
		c0.1-0.1,0.1-0.2,0.2-0.2c0.2,0.4,0.6,0.7,1,0.8c0.3,0.1,0.6,0.2,1,0.2c0.3,0,0.6-0.1,0.9-0.2c0.6-0.2,1.1-0.7,1.4-1.3l-0.7-0.3
		c-0.2,0.4-0.5,0.7-0.9,0.9c-0.4,0.1-0.8,0.1-1.2,0c-0.4-0.2-0.7-0.5-0.8-0.9c-0.1-0.2-0.1-0.4-0.1-0.6c0,0,0,0,0,0
		c0-0.2,0.1-0.4,0.1-0.6c0.2-0.4,0.5-0.7,0.9-0.8c0.8-0.3,1.6,0,2,0.7c-0.1,0.1-0.3,0.2-0.6,0.5l-0.2,0.1l0.5,0.6
		c0.1,0,0.1-0.1,0.2-0.1c0.8-0.5,1.1-0.9,1-1.2c-0.5-1.2-1.9-1.8-3.1-1.3c-0.6,0.2-1.1,0.7-1.3,1.2c-0.1,0.2-0.2,0.5-0.2,0.7l0,0
		c0.1,0.4-0.1,0.9-0.4,1.2c-0.6,0.7-1.6,0.7-2.3,0.2c-0.7-0.6-0.8-1.5-0.2-2.2c0.3-0.3,0.7-0.5,1.2-0.6l0-0.8
		c-0.7,0-1.3,0.3-1.8,0.8c-0.1,0.1-0.1,0.1-0.2,0.2c-0.4-0.6-1.2-1.1-2-1.1c-0.8,0-1.6,0.4-2,1.1c-0.4-0.6-1.2-1.1-2-1.1
		C13.6,423.3,13.1,423.5,12.6,423.8 M14.2,427.2c-0.9,0-1.6-0.7-1.6-1.6c0-0.5,0.2-0.9,0.6-1.2l0,0c0.3-0.2,0.7-0.4,1.1-0.4
		c0.9,0,1.6,0.7,1.6,1.6C15.8,426.5,15.1,427.2,14.2,427.2z M18.2,427.2c-0.9,0-1.6-0.7-1.6-1.6c0-0.9,0.7-1.6,1.6-1.6
		c0.9,0,1.6,0.7,1.6,1.6C19.8,426.5,19.1,427.2,18.2,427.2z"/>
</g>
<g id="Layer_2" display="none">
	<g id="LOGO_1_" display="inline">
		<path fill="#757CA0" d="M14.4,409.7c-0.2,0-0.4,0-0.5-0.1c-0.3-0.1-0.6-0.4-0.7-0.7c-0.1-0.3-0.1-0.7,0-1c0.1-0.3,0.4-0.6,0.7-0.7
			c0.7-0.3,1.5,0.1,1.7,0.8c0.1,0.2-0.1,0.4-0.5,0.7c0,0-0.1,0-0.1,0.1l-0.3-0.4l0.1-0.1c0.2-0.1,0.3-0.2,0.4-0.3
			c-0.2-0.4-0.7-0.6-1.1-0.4c-0.2,0.1-0.4,0.3-0.5,0.5c-0.1,0.2-0.1,0.5,0,0.7c0.1,0.2,0.3,0.4,0.5,0.5c0.2,0.1,0.5,0.1,0.7,0
			c0.2-0.1,0.4-0.3,0.5-0.5l0.4,0.2c-0.1,0.3-0.4,0.6-0.8,0.8C14.7,409.6,14.5,409.7,14.4,409.7L14.4,409.7z"/>
		<path fill="#80517C" d="M12.2,409.7c-0.3,0-0.6-0.1-0.9-0.3c-0.3-0.2-0.4-0.5-0.5-0.9c0-0.4,0.1-0.7,0.3-1c0.2-0.3,0.6-0.5,1-0.5
			l0,0.4c-0.3,0-0.5,0.1-0.7,0.3c-0.3,0.4-0.3,0.9,0.1,1.3c0.4,0.3,0.9,0.3,1.3-0.1c0.2-0.2,0.2-0.5,0.2-0.7l0.4-0.1
			c0.1,0.4,0,0.8-0.3,1.1C12.9,409.5,12.5,409.7,12.2,409.7L12.2,409.7z"/>
		<path fill="#6B6D71" d="M9.7,410c0,0,0,0.1,0,0.1c0,0.3,0.2,0.5,0.5,0.5c0.3,0,0.5-0.2,0.5-0.5c0-0.3-0.2-0.5-0.5-0.5
			c0,0-0.2,0-0.3,0c-0.7,0-1.3-0.6-1.3-1.3c0-0.7,0.6-1.3,1.3-1.3c0.7,0,1.3,0.6,1.3,1.3c0,0.4-0.2,0.8-0.5,1.1
			c0.2,0.2,0.4,0.4,0.4,0.7c0,0.5-0.4,0.9-0.9,0.9l0,0c-0.5,0-0.9-0.4-0.9-0.9c0-0.1,0-0.2,0-0.3L9.7,410z M9.9,407.4
			c-0.5,0-0.9,0.4-0.9,0.9c0,0.5,0.4,0.9,0.9,0.9c0.5,0,0.9-0.4,0.9-0.9C10.8,407.8,10.4,407.4,9.9,407.4L9.9,407.4z"/>
		<path fill="#571D58" d="M7.7,409.7c-0.7,0-1.3-0.6-1.3-1.3h0.4c0,0.5,0.4,0.9,0.9,0.9c0.5,0,0.9-0.4,0.9-0.9
			c0-0.5-0.4-0.9-0.9-0.9c-0.2,0-0.4,0.1-0.6,0.2l-0.3-0.3c0.2-0.2,0.6-0.3,0.9-0.3c0.7,0,1.3,0.6,1.3,1.3
			C9,409.1,8.4,409.7,7.7,409.7L7.7,409.7z"/>
		<path fill="#410F43" d="M3.9,409.6c-0.7,0-1.3-0.6-1.3-1.3h0v-1.1H3v1.1c0,0.5,0.4,0.9,0.9,0.9c0.2,0,0.4-0.1,0.5-0.2l0.3,0.3
			C4.5,409.6,4.2,409.6,3.9,409.6L3.9,409.6z"/>
		<path fill="#37B0DA" d="M5.5,409.7c-0.7,0-1.3-0.6-1.3-1.3c0-0.4,0.2-0.7,0.5-1l0.3,0.3c-0.2,0.2-0.3,0.4-0.3,0.7
			c0,0.5,0.4,0.9,0.9,0.9c0.5,0,0.9-0.4,0.9-0.9h0.4C6.8,409.1,6.2,409.7,5.5,409.7L5.5,409.7z M6.8,408.3H6.4c0-0.4,0.2-0.8,0.5-1
			l0.3,0.3C6.9,407.8,6.8,408.1,6.8,408.3L6.8,408.3z"/>
		<path fill="#59476E" d="M2.6,409.6l-0.3-0.3c0.2-0.2,0.3-0.4,0.3-0.7c0-0.5-0.4-0.9-0.9-0.9c-0.5,0-0.9,0.4-0.9,0.9
			c0,0.3,0.1,0.5,0.3,0.7l-0.3,0.3c-0.3-0.3-0.4-0.6-0.4-1v-1.3h0.4v0.3c0.2-0.2,0.5-0.3,0.9-0.3c0.7,0,1.3,0.6,1.3,1.3
			C3,409,2.9,409.3,2.6,409.6L2.6,409.6z"/>
	</g>
</g>
</svg>
