<?xml version="1.0" encoding="utf-8"?>
<!-- Generator: Adobe Illustrator 17.1.0, SVG Export Plug-In . SVG Version: 6.00 Build 0)  -->
<!DOCTYPE svg PUBLIC "-//W3C//DTD SVG 1.1//EN" "http://www.w3.org/Graphics/SVG/1.1/DTD/svg11.dtd" [
	<!ENTITY ns_flows "http://ns.adobe.com/Flows/1.0/">
	<!ENTITY ns_extend "http://ns.adobe.com/Extensibility/1.0/">
	<!ENTITY ns_ai "http://ns.adobe.com/AdobeIllustrator/10.0/">
	<!ENTITY ns_graphs "http://ns.adobe.com/Graphs/1.0/">
	<!ENTITY ns_vars "http://ns.adobe.com/Variables/1.0/">
	<!ENTITY ns_imrep "http://ns.adobe.com/ImageReplacement/1.0/">
	<!ENTITY ns_sfw "http://ns.adobe.com/SaveForWeb/1.0/">
	<!ENTITY ns_custom "http://ns.adobe.com/GenericCustomNamespace/1.0/">
	<!ENTITY ns_adobe_xpath "http://ns.adobe.com/XPath/1.0/">
]>
<svg version="1.1" id="MyCVlogo" xmlns:x="&ns_extend;" xmlns:i="&ns_ai;" xmlns:graph="&ns_graphs;"
	 xmlns="http://www.w3.org/2000/svg" xmlns:xlink="http://www.w3.org/1999/xlink" xmlns:a="http://ns.adobe.com/AdobeSVGViewerExtensions/3.0/"
	 x="0px" y="0px" viewBox="0 0 418 162" enable-background="new 0 0 418 162" xml:space="preserve">
<metadata>
	<sfw  xmlns="&ns_sfw;">
		<slices></slices>
		<sliceSourceBounds  width="416" height="161.256" bottomLeftOrigin="true" x="1" y="-161.628"></sliceSourceBounds>
	</sfw>
</metadata>
<polygon fill="#CACACC" points="152.322,154.839 220.24,37.152 288.158,154.839 "/>
<polygon opacity="0.79" fill="#F7F8DB" points="66.774,108.181 123.277,10.273 179.78,108.181 "/>
<polygon opacity="0.86" fill="#E5E5E5" points="19.7,154.839 73.821,61.06 127.941,154.839 "/>
<polygon opacity="0.83" fill="#79797D" points="33.946,154.839 92.436,53.49 150.925,154.839 "/>
<polygon opacity="0.9" fill="#DDE250" points="209.767,88.619 258.011,5.022 306.255,88.619 "/>
<polygon opacity="0.96" fill="#F1F1F1" points="222.235,154.839 275.761,62.09 329.287,154.839 "/>
<polygon opacity="0.58" fill="#666666" points="193.081,154.839 255.226,47.154 317.372,154.839 "/>
<line fill="none" stroke="#A3A3A3" stroke-width="0.4853" stroke-miterlimit="10" x1="19.655" y1="155.142" x2="73.669" y2="61.547"/>
<path fill="none" stroke="#A3A3A3" stroke-width="0.4853" stroke-miterlimit="10" d="M220.085,35.471"/>
<path fill="none" stroke="#A3A3A3" stroke-width="0.4853" stroke-miterlimit="10" d="M150.822,155.489"/>
<line fill="none" stroke="#A3A3A3" stroke-width="0.4853" stroke-miterlimit="10" x1="280.149" y1="86.659" x2="300.886" y2="50.498"/>
<line fill="none" stroke="#A3A3A3" stroke-width="0.4853" stroke-miterlimit="10" x1="39.868" y1="155.489" x2="109.13" y2="35.471"/>
<line fill="none" stroke="#A3A3A3" stroke-width="0.4853" stroke-miterlimit="10" x1="218.107" y1="111.754" x2="280.61" y2="3.449"/>
<line fill="none" stroke="#A3A3A3" stroke-width="0.4853" stroke-miterlimit="10" x1="186.689" y1="95.02" x2="221.056" y2="35.471"/>
<line fill="none" stroke="#A3A3A3" stroke-width="0.4853" stroke-miterlimit="10" x1="84.401" y1="39.532" x2="150.288" y2="153.699"/>
<line fill="none" stroke="#A3A3A3" stroke-width="0.4853" stroke-miterlimit="10" x1="158.947" y1="65.567" x2="193.401" y2="125.268"/>
<line fill="none" stroke="#A3A3A3" stroke-width="0.4853" stroke-miterlimit="10" x1="136.303" y1="5.994" x2="175.442" y2="73.814"/>
<line fill="none" stroke="#A3A3A3" stroke-width="0.4853" stroke-miterlimit="10" x1="280.896" y1="69.483" x2="329.498" y2="153.699"/>
<line fill="none" stroke="#A3A3A3" stroke-width="0.4853" stroke-miterlimit="10" x1="192.266" y1="0.492" x2="264.801" y2="127.486"/>
<line fill="none" stroke="#A3A3A3" stroke-width="0.4853" stroke-miterlimit="10" x1="1" y1="154.832" x2="347.775" y2="154.832"/>
<polygon opacity="0.78" fill="#DAE030" points="101.05,154.839 172.77,30.565 244.489,154.839 "/>
<polygon opacity="0.86" fill="#56565C" points="86.078,116.127 130.176,39.714 174.274,116.127 "/>
<polygon opacity="0.68" fill="#EDEDED" points="236.249,9.044 192.593,84.69 148.937,9.044 "/>
<line fill="#56565C" x1="368.477" y1="124.735" x2="180.21" y2="124.735"/>
<line fill="#56565C" x1="417" y1="161.628" x2="263.669" y2="161.628"/>
<line fill="#56565C" x1="210.617" y1="9.202" x2="151.096" y2="9.202"/>
<line fill="#56565C" x1="215.793" y1="99.493" x2="166.624" y2="99.493"/>
<path fill="#A6A8AB" d="M332.803,147.015v-6.371c0-4.649,2.323-6.573,6.232-6.573c2.054,0,3.468,0.507,4.549,1.755v-9.169h1.684
	v27.369h-1.482l-0.168-2.16c-0.944,1.383-2.458,2.261-4.883,2.261C334.588,154.128,332.803,152.172,332.803,147.015
	 M338.901,152.542c3.437-0.068,4.683-1.919,4.683-5.123v-6.504c0.033-3.739-0.912-5.29-4.549-5.29c-3.638,0-4.546,1.785-4.546,5.088
	v6.27C334.489,151.395,335.935,152.542,338.901,152.542"/>
<path fill="#A6A8AB" d="M361.707,148.667c0,3.571-1.819,5.461-5.827,5.461c-4.246,0-6.233-1.956-6.233-7.314v-5.291
	c0-5.393,1.987-7.451,6.233-7.451c4.547,0,6.063,2.259,6.063,7.451v2.931h-10.678v2.226c0,4.009,0.942,5.929,4.615,5.929
	c3.606,0,4.313-1.616,4.313-3.942H361.707z M360.46,142.903v-1.347c0-3.776-0.671-6.066-4.58-6.066
	c-3.637,0-4.615,1.821-4.615,5.966v1.447H360.46z"/>
<path fill="#A6A8AB" d="M366.693,148.532c0,2.291,1.178,3.976,4.649,3.976c3.032,0,4.548-1.484,4.548-4.012
	c0-3.571-2.831-3.639-5.593-4.01c-2.626-0.338-5.22-0.978-5.22-5.157c0-3.237,2.088-5.259,6.097-5.259
	c4.179,0,5.962,1.991,5.962,5.225h-1.65c-0.068-2.426-1.281-3.64-4.279-3.64c-3.031,0-4.346,1.417-4.346,3.64
	c0,3.403,2.358,3.437,4.885,3.775c2.863,0.405,5.895,1.01,5.895,5.391c0,3.441-1.988,5.665-6.3,5.665
	c-3.84,0-6.333-1.519-6.333-5.595H366.693z"/>
<path fill="#A6A8AB" d="M380.807,152.828c0-1.585,2.494-1.619,2.494,0C383.301,154.41,380.807,154.443,380.807,152.828
	 M381.178,130.864h1.651v17.947h-1.651V130.864z"/>
<path fill="#A6A8AB" d="M389.194,156.688c0.102,2.089,0.911,3.369,4.112,3.369c3.739,0,4.715-1.717,4.715-5.762v-2.527
	c-0.976,1.818-2.694,2.36-4.918,2.36c-4.009,0-6.031-1.788-6.031-6.776v-6.131c0-5.327,2.022-6.945,6.335-7.047
	c2.321,0,3.874,0.743,4.749,2.461v-2.191h1.518v19.852c0,5.394-2.123,7.314-6.369,7.314c-3.707,0-5.526-1.484-5.693-4.92H389.194z
	 M397.954,141.79c0-3.809-1.01-6.031-4.547-6.031c-3.537,0.067-4.651,1.346-4.651,5.493v6.133c0.069,4.045,1.451,5.088,4.515,5.088
	c3.37,0,4.683-1.786,4.683-5.055V141.79z"/>
<path fill="#A6A8AB" d="M405.501,134.444l0.136,2.089c0.908-1.448,2.528-2.461,4.951-2.461c4.615,0,6.031,2.092,6.031,7.181v12.774
	h-1.686v-12.774c0-4.382-0.976-5.696-4.513-5.696c-3.539,0-4.716,2.461-4.716,4.718v13.752h-1.685v-19.583H405.501z"/>
<g id="LOGO_6_"  a:adobe-blending-mode="darken">
	<g  a:adobe-blending-mode="normal">
		<g>
			<path fill="#4C4C4C" d="M358.983,123.836c-1.847,0-3.689-0.389-5.427-1.162c-3.261-1.452-5.759-4.088-7.037-7.419
				c-1.28-3.331-1.184-6.961,0.267-10.222c1.451-3.26,4.084-5.761,7.416-7.041c6.875-2.637,14.615,0.81,17.254,7.686
				c0.814,2.125-1.126,3.998-5.501,7.148c-0.294,0.214-0.599,0.428-0.909,0.645l-2.526-3.603l0.865-0.614
				c2.084-1.501,3.097-2.387,3.578-2.867c-2.051-4.026-6.873-5.942-11.184-4.284c-2.234,0.857-4,2.533-4.973,4.72
				c-0.973,2.187-1.035,4.62-0.179,6.855c0.859,2.233,2.534,4.001,4.719,4.975c2.184,0.974,4.617,1.035,6.851,0.18
				c2.356-0.905,4.232-2.774,5.144-5.128l4.102,1.59c-1.362,3.512-4.156,6.299-7.667,7.648
				C362.221,123.539,360.601,123.836,358.983,123.836L358.983,123.836z"/>
			<path fill="none" stroke="#4C4C4C" stroke-width="0.6088" d="M358.983,123.836c-1.847,0-3.689-0.389-5.427-1.162
				c-3.261-1.452-5.759-4.088-7.037-7.419c-1.28-3.331-1.184-6.961,0.267-10.222c1.451-3.26,4.084-5.761,7.416-7.041
				c6.875-2.637,14.615,0.81,17.254,7.686c0.814,2.125-1.126,3.998-5.501,7.148c-0.294,0.214-0.599,0.428-0.909,0.645l-2.526-3.603
				l0.865-0.614c2.084-1.501,3.097-2.387,3.578-2.867c-2.051-4.026-6.873-5.942-11.184-4.284c-2.234,0.857-4,2.533-4.973,4.72
				c-0.973,2.187-1.035,4.62-0.179,6.855c0.859,2.233,2.534,4.001,4.719,4.975c2.184,0.974,4.617,1.035,6.851,0.18
				c2.356-0.905,4.232-2.774,5.144-5.128l4.102,1.59c-1.362,3.512-4.156,6.299-7.667,7.648
				C362.221,123.539,360.601,123.836,358.983,123.836L358.983,123.836z"/>
		</g>
		<g>
			<path fill="#4C4C4C" d="M336.682,124.008c-3.03,0-6.077-1.024-8.575-3.119c-2.734-2.294-4.409-5.517-4.719-9.072
				c-0.312-3.556,0.779-7.019,3.072-9.754c2.484-2.961,6.127-4.701,9.995-4.771l0.079,4.404c-2.594,0.046-5.037,1.211-6.702,3.198
				c-3.174,3.785-2.68,9.447,1.103,12.622c3.785,3.18,9.443,2.682,12.616-1.105c1.667-1.985,2.391-4.595,1.986-7.158l4.347-0.686
				c0.602,3.822-0.475,7.713-2.962,10.675C344.285,122.385,340.497,124.008,336.682,124.008L336.682,124.008z"/>
			<path fill="none" stroke="#4C4C4C" stroke-width="0.6088" d="M336.682,124.008c-3.03,0-6.077-1.024-8.575-3.119
				c-2.734-2.294-4.409-5.517-4.719-9.072c-0.312-3.556,0.779-7.019,3.072-9.754c2.484-2.961,6.127-4.701,9.995-4.771l0.079,4.404
				c-2.594,0.046-5.037,1.211-6.702,3.198c-3.174,3.785-2.68,9.447,1.103,12.622c3.785,3.18,9.443,2.682,12.616-1.105
				c1.667-1.985,2.391-4.595,1.986-7.158l4.347-0.686c0.602,3.822-0.475,7.713-2.962,10.675
				C344.285,122.385,340.497,124.008,336.682,124.008L336.682,124.008z"/>
		</g>
		<g>
			<path fill="#4C4C4C" d="M312.458,127.102c-0.12,0.413-0.183,0.849-0.183,1.293c0,2.558,2.081,4.639,4.639,4.639
				c2.555,0,4.637-2.08,4.637-4.639c0-2.558-2.082-4.639-4.637-4.639c-0.279,0-2.038,0.074-2.647,0.074
				c-7.366,0-13.357-5.994-13.357-13.362c0-7.368,5.991-13.362,13.357-13.362c7.363,0,13.355,5.995,13.355,13.362
				c0,4.355-2.092,8.23-5.324,10.67c2.215,1.649,3.654,4.289,3.654,7.258c0,4.984-4.054,9.042-9.038,9.042l0,0
				c-4.985,0-9.039-4.058-9.039-9.042c0-0.859,0.122-1.709,0.357-2.524L312.458,127.102z M314.267,101.507
				c-4.94,0-8.957,4.018-8.957,8.961c0,4.941,4.017,8.959,8.957,8.959c4.937,0,8.954-4.018,8.954-8.959
				C323.221,105.525,319.203,101.507,314.267,101.507L314.267,101.507z"/>
			<path fill="none" stroke="#4C4C4C" stroke-width="0.6088" d="M312.458,127.102c-0.12,0.413-0.183,0.849-0.183,1.293
				c0,2.558,2.081,4.639,4.639,4.639c2.555,0,4.637-2.08,4.637-4.639c0-2.558-2.082-4.639-4.637-4.639
				c-0.279,0-2.038,0.074-2.647,0.074c-7.366,0-13.357-5.994-13.357-13.362c0-7.368,5.991-13.362,13.357-13.362
				c7.363,0,13.355,5.995,13.355,13.362c0,4.355-2.092,8.23-5.324,10.67c2.215,1.649,3.654,4.289,3.654,7.258
				c0,4.984-4.054,9.042-9.038,9.042l0,0c-4.985,0-9.039-4.058-9.039-9.042c0-0.859,0.122-1.709,0.357-2.524L312.458,127.102z
				 M314.267,101.507c-4.94,0-8.957,4.018-8.957,8.961c0,4.941,4.017,8.959,8.957,8.959c4.937,0,8.954-4.018,8.954-8.959
				C323.221,105.525,319.203,101.507,314.267,101.507L314.267,101.507z"/>
		</g>
		<g>
			<path fill="#4C4C4C" d="M291.953,123.83c-7.363,0-13.354-5.994-13.354-13.362h4.4c0,4.941,4.017,8.959,8.954,8.959
				c4.938,0,8.957-4.018,8.957-8.959c0-4.942-4.018-8.961-8.957-8.961c-2.156,0-4.241,0.778-5.869,2.191l-2.883-3.323
				c2.427-2.109,5.535-3.27,8.752-3.27c7.364,0,13.357,5.995,13.357,13.362C305.31,117.836,299.317,123.83,291.953,123.83
				L291.953,123.83z"/>
			<path fill="none" stroke="#4C4C4C" stroke-width="0.6088" d="M291.953,123.83c-7.363,0-13.354-5.994-13.354-13.362h4.4
				c0,4.941,4.017,8.959,8.954,8.959c4.938,0,8.957-4.018,8.957-8.959c0-4.942-4.018-8.961-8.957-8.961
				c-2.156,0-4.241,0.778-5.869,2.191l-2.883-3.323c2.427-2.109,5.535-3.27,8.752-3.27c7.364,0,13.357,5.995,13.357,13.362
				C305.31,117.836,299.317,123.83,291.953,123.83L291.953,123.83z"/>
		</g>
		<g>
			<path fill="#181818" d="M253.889,123.769c-7.232,0-13.138-5.778-13.35-12.96h-0.005V99.807h4.4v10.6
				c0,4.939,4.017,8.959,8.956,8.959c1.972,0,3.842-0.627,5.408-1.817l2.66,3.507C259.619,122.83,256.83,123.769,253.889,123.769
				L253.889,123.769z"/>
			<path fill="none" stroke="#181818" stroke-width="0.6088" d="M253.889,123.769c-7.232,0-13.138-5.778-13.35-12.96h-0.005V99.807
				h4.4v10.6c0,4.939,4.017,8.959,8.956,8.959c1.972,0,3.842-0.627,5.408-1.817l2.66,3.507
				C259.619,122.83,256.83,123.769,253.889,123.769L253.889,123.769z"/>
		</g>
		<g>
			<path fill="#4C4C4C" d="M269.641,123.83c-7.364,0-13.355-5.994-13.355-13.362c0-3.866,1.672-7.541,4.59-10.082l2.891,3.319
				c-1.959,1.705-3.08,4.17-3.08,6.763c0,4.941,4.016,8.959,8.954,8.959c4.938,0,8.958-4.018,8.958-8.959h4.4
				C282.998,117.836,277.006,123.83,269.641,123.83L269.641,123.83z M282.998,110.467h-4.4c0-3.872,1.676-7.551,4.598-10.091
				l2.887,3.321C284.122,105.403,282.998,107.871,282.998,110.467L282.998,110.467z"/>
			<path fill="none" stroke="#4C4C4C" stroke-width="0.6088" d="M269.641,123.83c-7.364,0-13.355-5.994-13.355-13.362
				c0-3.866,1.672-7.541,4.59-10.082l2.891,3.319c-1.959,1.705-3.08,4.17-3.08,6.763c0,4.941,4.016,8.959,8.954,8.959
				c4.938,0,8.958-4.018,8.958-8.959h4.4C282.998,117.836,277.006,123.83,269.641,123.83L269.641,123.83z M282.998,110.467h-4.4
				c0-3.872,1.676-7.551,4.598-10.091l2.887,3.321C284.122,105.403,282.998,107.871,282.998,110.467L282.998,110.467z"/>
		</g>
		<g>
			<path fill="#181818" d="M240.424,123.217l-2.916-3.297c1.922-1.701,3.025-4.149,3.025-6.714c0-4.941-4.017-8.96-8.957-8.96
				c-4.938,0-8.956,4.019-8.956,8.96c0,2.564,1.102,5.012,3.024,6.714l-2.915,3.297c-2.865-2.538-4.51-6.187-4.51-10.011V99.807
				h4.401v3.495c2.371-2.148,5.512-3.459,8.956-3.459c7.365,0,13.357,5.994,13.357,13.364
				C244.933,117.032,243.289,120.681,240.424,123.217L240.424,123.217z"/>
			<path fill="none" stroke="#181818" stroke-width="0.6088" d="M240.424,123.217l-2.916-3.297c1.922-1.701,3.025-4.149,3.025-6.714
				c0-4.941-4.017-8.96-8.957-8.96c-4.938,0-8.956,4.019-8.956,8.96c0,2.564,1.102,5.012,3.024,6.714l-2.915,3.297
				c-2.865-2.538-4.51-6.187-4.51-10.011V99.807h4.401v3.495c2.371-2.148,5.512-3.459,8.956-3.459
				c7.365,0,13.357,5.994,13.357,13.364C244.933,117.032,243.289,120.681,240.424,123.217L240.424,123.217z"/>
		</g>
	</g>
</g>
<path fill="#FFFFFF" stroke="#FFFFFF" stroke-width="0.6088" d="M283.197,100.376c-2.922,2.541-4.598,6.219-4.598,10.091
	c0,4.941-4.02,8.959-8.958,8.959c-4.938,0-8.954-4.018-8.954-8.959c0-2.593,1.121-5.058,3.08-6.763l-2.891-3.319
	c-2.918,2.541-4.59,6.217-4.59,10.082c0,7.368,5.992,13.362,13.355,13.362c4.661,0,8.767-2.404,11.158-6.035
	c2.39,3.63,6.495,6.035,11.155,6.035c4.66,0,8.766-2.404,11.157-6.035c2.39,3.63,6.495,6.035,11.157,6.035
	c0.609,0,2.368-0.074,2.647-0.074c2.556,0,4.637,2.082,4.637,4.639c0,2.558-2.082,4.639-4.637,4.639
	c-2.558,0-4.639-2.08-4.639-4.639c0-0.443,0.063-0.88,0.183-1.293l-4.226-1.231c-0.235,0.815-0.357,1.665-0.357,2.524
	c0,4.984,4.054,9.042,9.039,9.042c4.983,0,9.038-4.058,9.038-9.042c0-2.968-1.439-5.609-3.654-7.258
	c1.219-0.92,2.275-2.046,3.118-3.323c0.726,1.141,1.625,2.18,2.691,3.075c2.498,2.095,5.545,3.119,8.575,3.119
	c3.815,0,7.604-1.623,10.242-4.767c0.362-0.431,0.685-0.887,0.986-1.355c1.385,2.079,3.308,3.747,5.647,4.788
	c1.737,0.773,3.579,1.162,5.427,1.162c1.618,0,3.238-0.296,4.792-0.894c3.511-1.349,6.305-4.137,7.667-7.648l-4.102-1.59
	c-0.912,2.354-2.787,4.223-5.144,5.128c-2.234,0.855-4.666,0.795-6.851-0.18c-2.185-0.974-3.859-2.741-4.719-4.975
	c-0.426-1.112-0.623-2.274-0.595-3.43c0-0.009,0-0.017,0-0.026c0.031-1.158,0.289-2.309,0.774-3.399
	c0.973-2.187,2.739-3.863,4.973-4.72c4.311-1.657,9.132,0.258,11.184,4.284c-0.48,0.48-1.493,1.366-3.578,2.867l-0.865,0.614
	l2.526,3.603c0.31-0.217,0.615-0.431,0.909-0.645c4.374-3.15,6.315-5.024,5.501-7.148c-2.639-6.876-10.379-10.323-17.254-7.686
	c-3.332,1.28-5.964,3.781-7.415,7.041c-0.601,1.351-0.956,2.765-1.09,4.195l-0.158,0.025c0.405,2.563-0.319,5.173-1.986,7.158
	c-3.174,3.786-8.831,4.284-12.616,1.105c-3.783-3.175-4.278-8.837-1.103-12.622c1.665-1.987,4.108-3.152,6.702-3.198l-0.079-4.404
	c-3.868,0.071-7.511,1.81-9.995,4.771c-0.338,0.404-0.642,0.828-0.928,1.261c-2.372-3.731-6.53-6.218-11.266-6.218
	c-4.662,0-8.767,2.405-11.157,6.035c-2.391-3.63-6.497-6.035-11.157-6.035c-3.217,0-6.325,1.161-8.752,3.27 M291.953,119.426
	c-4.938,0-8.954-4.018-8.954-8.959c0-2.597,1.123-5.064,3.085-6.77l0,0c1.628-1.413,3.713-2.191,5.869-2.191
	c4.939,0,8.957,4.018,8.957,8.961C300.91,115.408,296.891,119.426,291.953,119.426z M314.267,119.426
	c-4.94,0-8.957-4.018-8.957-8.959c0-4.942,4.017-8.961,8.957-8.961c4.937,0,8.954,4.018,8.954,8.961
	C323.22,115.408,319.203,119.426,314.267,119.426z"/>
</svg>
