<?xml version="1.0" encoding="utf-8"?>
<!-- Generator: Adobe Illustrator 17.1.0, SVG Export Plug-In . SVG Version: 6.00 Build 0)  -->
<!DOCTYPE svg PUBLIC "-//W3C//DTD SVG 1.1//EN" "http://www.w3.org/Graphics/SVG/1.1/DTD/svg11.dtd" [
	<!ENTITY ns_flows "http://ns.adobe.com/Flows/1.0/">
	<!ENTITY ns_extend "http://ns.adobe.com/Extensibility/1.0/">
	<!ENTITY ns_ai "http://ns.adobe.com/AdobeIllustrator/10.0/">
	<!ENTITY ns_graphs "http://ns.adobe.com/Graphs/1.0/">
	<!ENTITY ns_vars "http://ns.adobe.com/Variables/1.0/">
	<!ENTITY ns_imrep "http://ns.adobe.com/ImageReplacement/1.0/">
	<!ENTITY ns_sfw "http://ns.adobe.com/SaveForWeb/1.0/">
	<!ENTITY ns_custom "http://ns.adobe.com/GenericCustomNamespace/1.0/">
	<!ENTITY ns_adobe_xpath "http://ns.adobe.com/XPath/1.0/">
]>
<svg version="1.1" id="Layer_3" xmlns:x="&ns_extend;" xmlns:i="&ns_ai;" xmlns:graph="&ns_graphs;"
	 xmlns="http://www.w3.org/2000/svg" xmlns:xlink="http://www.w3.org/1999/xlink" xmlns:a="http://ns.adobe.com/AdobeSVGViewerExtensions/3.0/"
	 x="0px" y="0px" viewBox="0 0 250 250" enable-background="new 0 0 250 250" xml:space="preserve">
<metadata>
	<sfw  xmlns="&ns_sfw;">
		<slices></slices>
		<sliceSourceBounds  width="247.613" height="247" bottomLeftOrigin="true" x="2" y="-248"></sliceSourceBounds>
	</sfw>
</metadata>
<g>
	<g id="_x33__1_">
		<path fill="none" stroke="#FFFFFF" stroke-width="4.249" stroke-miterlimit="10" d="M188.296,79.277
			c13.002,17.423,20.716,39.133,20.716,62.671c0,57.397-45.866,103.927-102.444,103.927S4.124,199.346,4.124,141.949
			S49.99,38.022,106.568,38.022c25.133,0,48.152,9.181,65.975,24.419"/>
		<path fill="none" stroke="#FFFFFF" stroke-width="4.249" stroke-linejoin="round" stroke-miterlimit="10" d="M21.366,85.95
			c4.297,1.558,12.557,2.483,16.231,5.031c4.777,3.344,3.83,9.557,8.571,12.197c3.701,2.058,14.142-1.169,20.642,2.914
			c4.341,2.72,3.874,22.301,0.266,26.574c-3.764,4.436-13.601,3.491-17.623,7.662c-4.297,4.434-0.66,20.515-10.447,20.504
			c-7.767-0.006-12.336-21.148-12.583-22.744c-0.774-4.929,6.887-14.382,4.161-18.546c-2.569-3.934-22.991,5.358-22.182-1.821"/>
		<path fill="none" stroke="#FFFFFF" stroke-width="4.249" stroke-linejoin="round" stroke-miterlimit="10" d="M202.173,177.296
			c0,0-7.695,8.675-15.296,4.202c-4.774-2.796-7.12-18.433-8.883-23.744c-1.808-5.477-5.101-14.97-12.423-13.891
			c-6.514,0.966-7.124,19.178-10.333,25.009c-4.72,8.634-22.442,9.952-20.338,19.606c1.769,8.217,15.26-5.678,24.571,10.39
			c4.983,8.613-10.271,18.227-7.345,25.23c1.985,4.773,7.909,0.554,12.923,1.497"/>
	</g>
	<g>
		<path fill="none" stroke="#FFFFFF" stroke-width="4.249" stroke-linejoin="round" stroke-miterlimit="10" d="M243.775,22.783
			L227.248,39.55c-2.223,2.256-3.601,6.654-3.061,9.775l8.141,47.071c0.54,3.121-0.838,7.52-3.061,9.775l-3.461,3.512
			c-2.223,2.256-5.17,1.768-6.548-1.083l-17.261-35.712c-1.378-2.851-4.325-3.339-6.548-1.083l-12.348,12.529
			c-2.223,2.256-5.557,5.556-7.409,7.335c-1.852,1.778-5.272,7.399-5.519,10.557l-0.889,11.361c-0.247,3.157-2.719,6.99-5.494,8.517
			l-0.075,0.041c-2.775,1.527-5.575,0.24-6.223-2.86l-3.161-15.119c-0.648-3.1-3.707-6.204-6.797-6.897l-14.983-3.361
			c-3.09-0.693-4.434-3.565-2.986-6.381l0.091-0.176c1.448-2.817,5.22-5.265,8.382-5.44l12.509-0.693
			c3.162-0.175,6.646-1.488,7.742-2.916c1.096-1.429,5.531-6.186,7.754-8.441l13.791-13.992c2.223-2.256,1.722-5.255-1.114-6.666
			l-35.295-17.556c-2.836-1.41-3.337-4.41-1.113-6.665l3.461-3.511c2.224-2.255,6.594-3.647,9.712-3.092l46.483,8.272
			c3.118,0.555,7.488-0.837,9.712-3.092L228.11,6.89"/>
	</g>
	
		<path fill="none" stroke="#FFFFFF" stroke-width="4.249" stroke-linecap="round" stroke-linejoin="round" stroke-miterlimit="10" d="
		M228.11,6.89c2.427-2.464,6.208-3.766,10.933-3.766c3.222,0,7.141,0.923,7.141,0.923l0.37,1.241
		c1.945,6.528,0.776,13.886-2.779,17.494"/>
</g>
</svg>
