<?xml version="1.0" encoding="utf-8"?>
<!-- Generator: Adobe Illustrator 17.1.0, SVG Export Plug-In . SVG Version: 6.00 Build 0)  -->
<!DOCTYPE svg PUBLIC "-//W3C//DTD SVG 1.1//EN" "http://www.w3.org/Graphics/SVG/1.1/DTD/svg11.dtd" [
	<!ENTITY ns_flows "http://ns.adobe.com/Flows/1.0/">
	<!ENTITY ns_extend "http://ns.adobe.com/Extensibility/1.0/">
	<!ENTITY ns_ai "http://ns.adobe.com/AdobeIllustrator/10.0/">
	<!ENTITY ns_graphs "http://ns.adobe.com/Graphs/1.0/">
	<!ENTITY ns_vars "http://ns.adobe.com/Variables/1.0/">
	<!ENTITY ns_imrep "http://ns.adobe.com/ImageReplacement/1.0/">
	<!ENTITY ns_sfw "http://ns.adobe.com/SaveForWeb/1.0/">
	<!ENTITY ns_custom "http://ns.adobe.com/GenericCustomNamespace/1.0/">
	<!ENTITY ns_adobe_xpath "http://ns.adobe.com/XPath/1.0/">
]>
<svg version="1.1" id="Layer_1" xmlns:x="&ns_extend;" xmlns:i="&ns_ai;" xmlns:graph="&ns_graphs;"
	 xmlns="http://www.w3.org/2000/svg" xmlns:xlink="http://www.w3.org/1999/xlink" xmlns:a="http://ns.adobe.com/AdobeSVGViewerExtensions/3.0/"
	 x="0px" y="0px" viewBox="0 0 250 250" enable-background="new 0 0 250 250" xml:space="preserve">
<metadata>
	<sfw  xmlns="&ns_sfw;">
		<slices></slices>
		<sliceSourceBounds  width="243.935" height="244" bottomLeftOrigin="true" x="3.032" y="-247"></sliceSourceBounds>
	</sfw>
</metadata>
<g>
	<g opacity="0.6">
		<path fill="#FFFFFF" d="M125,7c31.51,0,61.134,12.274,83.415,34.561c22.281,22.287,34.552,51.92,34.552,83.439
			s-12.271,61.152-34.552,83.439C186.134,230.726,156.51,243,125,243s-61.134-12.274-83.415-34.561
			C19.303,186.152,7.032,156.519,7.032,125s12.271-61.152,34.552-83.439C63.866,19.274,93.49,7,125,7 M125,3
			C57.639,3,3.032,57.621,3.032,125S57.639,247,125,247s121.968-54.621,121.968-122S192.361,3,125,3L125,3z"/>
	</g>
	<g>
		<path fill="none" stroke="#FFFFFF" stroke-width="4.2494" stroke-miterlimit="10" d="M57.12,157.596v-58.13
			c0.068-0.171,0.146-0.325,0.169-0.497c1.007-5.88,4.184-10.024,9.577-12.462c0.337-0.16,0.613-0.794,0.669-1.239
			c0.382-3.391,2.294-5.269,5.68-5.332c3.217-0.063,6.445-0.131,9.667,0.057c1.282,0.074,2.755,0.554,3.712,1.376
			c1.007,0.885,1.501,2.381,2.379,3.87c2.334,0,5.067-0.04,7.8,0.017c0.815,0.017,1.265-0.257,1.648-0.982
			c1.957-3.556,3.965-7.09,5.922-10.646c1.271-2.295,3.11-3.808,5.714-4.07c1.963-0.2,3.953-0.205,5.938-0.211
			c10.865-0.017,21.724-0.034,32.588,0.011c3.374,0.017,6.028,1.353,7.687,4.532c1.833,3.471,3.835,6.85,5.713,10.298
			c0.416,0.765,0.855,1.113,1.738,1.067c1.546-0.074,3.093-0.051,4.645,0.017c10.555,0.491,19.418,7.067,22.989,17.143
			c0.669,1.912,1.029,3.956,1.524,5.931v49.247c-0.101,0.377-0.253,0.742-0.309,1.13c-0.624,4.002-2.03,7.701-4.392,10.972
			c-5.337,7.427-12.63,10.949-21.606,10.96c-27.094,0.017-54.177,0.006-81.266,0c-1.547,0-3.11,0-4.634-0.154
			c-10.612-1.107-17.917-6.742-21.892-16.737C58.003,161.809,57.66,159.657,57.12,157.596 M167.1,127.666
			c-0.141-21.053-16.73-37.385-36.817-37.419c-20.352-0.034-36.795,16.583-36.89,37.311c-0.101,20.631,16.539,37.562,36.845,37.511
			C150.572,165.023,167.032,148.308,167.1,127.666 M85.811,95.859c0.022-4.378-3.503-7.975-7.789-7.992
			c-4.24,0-7.839,3.631-7.873,7.952c-0.022,4.316,3.56,7.958,7.839,7.975C82.285,103.805,85.811,100.237,85.811,95.859"/>
		<path fill-rule="evenodd" clip-rule="evenodd" fill="none" stroke="#FFFFFF" stroke-width="4.2494" stroke-miterlimit="10" d="
			M155.326,127.701c-0.101,14.134-11.365,25.517-25.154,25.42c-13.98-0.091-25.137-11.531-25.042-25.665
			c0.112-14.083,11.421-25.397,25.272-25.283C144.219,102.281,155.427,113.761,155.326,127.701"/>
	</g>
</g>
</svg>
