<?xml version="1.0" encoding="utf-8"?>
<!-- Generator: Adobe Illustrator 17.1.0, SVG Export Plug-In . SVG Version: 6.00 Build 0)  -->
<!DOCTYPE svg PUBLIC "-//W3C//DTD SVG 1.1//EN" "http://www.w3.org/Graphics/SVG/1.1/DTD/svg11.dtd" [
	<!ENTITY ns_flows "http://ns.adobe.com/Flows/1.0/">
	<!ENTITY ns_extend "http://ns.adobe.com/Extensibility/1.0/">
	<!ENTITY ns_ai "http://ns.adobe.com/AdobeIllustrator/10.0/">
	<!ENTITY ns_graphs "http://ns.adobe.com/Graphs/1.0/">
	<!ENTITY ns_vars "http://ns.adobe.com/Variables/1.0/">
	<!ENTITY ns_imrep "http://ns.adobe.com/ImageReplacement/1.0/">
	<!ENTITY ns_sfw "http://ns.adobe.com/SaveForWeb/1.0/">
	<!ENTITY ns_custom "http://ns.adobe.com/GenericCustomNamespace/1.0/">
	<!ENTITY ns_adobe_xpath "http://ns.adobe.com/XPath/1.0/">
]>
<svg version="1.1" id="Layer_1" xmlns:x="&ns_extend;" xmlns:i="&ns_ai;" xmlns:graph="&ns_graphs;"
	 xmlns="http://www.w3.org/2000/svg" xmlns:xlink="http://www.w3.org/1999/xlink" xmlns:a="http://ns.adobe.com/AdobeSVGViewerExtensions/3.0/"
	 x="0px" y="0px" viewBox="0 0 32 32" enable-background="new 0 0 32 32" xml:space="preserve">
<metadata>
	<sfw  xmlns="&ns_sfw;">
		<slices></slices>
		<sliceSourceBounds  width="31" height="31" bottomLeftOrigin="true" x="0.5" y="-31.5"></sliceSourceBounds>
	</sfw>
</metadata>
<g id="Layer_2">
	<circle fill="#FFFFFF" cx="16" cy="16" r="15.5"/>
</g>
<g id="Layer_2_copy">
	<circle fill="#FFFFFF" cx="16" cy="16" r="15.5"/>
</g>
<g id="mobile">
	<path fill="#35495E" d="M19.831,6.599h-7.662c-1.058,0-1.915,0.858-1.915,1.915v15.324c0,1.058,0.858,1.915,1.915,1.915h7.662
		c1.058,0,1.915-0.858,1.915-1.915V8.515C21.746,7.457,20.889,6.599,19.831,6.599z M16,24.796c-0.529,0-0.958-0.429-0.958-0.958
		c0-0.529,0.429-0.958,0.958-0.958s0.958,0.429,0.958,0.958C16.958,24.367,16.529,24.796,16,24.796z M20.31,21.923h-8.62V8.515
		c0-0.264,0.215-0.479,0.479-0.479h7.662c0.264,0,0.479,0.215,0.479,0.479V21.923z"/>
</g>
</svg>
