<?xml version="1.0" encoding="utf-8"?>
<!-- Generator: Adobe Illustrator 17.1.0, SVG Export Plug-In . SVG Version: 6.00 Build 0)  -->
<!DOCTYPE svg PUBLIC "-//W3C//DTD SVG 1.1//EN" "http://www.w3.org/Graphics/SVG/1.1/DTD/svg11.dtd" [
	<!ENTITY ns_flows "http://ns.adobe.com/Flows/1.0/">
	<!ENTITY ns_extend "http://ns.adobe.com/Extensibility/1.0/">
	<!ENTITY ns_ai "http://ns.adobe.com/AdobeIllustrator/10.0/">
	<!ENTITY ns_graphs "http://ns.adobe.com/Graphs/1.0/">
	<!ENTITY ns_vars "http://ns.adobe.com/Variables/1.0/">
	<!ENTITY ns_imrep "http://ns.adobe.com/ImageReplacement/1.0/">
	<!ENTITY ns_sfw "http://ns.adobe.com/SaveForWeb/1.0/">
	<!ENTITY ns_custom "http://ns.adobe.com/GenericCustomNamespace/1.0/">
	<!ENTITY ns_adobe_xpath "http://ns.adobe.com/XPath/1.0/">
]>
<svg version="1.1" id="Layer_1" xmlns:x="&ns_extend;" xmlns:i="&ns_ai;" xmlns:graph="&ns_graphs;"
	 xmlns="http://www.w3.org/2000/svg" xmlns:xlink="http://www.w3.org/1999/xlink" xmlns:a="http://ns.adobe.com/AdobeSVGViewerExtensions/3.0/"
	 x="0px" y="0px" viewBox="0 0 260 360" enable-background="new 0 0 260 360" xml:space="preserve">
<metadata>
	<sfw  xmlns="&ns_sfw;">
		<slices></slices>
		<sliceSourceBounds  width="248" height="353.153" bottomLeftOrigin="true" x="6" y="-358.802"></sliceSourceBounds>
	</sfw>
</metadata>
<g id="icon_prototype">
	<path fill="none" stroke="#FFC000" stroke-width="3.297" stroke-linejoin="round" stroke-miterlimit="10" d="M105.092,162.799
		h-1.362c-0.887,0-1.602,0.698-1.602,1.592v0.809c0,0.893,0.715,1.602,1.602,1.602h38.765"/>
	<g>
		<path fill="none" stroke="#FFC000" stroke-width="3.297" stroke-linejoin="round" stroke-miterlimit="10" d="M183.091,107.437
			V81.438c0-5.093-4.118-9.239-9.247-9.239H71.815c-5.057,0-9.175,4.146-9.175,9.239v60.22c0,5.097,4.118,9.243,9.247,9.243h40.369
			 M140.917,162.798l-1.691-0.341c-1.824-0.366-3.285-1.776-3.725-3.6l-2.867-7.956h12.716 M182.794,102.338 M62.815,141.061h82.21"
			/>
	</g>
	<path fill="none" stroke="#FFC000" stroke-width="3.297" stroke-linejoin="round" stroke-miterlimit="10" d="M105.093,150.901
		h8.283l-2.867,7.956c-0.44,1.824-1.901,3.235-3.725,3.6l-1.691,0.341"/>
	<path fill="none" stroke="#FFC000" stroke-width="3.297" stroke-linejoin="round" stroke-miterlimit="10" d="M51.332,165.269
		c0-1.382,1.112-2.502,2.485-2.502h35.615c1.372,0,2.485,1.12,2.485,2.502v14.267c0,1.382-1.112,2.502-2.485,2.502H53.817
		c-1.372,0-2.485-1.12-2.485-2.502V165.269z"/>
	<g>
		<path fill="#FFC000" d="M86.992,170.446c-1.074,0-1.944,0.876-1.944,1.958s0.87,1.958,1.944,1.958s1.944-0.876,1.944-1.958
			S88.066,170.446,86.992,170.446L86.992,170.446z"/>
	</g>
	<g>
		<path fill="none" stroke="#FFC000" stroke-width="3.297" stroke-linejoin="round" stroke-miterlimit="10" d="M149.289,187.801
			c-1.83,0-3.313-1.494-3.313-3.336l0-73.736c0-1.843,1.483-3.336,3.313-3.336l56.066,0c1.83,0,3.313,1.494,3.313,3.336l0,73.736
			c0,1.843-1.483,3.336-3.313,3.336L149.289,187.801z"/>
		<g>
			<ellipse fill="#FFC000" cx="177.324" cy="181.542" rx="2.43" ry="2.447"/>
		</g>
	</g>
	
		<path fill="none" stroke="#FFC000" stroke-width="3.297" stroke-linecap="round" stroke-linejoin="round" stroke-miterlimit="10" d="
		M142.28,166.801c0.887,0,1.602-0.708,1.602-1.602v-0.809c0-0.893-0.715-1.592-1.602-1.592h-1.362"/>
</g>
<text transform="matrix(1 0 0 1 26.9406 350.9222)" fill="#FFFFFF" font-family="'Alwyn'" font-size="40">PROTOTYPE</text>
<g>
	<path fill="#FFC000" d="M130,7.648c32.587,0,63.224,12.69,86.267,35.733S252,97.061,252,129.648s-12.69,63.224-35.733,86.267
		s-53.68,35.733-86.267,35.733s-63.224-12.69-86.267-35.733S8,162.236,8,129.648s12.69-63.224,35.733-86.267S97.413,7.648,130,7.648
		 M130,5.648c-68.483,0-124,55.517-124,124s55.517,124,124,124s124-55.517,124-124S198.483,5.648,130,5.648L130,5.648z"/>
</g>
</svg>
