<?xml version="1.0" encoding="utf-8"?>
<!-- Generator: Adobe Illustrator 17.1.0, SVG Export Plug-In . SVG Version: 6.00 Build 0)  -->
<!DOCTYPE svg PUBLIC "-//W3C//DTD SVG 1.1//EN" "http://www.w3.org/Graphics/SVG/1.1/DTD/svg11.dtd" [
	<!ENTITY ns_flows "http://ns.adobe.com/Flows/1.0/">
	<!ENTITY ns_extend "http://ns.adobe.com/Extensibility/1.0/">
	<!ENTITY ns_ai "http://ns.adobe.com/AdobeIllustrator/10.0/">
	<!ENTITY ns_graphs "http://ns.adobe.com/Graphs/1.0/">
	<!ENTITY ns_vars "http://ns.adobe.com/Variables/1.0/">
	<!ENTITY ns_imrep "http://ns.adobe.com/ImageReplacement/1.0/">
	<!ENTITY ns_sfw "http://ns.adobe.com/SaveForWeb/1.0/">
	<!ENTITY ns_custom "http://ns.adobe.com/GenericCustomNamespace/1.0/">
	<!ENTITY ns_adobe_xpath "http://ns.adobe.com/XPath/1.0/">
]>
<svg version="1.1" id="timeline" xmlns:x="&ns_extend;" xmlns:i="&ns_ai;" xmlns:graph="&ns_graphs;"
	 xmlns="http://www.w3.org/2000/svg" xmlns:xlink="http://www.w3.org/1999/xlink" xmlns:a="http://ns.adobe.com/AdobeSVGViewerExtensions/3.0/"
	 x="0px" y="0px" viewBox="0 0 2850 1080" enable-background="new 0 0 2850 1080" xml:space="preserve">
<metadata><?xpacket begin="﻿" id="W5M0MpCehiHzreSzNTczkc9d"?>
<x:xmpmeta xmlns:x="adobe:ns:meta/" x:xmptk="Adobe XMP Core 5.5-c014 79.151739, 2013/04/03-12:12:15        ">
   <rdf:RDF xmlns:rdf="http://www.w3.org/1999/02/22-rdf-syntax-ns#">
      <rdf:Description rdf:about=""
            xmlns:xmpMM="http://ns.adobe.com/xap/1.0/mm/"
            xmlns:stRef="http://ns.adobe.com/xap/1.0/sType/ResourceRef#"
            xmlns:stEvt="http://ns.adobe.com/xap/1.0/sType/ResourceEvent#"
            xmlns:dc="http://purl.org/dc/elements/1.1/"
            xmlns:xmp="http://ns.adobe.com/xap/1.0/"
            xmlns:xmpGImg="http://ns.adobe.com/xap/1.0/g/img/"
            xmlns:xmpTPg="http://ns.adobe.com/xap/1.0/t/pg/"
            xmlns:stDim="http://ns.adobe.com/xap/1.0/sType/Dimensions#"
            xmlns:stFnt="http://ns.adobe.com/xap/1.0/sType/Font#"
            xmlns:xmpG="http://ns.adobe.com/xap/1.0/g/"
            xmlns:pdf="http://ns.adobe.com/pdf/1.3/">
         <xmpMM:DocumentID>xmp.did:2533bd42-009f-4cf7-b8e6-608a2c5f8cde</xmpMM:DocumentID>
         <xmpMM:InstanceID>xmp.iid:2533bd42-009f-4cf7-b8e6-608a2c5f8cde</xmpMM:InstanceID>
         <xmpMM:OriginalDocumentID>xmp.did:b5d6dfb5-1142-4ca8-a3a3-720a5d89b8f5</xmpMM:OriginalDocumentID>
         <xmpMM:RenditionClass>proof:pdf</xmpMM:RenditionClass>
         <xmpMM:DerivedFrom rdf:parseType="Resource">
            <stRef:instanceID>uuid:a08c197d-3576-aa42-a8db-9962de2c68bd</stRef:instanceID>
            <stRef:documentID>xmp.did:34206118-521f-459d-9f51-ca4b91a2226e</stRef:documentID>
            <stRef:originalDocumentID>xmp.did:b5d6dfb5-1142-4ca8-a3a3-720a5d89b8f5</stRef:originalDocumentID>
            <stRef:renditionClass>proof:pdf</stRef:renditionClass>
         </xmpMM:DerivedFrom>
         <xmpMM:History>
            <rdf:Seq>
               <rdf:li rdf:parseType="Resource">
                  <stEvt:action>saved</stEvt:action>
                  <stEvt:instanceID>xmp.iid:b5d6dfb5-1142-4ca8-a3a3-720a5d89b8f5</stEvt:instanceID>
                  <stEvt:when>2014-10-17T16:31:56+08:00</stEvt:when>
                  <stEvt:softwareAgent>Adobe Illustrator CC (Macintosh)</stEvt:softwareAgent>
                  <stEvt:changed>/</stEvt:changed>
               </rdf:li>
               <rdf:li rdf:parseType="Resource">
                  <stEvt:action>saved</stEvt:action>
                  <stEvt:instanceID>xmp.iid:2533bd42-009f-4cf7-b8e6-608a2c5f8cde</stEvt:instanceID>
                  <stEvt:when>2014-11-03T14:33:36+08:00</stEvt:when>
                  <stEvt:softwareAgent>Adobe Illustrator CC (Macintosh)</stEvt:softwareAgent>
                  <stEvt:changed>/</stEvt:changed>
               </rdf:li>
            </rdf:Seq>
         </xmpMM:History>
         <dc:format>image/svg+xml</dc:format>
         <dc:title>
            <rdf:Alt>
               <rdf:li xml:lang="x-default">timelineEducation</rdf:li>
            </rdf:Alt>
         </dc:title>
         <xmp:CreatorTool>Adobe Illustrator CC (Macintosh)</xmp:CreatorTool>
         <xmp:CreateDate>2014-11-03T14:33:36+08:00</xmp:CreateDate>
         <xmp:MetadataDate>2014-11-03T14:33:36+08:00</xmp:MetadataDate>
         <xmp:ModifyDate>2014-11-03T14:33:36+08:00</xmp:ModifyDate>
         <xmp:Thumbnails>
            <rdf:Alt>
               <rdf:li rdf:parseType="Resource">
                  <xmpGImg:width>256</xmpGImg:width>
                  <xmpGImg:height>96</xmpGImg:height>
                  <xmpGImg:format>JPEG</xmpGImg:format>
                  <xmpGImg:image>/9j/4AAQSkZJRgABAgEASABIAAD/7QAsUGhvdG9zaG9wIDMuMAA4QklNA+0AAAAAABAASAAAAAEA&#xA;AQBIAAAAAQAB/+4ADkFkb2JlAGTAAAAAAf/bAIQABgQEBAUEBgUFBgkGBQYJCwgGBggLDAoKCwoK&#xA;DBAMDAwMDAwQDA4PEA8ODBMTFBQTExwbGxscHx8fHx8fHx8fHwEHBwcNDA0YEBAYGhURFRofHx8f&#xA;Hx8fHx8fHx8fHx8fHx8fHx8fHx8fHx8fHx8fHx8fHx8fHx8fHx8fHx8fHx8f/8AAEQgAYAEAAwER&#xA;AAIRAQMRAf/EAaIAAAAHAQEBAQEAAAAAAAAAAAQFAwIGAQAHCAkKCwEAAgIDAQEBAQEAAAAAAAAA&#xA;AQACAwQFBgcICQoLEAACAQMDAgQCBgcDBAIGAnMBAgMRBAAFIRIxQVEGE2EicYEUMpGhBxWxQiPB&#xA;UtHhMxZi8CRygvElQzRTkqKyY3PCNUQnk6OzNhdUZHTD0uIIJoMJChgZhJRFRqS0VtNVKBry4/PE&#xA;1OT0ZXWFlaW1xdXl9WZ2hpamtsbW5vY3R1dnd4eXp7fH1+f3OEhYaHiImKi4yNjo+Ck5SVlpeYmZ&#xA;qbnJ2en5KjpKWmp6ipqqusra6voRAAICAQIDBQUEBQYECAMDbQEAAhEDBCESMUEFURNhIgZxgZEy&#xA;obHwFMHR4SNCFVJicvEzJDRDghaSUyWiY7LCB3PSNeJEgxdUkwgJChgZJjZFGidkdFU38qOzwygp&#xA;0+PzhJSktMTU5PRldYWVpbXF1eX1RlZmdoaWprbG1ub2R1dnd4eXp7fH1+f3OEhYaHiImKi4yNjo&#xA;+DlJWWl5iZmpucnZ6fkqOkpaanqKmqq6ytrq+v/aAAwDAQACEQMRAD8A9U4q7FXYq7FXYq7FXYq7&#xA;FXYq7FXYq7FXYq7FXYq7FVK5txPGFNNjUBgSvSm4BFeuKsB/M2w8spYaa/mN9RW1tpJ5BPpj+mqA&#xA;MstJkDepIlEFEAatNwdsVYJFpf5V2+gQaVD5o8wixjH6RsdVVke4QTwKFkhk+rmeLjHB8B4KQVZQ&#xA;d+LKppY6j5MjvLSe7/MPX57hrmdljV7mCBhFqEbejLBLE5+GTjbHjQsrFaUOyrKNR/MbynY+YbzU&#xA;RLd6gbc22jtHBARHBO805lpJK0SuWMacwtaBVIrvRVh/mDVPyO13V5pbjzTqVrqEzxXzw25uQF9W&#xA;ABfTVoJUVTG45cO/XfFLPb/8tbG9k1DVNN1jVNL1bVkjaW9guJIwTHwMZe3+BNuFCAFajMtRXZQs&#xA;sfyvaG0jjufNfmG5nVWEs36QlQM8kao7Bfi4iq81FTwJ+GmKp55e8rHRbi6m/TGp6ktykKLDqNwL&#xA;hIvQUrWL4VYM9auSTyO+Kp5irsVSyXT0ghnZ5G+r/V5I5BGCshBAPLkDXnQHcUxV5TpV/wDl1GLR&#xA;B5m8w6VHM0a6fYkyWUQIZRxW2tYI415Ow5B0HIknepOKVTSdd8iz23O482eY7NkaOCO3u7t5W+Cc&#xA;ESB7dZ0kErXSxsWdtqKQpXZV0mrflpatbx3OvaxVL62uLa4lUSSNLcAi3UAQtNGnCQBeSqQoAB61&#xA;VQul6/8Al5y082nn/X7q0hX0ZJ5TdvLNJNdf6OZJvRTkPVikjFUYEHjUV+JV7fih2KuxV2KuxV2K&#xA;uxV2KuxV2KuxV2KuxV2KuxV2KuxVLNc0/VLyOFdPvzp7oxLyBeZYU+zQmmKrtEsdUs4Hj1C//SDs&#xA;wKSGMRlRShGxNcVR01vBOgSeNZUVkkVXUMA8bB0YA91ZQQexxVfirHLvyxfy+YRq9vfJbmixELAh&#xA;l9BQpMXqmrULgtT7Ptu1VUVeaVr0tvBHb6qIZY04vMYqlmHp0YryA6oxPzp0xVEaHY6lZWrRahfG&#xA;/mLllkK8aKRsvU1p44qmOKuxV2KuxVQurCxu/S+t28Vx9XkE0Hqor8JV+y6cgeLCuxG+Kt3sM01p&#xA;LFDMbeV1IjnUAlG7Gh64qlOmaN5gtp5JLrWWukbl6cTRKFUEinQg7UxVB6j5Y8w3UxI1utt66zJB&#xA;NAjhSkpkQDdd1+HieoIqMVZRirsVdirsVdirsVdirsVdirsVdirsVdirsVdirsVdiqE1DTheejWa&#xA;SL0XD/uzTlTsfbFVn6Jj/wCWm5/5HP8A1xV36Jj/AOWm5/5HP/XFXfomP/lpuf8Akc/9cVW22jrC&#xA;jKbq4fkzNX1GH2iTTbwrQe2Kqv6OT/f8/wDyNb+uKrYdMEV79aE8rfBw9N2LDvviqNxV2KuxV2Ku&#xA;xVQvrQXds8BkaLn+2how+WKqS6aoUAzz7eEjAfdXFVOfR1lMZFzOvBg27lq07b4qmGKuxV2KuxV2&#xA;KuxV2KuxV2KuxV2KuxV2KuxV2KuxV2KuxV2KuxV2KuxV2Ksa8+3Ol2ul2d1qM91bRwXsTRTWZiEn&#xA;qlWVVJlBXi/Ipt8VSKEHFXlYm8npqD3En5meZo9OhsJTJaSNdiVjHDGrXPrejxqsciPwCAh2qf5c&#xA;VTCODyVLbQvq/m/Wtck1G9KWVmrTcUuLa6Zx6cfF+LW7XKh258SEApsVxVL9O1vyPczTk+efNccd&#xA;l6VbR2vBNAYZJZ3M8wjkjkDpLw4n4uCr1ahxWkbaaz+W0F1CyeevM7/VhHPFzub2dJ44LpGeqiGQ&#xA;uPU/dSVAbgSPs74q9pt54biCO4hbnDMqyRuO6sKg7+IxVfirsVdirsVdirsVdirsVdirsVdirsVd&#xA;irsVdirsVdirsVdirsVdirsVdirsVdirsVS/XVmex9OC9XT55JEWO4beh5V4gVWpIB64qlOlLeW1&#xA;28t15kivIPT/ALgiPbi3NmBDV2QFfxOKtWHlzWre7gmg1o/o8SCZ7VIY1WQNRpCStN5XLMx8TXrW&#xA;qrJyARQ7g4qo2VjZWNslrZW8VrbR19OCFFjjWpqaKoAFSa4qrYq7FXYq7FVP1l8DhpFu9dfA40ji&#xA;UjfxgkcTt8sDJr6/H/KfwxVWWdWUMAd8NItv1R4Y0vEotfIrFSp2wJa+vx/yn8MVVknVlDAHfDSL&#xA;b9UeGNLxKH6Qj/lP4YErlvkZgoU74qq+qPDDSOJZJcrGASCa4FBU/r8f8p/DFK+O7SQkBSKb4oJV&#xA;PVHhhpeJZLdLHSqk1wKCp/X4/wCU/hilVjuVdagEdsNIJXeqPDGl4lFr6MMRxOxpgS19fj/lP4Yq&#xA;rGRTSq1puPY4aRxNSzoqEstR0I+eNLal9fj/AJT+GBK+O7SQkBSKYoJVPVHhhpeJTkvERuJUnAoK&#xA;z6/H/KfwxSiI3DoHGwOKrsVSbV7PUrqAR2dw1pIHqZQCSVoRTancj/b3yTWt02x1W2Y/WrxrtSgU&#xA;BowpDhmJaoPcMBT2xVB6taarcwtHaSvbSc6iUKTQb9hSv05FmFKysNYguPUmuZJ4/T4cChHxVB5f&#xA;rxSml9a6jc6b6NrObS4PHjPxqVod/h2rt47ZJr6qWn6dq9vcrJcXzXMQjKlCpHxUQV6kbFGPjviq&#xA;lqtvqU8U0VtI8ErMOEwWpWjAkj6PHbIlmELp9hrMDK1xdSXFFYFSlBUiMDx+zwb/AILFKY3tpqV1&#xA;pyRWtw1pPyr63Ekgb9gR+OSYHm7T9P1W3ujLcXzXEJiCekUp8dQedanFCWapYa5c8fqd09oeBUt6&#xA;Zb4iykGlQNqHItitodlq9pVLy5e7LScldkpxWgHGvzwhB5LtU0fzDc3rz2eqtZwkKFhEZcVA3JqR&#xA;3328Pc1LBFQW2oW2mwQXEzXdwlfUnK7tUk9N/lgLIc0kuNH8ySXbyx6jJFCzErCI2IANe9a/57YG&#xA;TINPS4SivzbigHJhuaU3O3XCGMksu9E8zTLIIdYa35PVCsZYqvJzx+Jv5WAr/QYUJpfLclEVQS1C&#xA;CwB67YCmKQRaV5lVkLag54lSw9IkEDhUbnvxP3/PAyT14L6fT5YoXME7H4JaGq7g12pkgwPNCabp&#xA;Ou29zHJdak11Gp+JChWvwcadSPtfF0xQp6vaatcfDaTNbsHer8SagggDancg5Eswt06z1eBpDc3D&#xA;3IcjgDHx4/Ex9+oYfdilEazpet3lxG9lqDWUapxdFUtyNa1O4HTbb+lJNYVLKz1S009oru6a+nL8&#xA;hKU4niabUFe4JxKRzSXUdG8x3F00ttqU1tCxFIljrT7PQ/Qf861izTzR4b6GCOK5dpZUjVXlK8eT&#xA;DqaYQxkprpWqrrZvfr8psaGliQStSpB38K7j/OhYoi7Fx6vwqxFB0Wv8MBZRSfTdO1u2uZ3uLuS5&#xA;gcn0ImQ1Ra1A5GtaDv8A0wMmVWnL6tHyFGpuDtiqriqyeUxQvIEaQoCRGgqzU7AGm+KqBvnBI+qT&#xA;mncBf+asVa+vv/yyT/8AAr/zViqrDcNJIUMMkYCq3NwADyr8OxO4pviqw3r82X6tMQrlA1FoaU+I&#xA;fF03xVVt5TNCshjeIt/uuQAMN+4BOKqmKuxVTnmMQUiJ5SzBaRgGmxNTUjbbFVEXzlkX6pP8TBak&#xA;LQV6sfi6DFUVirsVdiqnPKYlUiN5SzBeKUqK9zUjYYqpx3jPIifVpk58quwUKvEV3ox612xVEYq7&#xA;FXYq7FXYq7FXYq7FXYq7FXYq7FXYq7FXYq7FXYqk/nF0XyxqPPU/0MrwlP0qAxNuXIQSjgyGqk9e&#xA;VB32xVgiarpDCyii/Mmt7JBPPDFFwkeWCV0nDNA7SybRKQh68WYpQAAKVUweeNUtinlP8wLHVL23&#xA;bjqKzQ2x48htzW3DtEw48eACdSa8hir0u3hEMEcIdpBGqp6kh5O3EUqzHqT3OKHm2on6vqmtyT+b&#xA;7qGOY3HCxWKciBX4xjgyzEqqtC3xLwap+FkB3VQYl8xRRW9hafmI1pOoRwl1pIuX4ySOvF3lkZz8&#xA;U0arVyRw3JqcVR9/Lr31m806TzpL8FQyrYQqQjWgRQZ4XiK/vm9bkrIf2fhFDiq+Xyr+a0unWTaV&#xA;55UlvTBmn0+FWW3cyMz8W9b1ZQjxqA9N0qT8TAqp550t7oaXp7Sa/caS0En+k3VrGtJ6QsXDqT8K&#xA;UUv8J5fymuKscM2r2khaXz1cK7Ms88p01GhIjjPOKNH58FYRs5C7jx6YqoWsevJo19fXfn6TUYZ4&#xA;0heaPT/q7RyNHA0bokc0bL8PIsI+Nee/2cVROnR+d9S1KFLHzmZomR5J1k06KB0gZ5grICJFdxzh&#xA;X46bLy35MMVekW6TJBGk0nqzKqiSULx5MBu3EVpU70xVIvO6q2kRh9Un0hBOrtdW1eZEas5UkFTw&#xA;+GreIFBucVYZBd6khe5uvPcs8dvHAWkWw9OABTHuyo4d/UMcpDDY8/2lUDFVa+PmaPTFu7Tzu0n1&#xA;KX0S8tgiv+8toYwJVBX1CjFpv7s1L8fhC1xVV8vJ5s1g3L2vm91uT/vSfqCPFGVnFFjEhCikStHU&#xA;IOVeW5XFWUeWdE81abc3Dax5iOs2slRbW7WkVuYRzLL+8RmZ6IQp5daVxVkGKuxV2KuxV2KuxV2K&#xA;uxV2KuxV2KuxV2KuxVDak2mrZSvqRhWxQBp2ueIiAUgguX+HY+OKpankryUbv9IpoOmm8cV+uC0g&#xA;9Qgrx/vAnL7O3Xpiqppflry1pOp6hqGnWcNpfXwiN/JHtyWJeEdVrxUBV7AVxVMLe/sbm2jura4i&#xA;ntZqelPG6vG9TxHFlJB322xVV9KLkW4LyPU0FTirRhhJqUUnY1oO3TFXCOElqKpPR9h4DY/hiq4F&#xA;QeIpUD7PtirnRHXi6hl8CKj8cVWsIGViwQqKhq0I22NcVbMUR6opqanYdfHFWwig1AANKbDtireK&#xA;tOiOOLqGXwIqMVWcbdi0VEJABaPY0B2Wo+jbFW1SAllVUJVqsABsxAO/vTFVyoiiiqFHgBTFW8Vd&#xA;irsVdirsVdirsVdirsVdirsVdirsVdirsVS3zHp8OoaJd2c9oL6KZAHtGJCyAMDQ0K7bVpXfpirz&#xA;hvy00d9Xh1CbyW5kNAxXUX4o8l01wzsPU5NxkYvQGnxU3HRW1e2/LzSbS8lMXktWe5Nm9xcpfSBD&#xA;9TdTbgI8p4iL0xVF2YDfwxW0bp/5X+T9WtbyS60S50i+9F9JMpu7iWQ25IlJRpWZHBkc0Yq3Trit&#xA;sqa2t/K3l2RdG06W7S3JkSwhYtLI0sgMhUtX4iWLdh8hiqSxfmTd8E9byjrqS/ZljS1DhZDB6/FX&#xA;5KrKP7svsvPYV64qgb/zzDY6hqH6R8lai2nQIs8Wow2om9QvG8sgkV1iCN8AHwu4JYAlWqoVTPSf&#xA;NyHUrSzbyrqdjLezS263KWn+jxRwlmWSeX4PTSTqux3OKswxV55J5s1c3l3E/kK5+qQS+kLtgG9V&#xA;pJa1SNYncoVq5b7IOzEdcVZzpN1eXem21ze2hsLuaNXnsmdZDExG6F1+FqeIxVFYq7FXYqxHVPMd&#xA;jZ+ZJ7C/8vXMloyJLJri2/q2o4pU+s7BQvFdl4lidxQfDyVQUPna9s0LR+UbsTesfr9raAPNFbcQ&#xA;IJ+HBA5k6CMGq0NehxVFH8wrgGR18uapcWpDSWk9rF6wmhWKNydiFVy8vBULb8WNdsVTry75iOtJ&#xA;M50rUNM9FuPHUYRAXPN0+ABn5D93WvgRiqb4q7FXYq7FXYq7FXYq7FXYq7FXYq7FXYq7FXYq7FXY&#xA;q7FVC+tBd2ktsXaMSihdOo+/8cVSNPJaCZZn1bUJJEVlTlMSqkn7SrTYgbbYqq23laWG1uLd9Xvb&#xA;lZ4jCWndZCpJYl1qtOXx/gMVROneXYbGaKVbu5maJStJZCytUuasvSvx9fb54qmuKsdn8mpNJOx1&#xA;W+jjm5/uopeCguWq1Kbt8exPgMVdaeUJbaaJ01rUWSErwheYMnFWB4kU3BCgfLFW7ryZBcXctydQ&#xA;vI2lcycI5eCAknbgBxp8X8epOKsgUUUCpNBSp3OKt4qk1/5bN3fPdLqN3bCQUeKCTgpoqgbgcqDj&#xA;UCvUnxxVCf4LKRxRwazqMKxI60SanJnUjm227CtR74qq6n5RW/nEz6ldxMqIn7l1SvpsW5Ehakmt&#xA;K+GKpzZWkdnapbxliiVoWNTuST+JxVWxV2KuxV2KuxV2KuxV2KuxV2KuxV2KuxV2Kv8A/9k=</xmpGImg:image>
               </rdf:li>
            </rdf:Alt>
         </xmp:Thumbnails>
         <xmpTPg:NPages>1</xmpTPg:NPages>
         <xmpTPg:HasVisibleTransparency>True</xmpTPg:HasVisibleTransparency>
         <xmpTPg:HasVisibleOverprint>False</xmpTPg:HasVisibleOverprint>
         <xmpTPg:MaxPageSize rdf:parseType="Resource">
            <stDim:w>2850.000000</stDim:w>
            <stDim:h>1080.000000</stDim:h>
            <stDim:unit>Pixels</stDim:unit>
         </xmpTPg:MaxPageSize>
         <xmpTPg:Fonts>
            <rdf:Bag>
               <rdf:li rdf:parseType="Resource">
                  <stFnt:fontName>TitilliumWeb-Light</stFnt:fontName>
                  <stFnt:fontFamily>Titillium Web</stFnt:fontFamily>
                  <stFnt:fontFace>Light</stFnt:fontFace>
                  <stFnt:fontType>Open Type</stFnt:fontType>
                  <stFnt:versionString>Version 1.001;PS 57.000;hotconv 1.0.70;makeotf.lib2.5.55311</stFnt:versionString>
                  <stFnt:composite>False</stFnt:composite>
                  <stFnt:fontFileName>TitilliumWeb-Light.ttf</stFnt:fontFileName>
               </rdf:li>
               <rdf:li rdf:parseType="Resource">
                  <stFnt:fontName>TitilliumWeb-Regular</stFnt:fontName>
                  <stFnt:fontFamily>Titillium Web</stFnt:fontFamily>
                  <stFnt:fontFace>Regular</stFnt:fontFace>
                  <stFnt:fontType>Open Type</stFnt:fontType>
                  <stFnt:versionString>Version 1.001;PS 57.000;hotconv 1.0.70;makeotf.lib2.5.55311</stFnt:versionString>
                  <stFnt:composite>False</stFnt:composite>
                  <stFnt:fontFileName>TitilliumWeb-Regular.ttf</stFnt:fontFileName>
               </rdf:li>
               <rdf:li rdf:parseType="Resource">
                  <stFnt:fontName>Bariol-Regular</stFnt:fontName>
                  <stFnt:fontFamily>Bariol</stFnt:fontFamily>
                  <stFnt:fontFace>Regular</stFnt:fontFace>
                  <stFnt:fontType>Open Type</stFnt:fontType>
                  <stFnt:versionString>Version 001.001</stFnt:versionString>
                  <stFnt:composite>False</stFnt:composite>
                  <stFnt:fontFileName>Bariol_Regular.otf</stFnt:fontFileName>
               </rdf:li>
               <rdf:li rdf:parseType="Resource">
                  <stFnt:fontName>DaxlinePro-Regular</stFnt:fontName>
                  <stFnt:fontFamily>DaxlinePro Regular</stFnt:fontFamily>
                  <stFnt:fontFace>Regular</stFnt:fontFace>
                  <stFnt:fontType>Unknown</stFnt:fontType>
                  <stFnt:versionString>Version 2.007;PS 002.000;Core 1.0.38;makeotf.lib1.7.9032</stFnt:versionString>
                  <stFnt:composite>False</stFnt:composite>
                  <stFnt:fontFileName>MyriadPro-Regular.otf</stFnt:fontFileName>
               </rdf:li>
            </rdf:Bag>
         </xmpTPg:Fonts>
         <xmpTPg:PlateNames>
            <rdf:Seq>
               <rdf:li>Cyan</rdf:li>
               <rdf:li>Magenta</rdf:li>
               <rdf:li>Yellow</rdf:li>
               <rdf:li>Black</rdf:li>
            </rdf:Seq>
         </xmpTPg:PlateNames>
         <xmpTPg:SwatchGroups>
            <rdf:Seq>
               <rdf:li rdf:parseType="Resource">
                  <xmpG:groupName>Default Swatch Group</xmpG:groupName>
                  <xmpG:groupType>0</xmpG:groupType>
               </rdf:li>
            </rdf:Seq>
         </xmpTPg:SwatchGroups>
         <pdf:Producer>Adobe PDF library 11.00</pdf:Producer>
      </rdf:Description>
   </rdf:RDF>
</x:xmpmeta>
                                                                                                    
                                                                                                    
                                                                                                    
                                                                                                    
                                                                                                    
                                                                                                    
                                                                                                    
                                                                                                    
                                                                                                    
                                                                                                    
                                                                                                    
                                                                                                    
                                                                                                    
                                                                                                    
                                                                                                    
                                                                                                    
                                                                                                    
                                                                                                    
                                                                                                    
                                                                                                    
                           
<?xpacket end="w"?>
	</metadata>
<rect x="2520.445" y="520.69" opacity="0.12" fill="#231F20" width="160.627" height="112.519"/>
<rect x="2359.818" y="520.69" opacity="0.18" fill="#A3D8E8" width="160.627" height="112.519"/>
<rect x="2199.192" y="520.69" opacity="0.12" fill="#231F20" width="160.627" height="112.519"/>
<rect x="2040.067" y="520.69" opacity="0.18" fill="#A3D8E8" width="159.125" height="112.519"/>
<rect x="1880.941" y="520.69" opacity="0.12" fill="#231F20" width="159.125" height="112.519"/>
<rect x="1720.315" y="520.69" opacity="0.18" fill="#A3D8E8" width="160.627" height="112.519"/>
<rect x="1559.688" y="520.69" opacity="0.12" fill="#231F20" width="160.627" height="112.519"/>
<rect x="1387.052" y="520.69" opacity="0.18" fill="#A3D8E8" width="172.636" height="112.519"/>
<rect x="1214.416" y="520.69" opacity="0.12" fill="#231F20" width="172.636" height="112.519"/>
<rect x="1053.79" y="520.69" opacity="0.18" fill="#A3D8E8" width="160.627" height="112.519"/>
<rect x="894.665" y="520.69" opacity="0.12" fill="#231F20" width="159.125" height="112.519"/>
<rect x="734.038" y="520.69" opacity="0.18" fill="#A3D8E8" width="160.627" height="112.519"/>
<rect x="553.896" y="520.69" opacity="0.12" fill="#231F20" width="180.142" height="112.519"/>
<rect x="373.754" y="520.69" opacity="0.18" fill="#A3D8E8" width="180.142" height="112.519"/>
<rect x="193.612" y="520.69" opacity="0.12" fill="#231F20" width="180.142" height="112.519"/>
<rect x="7.647" y="520.69" opacity="0.12" fill="#EDEDED" width="182.083" height="112.519"/>
<rect x="13.47" y="520.69" opacity="0.18" fill="#A3D8E8" width="180.142" height="112.519"/>
<rect x="13.47" y="519.173" opacity="0.36" fill="#FFFFFF"  a:adobe-blending-mode="lighten" width="2666.1" height="55.544"/>
<g>
	<g>
		<text transform="matrix(0.96 0 0 1 1431.1666 597.5381)" fill="#848484" font-family="'TitilliumWeb-Light'" font-size="40">2006</text>
		<text transform="matrix(0.96 0 0 1 1597.7954 597.5381)" fill="#848484" font-family="'TitilliumWeb-Light'" font-size="40">2004</text>
		<text transform="matrix(0.96 0 0 1 1758.4236 597.5381)" fill="#848484" font-family="'TitilliumWeb-Light'" font-size="40">2002</text>
		<text transform="matrix(0.96 0 0 1 1918.2993 597.5381)" fill="#848484" font-family="'TitilliumWeb-Light'" font-size="40">2001</text>
		<text transform="matrix(0.96 0 0 1 2077.4243 597.5381)" fill="#848484" font-family="'TitilliumWeb-Light'" font-size="40">2000</text>
		<text transform="matrix(0.96 0 0 1 2237.2998 597.5381)" fill="#848484" font-family="'TitilliumWeb-Light'" font-size="40">1999</text>
		<text transform="matrix(0.96 0 0 1 2415.3218 597.5381)" fill="#848484" font-family="'TitilliumWeb-Light'" font-size="40">‘95</text>
		<text transform="matrix(0.96 0 0 1 2575.95 597.5381)" fill="#848484" font-family="'TitilliumWeb-Light'" font-size="40">‘90</text>
	</g>
</g>
<g>
	<g>
		<text transform="matrix(0.96 0 0 1 61.3371 597.5381)" fill="#848484" font-family="'TitilliumWeb-Light'" font-size="40">2014</text>
		<text transform="matrix(0.96 0 0 1 241.4786 597.5381)" fill="#848484" font-family="'TitilliumWeb-Light'" font-size="40">2013</text>
		<text transform="matrix(0.96 0 0 1 421.6198 597.5381)" fill="#848484" font-family="'TitilliumWeb-Light'" font-size="40">2012</text>
		<text transform="matrix(0.96 0 0 1 601.7632 597.5381)" fill="#848484" font-family="'TitilliumWeb-Light'" font-size="40">2011</text>
		<text transform="matrix(0.96 0 0 1 772.1448 597.5381)" fill="#848484" font-family="'TitilliumWeb-Light'" font-size="40">2010</text>
		<text transform="matrix(0.96 0 0 1 932.0225 597.5381)" fill="#848484" font-family="'TitilliumWeb-Light'" font-size="40">2009</text>
		<text transform="matrix(0.96 0 0 1 1091.8982 597.5381)" fill="#848484" font-family="'TitilliumWeb-Light'" font-size="40">2008</text>
		<text transform="matrix(0.96 0 0 1 1258.5311 597.5381)" fill="#848484" font-family="'TitilliumWeb-Light'" font-size="40">2007</text>
	</g>
</g>
<g id="TRAINING_2_">
	<text transform="matrix(1 0 0 1 433.1289 984.5189)"><tspan x="0" y="0" fill="#231F20" font-family="'Bariol-Regular'" font-size="41.2825">Motion Graphics</tspan><tspan x="0" y="44.467" fill="#808184" font-family="'TitilliumWeb-Regular'" font-size="36">Certificate . 2011</tspan><tspan x="0" y="84.999" fill="#808184" font-family="'DaxlinePro-Regular'" font-size="33.7766" letter-spacing="397">	</tspan></text>
	<text transform="matrix(1 0 0 1 813.8174 984.5189)"><tspan x="0" y="0" fill="#231F20" font-family="'Bariol-Regular'" font-size="41.2825">NPDP</tspan><tspan x="0" y="44.467" fill="#808184" font-family="'TitilliumWeb-Regular'" font-size="36">Certificate . 2010</tspan></text>
	<text transform="matrix(1 0 0 1 1273.5548 984.5189)"><tspan x="0" y="0" fill="#231F20" font-family="'Bariol-Regular'" font-size="41.2825">Dw, Fl, Fw, Painter</tspan><tspan x="0" y="44.467" fill="#808184" font-family="'TitilliumWeb-Regular'" font-size="36">Certificate . 2007</tspan></text>
	<text transform="matrix(1 0 0 1 772.5353 780.6079)"><tspan x="0" y="0" fill="#231F20" font-family="'Bariol-Regular'" font-size="41.2825">Multimedia Design</tspan><tspan x="0" y="44.467" fill="#808184" font-family="'TitilliumWeb-Regular'" font-size="36">Certificate . 2010</tspan><tspan x="0" y="85.749" fill="#808184" font-family="'DaxlinePro-Regular'" font-size="33.7766" letter-spacing="397">	</tspan></text>
	<text transform="matrix(1 0 0 1 1217.2593 780.6079)"><tspan x="0" y="0" fill="#231F20" font-family="'Bariol-Regular'" font-size="41.2825">Flash Lite Application</tspan><tspan x="0" y="44.467" fill="#808184" font-family="'TitilliumWeb-Regular'" font-size="36">Certificate . 2007</tspan></text>
	<text transform="matrix(1 0 0 1 376.5972 780.6079)"><tspan x="0" y="0" fill="#231F20" font-family="'Bariol-Regular'" font-size="41.2825">3D Characters Design</tspan><tspan x="0" y="44.467" fill="#808184" font-family="'TitilliumWeb-Regular'" font-size="36">Certificate . 2012</tspan><tspan x="0" y="84.999" fill="#808184" font-family="'DaxlinePro-Regular'" font-size="33.7766" letter-spacing="397">	</tspan></text>
</g>
<text transform="matrix(1 0 0 1 80.5055 780.6079)"><tspan x="0" y="0" fill="#231F20" font-family="'Bariol-Regular'" font-size="41.2825">3D Printing/</tspan><tspan x="0" y="49.539" fill="#231F20" font-family="'Bariol-Regular'" font-size="41.2825">Modeling</tspan><tspan x="0" y="148.617" fill="#231F20" font-family="'Bariol-Regular'" font-size="41.2825">Responsive Design</tspan><tspan x="0" y="198.156" fill="#808184" font-family="'TitilliumWeb-Regular'" font-size="36">Online Training</tspan><tspan x="227.083" y="198.156" fill="#231F20" font-family="'Bariol-Regular'" font-size="41.2825" letter-spacing="654">	</tspan></text>
<g>
	<g>
		<path fill="#AAACAA" d="M1533.448,37.827c-0.175,0.008-0.161,0.143-0.188,0.263c-0.41,1.8-1.603,2.855-3.318,3.316
			c-1.373,0.369-2.772,0.647-4.171,0.907c-0.411,0.076-0.437,0.254-0.436,0.58c0.007,3.978,0.003,7.955,0.005,11.933
			c0,0.764-0.135,1.501-0.501,2.173c-0.586,1.073-1.464,1.874-2.505,2.485c-2.537,1.489-5.353,2.044-8.224,2.404
			c-2.838,0.356-5.69,0.431-8.542,0.335c-2.988-0.1-5.965-0.374-8.856-1.194c-2.064-0.585-4.049-1.38-5.51-3.036
			c-0.752-0.853-1.251-1.875-1.249-3.074c0.006-3.993-0.006-7.986,0.013-11.979c0.002-0.422-0.121-0.592-0.527-0.669
			c-1.248-0.236-2.495-0.48-3.731-0.769c-1.261-0.294-2.305-0.916-3.062-2.027c-0.318-0.466-0.441-0.992-0.707-1.464
			c0-0.553,0-1.106,0-1.659c0.425-2.048,1.81-3.165,3.733-3.596c3.725-0.836,7.469-1.586,11.203-2.379
			c2.849-0.605,5.703-1.187,8.545-1.826c0.432-0.097,0.882-0.078,1.307-0.216c0.584,0,1.167,0,1.751,0
			c3.766,0.624,7.472,1.54,11.21,2.3c3.231,0.657,6.45,1.377,9.682,2.029c1.23,0.248,2.288,0.789,3.125,1.719
			c0.459,0.509,0.729,1.131,0.855,1.808c0.022,0.119,0.002,0.247,0.099,0.344C1533.448,36.967,1533.448,37.397,1533.448,37.827z"/>
		<path fill="#AAACAA" d="M1529.485,69.618c-0.406-0.269-0.898-0.342-1.302-0.641c-0.968-0.716-1.294-1.677-1.159-2.818
			c0.099-0.837,0.254-1.684,0.625-2.438c0.418-0.852,0.721-1.784,1.48-2.443c0.818-0.71,1.466-0.75,2.291,0.181
			c1.089,1.23,1.599,2.762,1.853,4.374c0.108,0.101,0.047,0.282,0.174,0.375c0,0.276,0,0.553,0,0.829
			c-0.114,0.092-0.087,0.223-0.095,0.346c-0.219,1.203-1.228,2.102-2.455,2.187c-0.047,0.003-0.088,0.017-0.123,0.047
			C1530.345,69.618,1529.915,69.618,1529.485,69.618z"/>
		<path fill="#FEFEFE" d="M1530.775,69.618c0.43-0.177,0.869-0.312,1.28-0.556c0.686-0.408,1.026-1.01,1.217-1.74
			c0.056-0.062,0.115-0.062,0.175-0.008c0,0.691-0.01,1.382,0.006,2.073c0.005,0.199-0.038,0.24-0.237,0.237
			C1532.403,69.61,1531.589,69.618,1530.775,69.618z"/>
		<path fill="#DEDFDE" d="M1533.448,66.208c-0.25-0.036-0.171-0.224-0.174-0.375c0.058,0.002,0.116,0.004,0.174,0.006
			C1533.448,65.963,1533.448,66.086,1533.448,66.208z"/>
		<path fill="#D3D4D3" d="M1533.448,67.314c-0.058,0.003-0.117,0.005-0.175,0.008c-0.015-0.14-0.017-0.272,0.175-0.284
			C1533.448,67.13,1533.448,67.222,1533.448,67.314z"/>
		<path fill="#AAACAA" d="M1531.789,51.23c0,2.196,0.005,4.392-0.003,6.587c-0.003,0.799-0.545,1.363-1.37,1.473
			c-0.79,0.105-1.616-0.393-1.799-1.102c-0.045-0.175-0.051-0.364-0.051-0.546c-0.003-4.299-0.003-8.599-0.002-12.898
			c0-0.964,0.679-1.662,1.612-1.663c1.004-0.001,1.612,0.62,1.612,1.654C1531.79,46.9,1531.789,49.065,1531.789,51.23z"/>
		<path fill="#FEFEFE" d="M1522.113,49.146c0,1.827-0.011,3.654,0.005,5.481c0.006,0.738-0.355,1.232-0.916,1.645
			c-2.143,1.576-4.651,2.13-7.196,2.558c-2.67,0.449-5.367,0.555-8.067,0.446c-3.114-0.125-6.197-0.498-9.146-1.583
			c-1.239-0.456-2.414-1.044-3.322-2.046c-0.212-0.234-0.293-0.533-0.293-0.851c0.001-3.777,0.004-7.553-0.007-11.33
			c-0.001-0.334,0.102-0.368,0.393-0.304c1.36,0.299,2.723,0.581,4.085,0.867c3.128,0.655,6.256,1.315,9.387,1.957
			c0.896,0.184,1.767-0.075,2.634-0.258c3.382-0.715,6.761-1.444,10.142-2.165c0.643-0.137,1.295-0.237,1.931-0.401
			c0.346-0.089,0.375,0.035,0.374,0.32C1522.109,45.37,1522.113,47.258,1522.113,49.146z"/>
		<path fill="#FEFEFE" d="M1507.795,31.271c0.994,0.212,2.04,0.437,3.087,0.658c3.921,0.829,7.841,1.656,11.762,2.483
			c2.08,0.439,4.161,0.876,6.242,1.31c0.693,0.144,1.309,0.778,1.335,1.39c0.028,0.655-0.571,1.369-1.289,1.521
			c-3.621,0.769-7.242,1.536-10.863,2.303c-2.604,0.551-5.207,1.101-7.811,1.651c-0.733,0.155-1.467,0.305-2.201,0.461
			c-0.581,0.123-1.127-0.088-1.674-0.203c-3.802-0.796-7.6-1.615-11.4-2.423c-2.588-0.551-5.177-1.1-7.767-1.64
			c-0.449-0.094-0.902-0.151-1.32-0.366c-0.511-0.263-0.727-0.694-0.727-1.233c0-0.539,0.212-0.975,0.727-1.232
			c0.741-0.369,1.563-0.42,2.351-0.591c3.871-0.84,7.748-1.656,11.624-2.476c2.484-0.526,4.969-1.045,7.454-1.565
			C1507.459,31.29,1507.598,31.29,1507.795,31.271z"/>
	</g>
	<g>
		<path fill="#AAACAA" d="M2451.105,37.827c-0.176,0.008-0.161,0.143-0.188,0.263c-0.41,1.8-1.603,2.855-3.318,3.316
			c-1.373,0.369-2.772,0.647-4.171,0.907c-0.411,0.076-0.437,0.254-0.436,0.58c0.007,3.978,0.003,7.955,0.005,11.933
			c0,0.764-0.134,1.501-0.501,2.173c-0.586,1.073-1.464,1.874-2.505,2.485c-2.537,1.489-5.353,2.044-8.224,2.404
			c-2.838,0.356-5.69,0.431-8.542,0.335c-2.988-0.1-5.965-0.374-8.856-1.194c-2.064-0.585-4.049-1.38-5.51-3.036
			c-0.752-0.853-1.251-1.875-1.249-3.074c0.006-3.993-0.006-7.986,0.013-11.979c0.002-0.422-0.121-0.592-0.528-0.669
			c-1.248-0.236-2.495-0.48-3.731-0.769c-1.261-0.294-2.305-0.916-3.062-2.027c-0.318-0.466-0.441-0.992-0.707-1.464
			c0-0.553,0-1.106,0-1.659c0.425-2.048,1.81-3.165,3.733-3.596c3.725-0.836,7.469-1.586,11.203-2.379
			c2.849-0.605,5.703-1.187,8.545-1.826c0.432-0.097,0.882-0.078,1.306-0.216c0.583,0,1.167,0,1.751,0
			c3.766,0.624,7.472,1.54,11.21,2.3c3.231,0.657,6.45,1.377,9.682,2.029c1.23,0.248,2.288,0.789,3.125,1.719
			c0.458,0.509,0.729,1.131,0.855,1.808c0.022,0.119,0.002,0.247,0.099,0.344C2451.105,36.967,2451.105,37.397,2451.105,37.827z"/>
		<path fill="#AAACAA" d="M2447.143,69.618c-0.406-0.269-0.898-0.342-1.302-0.641c-0.968-0.716-1.294-1.677-1.159-2.818
			c0.099-0.837,0.254-1.684,0.625-2.438c0.418-0.852,0.721-1.784,1.48-2.443c0.818-0.71,1.466-0.75,2.292,0.181
			c1.089,1.23,1.599,2.762,1.853,4.374c0.108,0.101,0.047,0.282,0.174,0.375c0,0.276,0,0.553,0,0.829
			c-0.114,0.092-0.087,0.223-0.095,0.346c-0.219,1.203-1.228,2.102-2.455,2.187c-0.047,0.003-0.087,0.017-0.123,0.047
			C2448.003,69.618,2447.573,69.618,2447.143,69.618z"/>
		<path fill="#FEFEFE" d="M2448.433,69.618c0.43-0.177,0.869-0.312,1.28-0.556c0.686-0.408,1.026-1.01,1.217-1.74
			c0.056-0.062,0.115-0.062,0.176-0.008c0,0.691-0.01,1.382,0.006,2.073c0.005,0.199-0.038,0.24-0.237,0.237
			C2450.061,69.61,2449.247,69.618,2448.433,69.618z"/>
		<path fill="#DEDFDE" d="M2451.105,66.208c-0.25-0.036-0.171-0.224-0.174-0.375c0.058,0.002,0.116,0.004,0.174,0.006
			C2451.105,65.963,2451.105,66.086,2451.105,66.208z"/>
		<path fill="#D3D4D3" d="M2451.105,67.314c-0.059,0.003-0.117,0.005-0.176,0.008c-0.015-0.14-0.017-0.272,0.176-0.284
			C2451.105,67.13,2451.105,67.222,2451.105,67.314z"/>
		<path fill="#AAACAA" d="M2449.447,51.23c0,2.196,0.005,4.392-0.003,6.587c-0.003,0.799-0.545,1.363-1.37,1.473
			c-0.79,0.105-1.616-0.393-1.799-1.102c-0.045-0.175-0.051-0.364-0.051-0.546c-0.003-4.299-0.003-8.599-0.002-12.898
			c0-0.964,0.679-1.662,1.612-1.663c1.003-0.001,1.612,0.62,1.612,1.654C2449.448,46.9,2449.447,49.065,2449.447,51.23z"/>
		<path fill="#FEFEFE" d="M2439.771,49.146c0,1.827-0.011,3.654,0.005,5.481c0.007,0.738-0.355,1.232-0.916,1.645
			c-2.143,1.576-4.651,2.13-7.196,2.558c-2.67,0.449-5.367,0.555-8.067,0.446c-3.114-0.125-6.197-0.498-9.146-1.583
			c-1.239-0.456-2.414-1.044-3.322-2.046c-0.212-0.234-0.293-0.533-0.293-0.851c0.001-3.777,0.005-7.553-0.006-11.33
			c-0.001-0.334,0.102-0.368,0.393-0.304c1.36,0.299,2.723,0.581,4.085,0.867c3.128,0.655,6.256,1.315,9.387,1.957
			c0.896,0.184,1.767-0.075,2.634-0.258c3.382-0.715,6.761-1.444,10.142-2.165c0.643-0.137,1.295-0.237,1.931-0.401
			c0.346-0.089,0.375,0.035,0.374,0.32C2439.767,45.37,2439.771,47.258,2439.771,49.146z"/>
		<path fill="#FEFEFE" d="M2425.453,31.271c0.993,0.212,2.04,0.437,3.087,0.658c3.92,0.829,7.841,1.656,11.762,2.483
			c2.08,0.439,4.16,0.876,6.242,1.31c0.693,0.144,1.309,0.778,1.335,1.39c0.028,0.655-0.571,1.369-1.289,1.521
			c-3.621,0.769-7.242,1.536-10.863,2.303c-2.603,0.551-5.207,1.101-7.811,1.651c-0.733,0.155-1.468,0.305-2.2,0.461
			c-0.582,0.123-1.127-0.088-1.674-0.203c-3.802-0.796-7.6-1.615-11.4-2.423c-2.588-0.551-5.177-1.1-7.767-1.64
			c-0.449-0.094-0.902-0.151-1.32-0.366c-0.511-0.263-0.727-0.694-0.727-1.233c0-0.539,0.212-0.975,0.727-1.232
			c0.741-0.369,1.563-0.42,2.351-0.591c3.871-0.84,7.748-1.656,11.624-2.476c2.484-0.526,4.969-1.045,7.454-1.565
			C2425.116,31.29,2425.256,31.29,2425.453,31.271z"/>
	</g>
	<text transform="matrix(1 0 0 1 1560.6884 58.5542)"><tspan x="0" y="0" font-family="'Bariol-Regular'" font-size="42">MBA Degree     / </tspan><tspan x="286.352" y="0" font-family="'Bariol-Regular'" font-size="42" letter-spacing="30">	</tspan><tspan x="326.51" y="0" fill="#231F20" font-family="'Bariol-Regular'" font-size="42">MBA Programme </tspan><tspan x="625" y="0" fill="#231F20" font-family="'Bariol-Regular'" font-size="41.2825"> </tspan><tspan x="0" y="48.788" fill="#231F20" font-family="'Bariol-Regular'" font-size="39.7813">The University of Glasgow</tspan><tspan x="0" y="97.577" fill="#808184" font-family="'TitilliumWeb-Regular'" font-size="36">2004                               </tspan><tspan x="326.158" y="97.577" fill="#808184" font-family="'TitilliumWeb-Regular'" font-size="36" letter-spacing="-7">	</tspan><tspan x="326.158" y="97.577" fill="#808184" font-family="'TitilliumWeb-Regular'" font-size="36">2001 - 2000</tspan><tspan x="519.047" y="97.577" fill="#808184" font-family="'DaxlinePro-Regular'" font-size="33.7766" letter-spacing="365">	</tspan></text>
	<text transform="matrix(1 0 0 1 2480.4595 58.5354)"><tspan x="0" y="0" fill="#231F20" font-family="'Bariol-Regular'" font-size="42" letter-spacing="2">Commercial Design</tspan><tspan x="6.416" y="48.788" fill="#231F20" font-family="'Bariol-Regular'" font-size="39.7813">Ming Chuan University</tspan><tspan x="166.503" y="93.255" fill="#808184" font-family="'TitilliumWeb-Regular'" font-size="36">1991 - 1986</tspan><tspan x="-45.696" y="142.044" fill="#808184" font-family="'DaxlinePro-Regular'" font-size="33.7766" letter-spacing="397">	</tspan></text>
	<text transform="matrix(1 0 0 1 2106.1174 327.8033)"><tspan x="0" y="0" font-family="'Bariol-Regular'" font-size="42">Language Programme</tspan><tspan x="372.955" y="0" fill="#231F20" font-family="'Bariol-Regular'" font-size="37.5296">  </tspan><tspan x="0" y="48.788" fill="#231F20" font-family="'Bariol-Regular'" font-size="39.7813">University of Nottingham</tspan><tspan x="0" y="93.255" fill="#808184" font-family="'TitilliumWeb-Regular'" font-size="36">2000 - 1999</tspan><tspan x="192.889" y="93.255" fill="#808184" font-family="'DaxlinePro-Regular'" font-size="33.7766" letter-spacing="199">	</tspan></text>
</g>
<g id="MULTIMEDUA_8_">
	<path fill="#A8A8A8" d="M832.303,911.646c1.681,6.985-4.454,13.116-11.438,11.431c-3.283-0.792-5.975-3.485-6.765-6.769
		c-1.682-6.986,4.454-13.118,11.439-11.432C828.821,905.67,831.512,908.363,832.303,911.646z"/>
	<path fill="#A8A8A8" d="M864.483,916.916h-22.518c-1.624,0-2.939-1.315-2.939-2.939s1.315-2.939,2.939-2.939h22.518
		c1.624,0,2.939,1.315,2.939,2.939S866.107,916.916,864.483,916.916z"/>
</g>
<g id="NPDP_10_">
	<path fill="#A8A8A8" d="M881.091,705.234c1.681,6.985-4.454,13.116-11.438,11.431c-3.283-0.792-5.975-3.485-6.765-6.769
		c-1.682-6.986,4.454-13.118,11.439-11.432C877.609,699.257,880.301,701.95,881.091,705.234z"/>
	<path fill="#A8A8A8" d="M791.02,705.234c1.681,6.985-4.454,13.116-11.438,11.431c-3.283-0.792-5.975-3.485-6.765-6.769
		c-1.682-6.986,4.454-13.118,11.439-11.432C787.538,699.257,790.23,701.95,791.02,705.234z"/>
	<path fill="#A8A8A8" d="M853.225,710.504h-52.542c-1.624,0-2.939-1.315-2.939-2.939s1.315-2.939,2.939-2.939h52.542
		c1.624,0,2.939,1.315,2.939,2.939S854.849,710.504,853.225,710.504z"/>
</g>
<g id="MBA_2001_6_">
	<path fill="#A8A8A8" d="M2097.049,219.545c1.681,6.985-4.454,13.116-11.438,11.431c-3.283-0.792-5.975-3.485-6.765-6.769
		c-1.682-6.986,4.454-13.118,11.439-11.432C2093.567,213.568,2096.259,216.261,2097.049,219.545z"/>
	<path fill="#A8A8A8" d="M2063.553,224.689H1907.18c-1.555,0-2.814-1.26-2.814-2.814s1.26-2.814,2.814-2.814h156.373
		c1.555,0,2.814,1.26,2.814,2.814S2065.107,224.689,2063.553,224.689z"/>
</g>
<g id="MBA_2001_2_">
	<path opacity="0.3" fill="#A8A8A8" d="M2841.679,216.281c4.035,16.765-10.689,31.479-27.452,27.434
		c-7.879-1.901-14.339-8.365-16.236-16.245c-4.038-16.767,10.69-31.484,27.453-27.436
		C2833.323,201.936,2839.782,208.4,2841.679,216.281z"/>
	<path opacity="0.3" fill="#A8A8A8" d="M2680.302,216.281c4.035,16.765-10.689,31.479-27.451,27.434
		c-7.879-1.901-14.339-8.365-16.237-16.245c-4.038-16.767,10.69-31.484,27.453-27.436
		C2671.946,201.936,2678.406,208.4,2680.302,216.281z"/>
	<path fill="#A8A8A8" d="M2828.937,219.543c1.681,6.985-4.454,13.116-11.438,11.431c-3.283-0.792-5.975-3.485-6.765-6.769
		c-1.682-6.986,4.454-13.118,11.439-11.432C2825.455,213.567,2828.146,216.26,2828.937,219.543z"/>
	<path fill="#A8A8A8" d="M2667.56,219.543c1.681,6.985-4.454,13.116-11.438,11.431c-3.283-0.792-5.975-3.485-6.765-6.769
		c-1.682-6.986,4.454-13.118,11.439-11.432C2664.078,213.567,2666.769,216.26,2667.56,219.543z"/>
	<path fill="#A8A8A8" d="M2799.193,224.688h-120.095c-1.555,0-2.814-1.26-2.814-2.814s1.26-2.814,2.814-2.814h120.095
		c1.555,0,2.814,1.26,2.814,2.814S2800.748,224.688,2799.193,224.688z"/>
</g>
<g id="MBA_2004_2_">
	<path opacity="0.2" fill="#8E8E8E" d="M1907.132,216.281c4.035,16.765-10.689,31.479-27.452,27.434
		c-7.879-1.901-14.339-8.365-16.236-16.245c-4.038-16.767,10.69-31.484,27.453-27.436
		C1898.776,201.936,1905.235,208.4,1907.132,216.281z"/>
	<path fill="#8E8E8E" d="M1588.523,219.543c1.681,6.985-4.454,13.116-11.438,11.431c-3.283-0.792-5.975-3.485-6.765-6.769
		c-1.682-6.986,4.454-13.118,11.439-11.432C1585.042,213.567,1587.733,216.26,1588.523,219.543z"/>
	<path opacity="0.24" fill="#8E8E8E" d="M2109.791,216.281c4.035,16.765-10.689,31.479-27.452,27.434
		c-7.879-1.901-14.339-8.365-16.236-16.245c-4.038-16.767,10.69-31.484,27.453-27.436
		C2101.435,201.936,2107.895,208.4,2109.791,216.281z"/>
	<path opacity="0.24" fill="#8E8E8E" d="M1601.266,216.281c4.035,16.765-10.689,31.479-27.452,27.434
		c-7.879-1.901-14.339-8.365-16.237-16.245c-4.038-16.767,10.69-31.484,27.453-27.436
		C1592.91,201.936,1599.369,208.4,1601.266,216.281z"/>
	<path fill="#8E8E8E" d="M1894.389,219.543c1.681,6.985-4.454,13.116-11.438,11.431c-3.283-0.792-5.975-3.485-6.765-6.769
		c-1.682-6.986,4.454-13.118,11.439-11.432C1890.907,213.567,1893.599,216.26,1894.389,219.543z"/>
	<path fill="#8E8E8E" d="M1860.893,224.688h-257.077c-1.555,0-2.814-1.26-2.814-2.814s1.26-2.814,2.814-2.814h257.077
		c1.555,0,2.814,1.26,2.814,2.814S1862.447,224.688,1860.893,224.688z"/>
</g>
<g id="MULTIMEDUA_7_">
	<path fill="#A8A8A8" d="M892.35,911.646c1.681,6.985-4.454,13.116-11.438,11.431c-3.283-0.792-5.975-3.485-6.765-6.769
		c-1.682-6.986,4.454-13.118,11.439-11.432C888.868,905.67,891.56,908.363,892.35,911.646z"/>
</g>
<g id="NPDP_9_">
	<path fill="#A8A8A8" d="M470.142,705.234c1.681,6.985-4.454,13.116-11.438,11.431c-3.283-0.792-5.975-3.485-6.765-6.769
		c-1.682-6.986,4.454-13.118,11.439-11.432C466.661,699.257,469.352,701.95,470.142,705.234z"/>
	<path fill="#A8A8A8" d="M395.083,705.234c1.681,6.985-4.454,13.116-11.438,11.431c-3.283-0.792-5.975-3.485-6.765-6.769
		c-1.682-6.986,4.454-13.118,11.439-11.432C391.602,699.257,394.293,701.95,395.083,705.234z"/>
	<path fill="#A8A8A8" d="M442.276,710.504h-37.53c-1.624,0-2.94-1.315-2.94-2.939s1.316-2.939,2.94-2.939h37.53
		c1.624,0,2.94,1.315,2.94,2.939S443.899,710.504,442.276,710.504z"/>
</g>
<g id="NPDP_8_">
	<path fill="#A8A8A8" d="M675.304,911.646c1.681,6.985-4.454,13.116-11.438,11.431c-3.283-0.792-5.975-3.485-6.765-6.769
		c-1.682-6.986,4.454-13.118,11.439-11.432C671.822,905.669,674.514,908.363,675.304,911.646z"/>
	<path fill="#A8A8A8" d="M570.221,911.646c1.681,6.985-4.454,13.116-11.438,11.431c-3.283-0.792-5.975-3.485-6.765-6.769
		c-1.682-6.986,4.454-13.118,11.439-11.432C566.74,905.669,569.431,908.363,570.221,911.646z"/>
	<path fill="#A8A8A8" d="M647.438,916.916h-67.553c-1.624,0-2.94-1.315-2.94-2.939s1.316-2.939,2.94-2.939h67.553
		c1.624,0,2.939,1.315,2.939,2.939S649.062,916.916,647.438,916.916z"/>
</g>
<g id="MULTIMEDUA_6_">
	<path fill="#A8A8A8" d="M1374.605,911.646c1.681,6.985-4.454,13.116-11.438,11.431c-3.283-0.792-5.974-3.485-6.765-6.769
		c-1.682-6.986,4.454-13.118,11.439-11.432C1371.123,905.67,1373.814,908.363,1374.605,911.646z"/>
	<path fill="#A8A8A8" d="M1292.04,911.646c1.681,6.985-4.454,13.116-11.438,11.431c-3.283-0.792-5.975-3.485-6.765-6.769
		c-1.682-6.986,4.454-13.118,11.439-11.432C1288.558,905.67,1291.249,908.363,1292.04,911.646z"/>
</g>
<g id="NPDP_7_">
	<path fill="#A8A8A8" d="M1310.804,705.234c1.681,6.985-4.454,13.116-11.438,11.431c-3.283-0.792-5.975-3.485-6.765-6.769
		c-1.682-6.986,4.454-13.118,11.439-11.432C1307.323,699.257,1310.014,701.95,1310.804,705.234z"/>
	<path fill="#A8A8A8" d="M1235.745,705.234c1.681,6.985-4.454,13.116-11.438,11.431c-3.283-0.792-5.975-3.485-6.765-6.769
		c-1.682-6.986,4.454-13.118,11.439-11.432C1232.264,699.257,1234.955,701.95,1235.745,705.234z"/>
	<path fill="#A8A8A8" d="M1282.938,710.504h-37.529c-1.624,0-2.939-1.315-2.939-2.939s1.315-2.939,2.939-2.939h37.529
		c1.624,0,2.939,1.315,2.939,2.939S1284.562,710.504,1282.938,710.504z"/>
</g>
<g id="MULTIMEDUA_4_">
	<path fill="#A8A8A8" d="M1374.605,911.646c1.681,6.985-4.454,13.116-11.438,11.431c-3.283-0.792-5.974-3.485-6.765-6.769
		c-1.682-6.986,4.454-13.118,11.439-11.432C1371.123,905.67,1373.814,908.363,1374.605,911.646z"/>
	<path fill="#A8A8A8" d="M1292.04,911.646c1.681,6.985-4.454,13.116-11.438,11.431c-3.283-0.792-5.975-3.485-6.765-6.769
		c-1.682-6.986,4.454-13.118,11.439-11.432C1288.558,905.67,1291.249,908.363,1292.04,911.646z"/>
	<path fill="#A8A8A8" d="M1346.738,916.916h-45.036c-1.624,0-2.939-1.315-2.939-2.939s1.315-2.939,2.939-2.939h45.036
		c1.624,0,2.939,1.315,2.939,2.939S1348.362,916.916,1346.738,916.916z"/>
</g>
<g id="NPDP_2_">
	<path fill="#A8A8A8" d="M320.479,705.234c1.681,6.985-4.454,13.116-11.438,11.431c-3.283-0.792-5.975-3.485-6.765-6.769
		c-1.682-6.986,4.454-13.118,11.439-11.432C316.997,699.257,319.689,701.95,320.479,705.234z"/>
	<path fill="#A8A8A8" d="M98.991,705.234c1.681,6.985-4.454,13.116-11.438,11.431c-3.283-0.792-5.975-3.485-6.765-6.769
		c-1.682-6.986,4.454-13.118,11.439-11.432C95.509,699.257,98.201,701.95,98.991,705.234z"/>
	<path fill="#A8A8A8" d="M286.262,710.504H106.777c-1.624,0-2.94-1.315-2.94-2.939s1.316-2.939,2.94-2.939h179.485
		c1.624,0,2.94,1.315,2.94,2.939S287.886,710.504,286.262,710.504z"/>
</g>
<g id="MBA_2001_1_">
	<path fill="#A8A8A8" d="M2229.653,458.606c1.681,6.985-4.454,13.116-11.438,11.431c-3.283-0.792-5.974-3.485-6.765-6.769
		c-1.682-6.986,4.454-13.118,11.439-11.432C2226.171,452.629,2228.863,455.323,2229.653,458.606z"/>
	<path fill="#A8A8A8" d="M2120.817,458.606c1.681,6.985-4.454,13.116-11.438,11.431c-3.283-0.792-5.974-3.485-6.765-6.769
		c-1.682-6.986,4.454-13.118,11.439-11.432C2117.336,452.629,2120.027,455.323,2120.817,458.606z"/>
	<path fill="#A8A8A8" d="M2199.91,463.751h-67.554c-1.555,0-2.814-1.26-2.814-2.814s1.26-2.814,2.814-2.814h67.554
		c1.555,0,2.814,1.26,2.814,2.814S2201.465,463.751,2199.91,463.751z"/>
</g>
</svg>
