<?xml version="1.0" encoding="utf-8"?>
<!-- Generator: Adobe Illustrator 17.1.0, SVG Export Plug-In . SVG Version: 6.00 Build 0)  -->
<!DOCTYPE svg PUBLIC "-//W3C//DTD SVG 1.1//EN" "http://www.w3.org/Graphics/SVG/1.1/DTD/svg11.dtd">
<svg version="1.1" id="Layer_1" xmlns="http://www.w3.org/2000/svg" xmlns:xlink="http://www.w3.org/1999/xlink" x="0px" y="0px"
	 viewBox="0 0 2850 1080" enable-background="new 0 0 2850 1080" xml:space="preserve">
<metadata><?xpacket begin="﻿" id="W5M0MpCehiHzreSzNTczkc9d"?>
<x:xmpmeta xmlns:x="adobe:ns:meta/" x:xmptk="Adobe XMP Core 5.5-c014 79.151739, 2013/04/03-12:12:15        ">
   <rdf:RDF xmlns:rdf="http://www.w3.org/1999/02/22-rdf-syntax-ns#">
      <rdf:Description rdf:about=""
            xmlns:xmp="http://ns.adobe.com/xap/1.0/"
            xmlns:xmpGImg="http://ns.adobe.com/xap/1.0/g/img/"
            xmlns:xmpTPg="http://ns.adobe.com/xap/1.0/t/pg/"
            xmlns:stDim="http://ns.adobe.com/xap/1.0/sType/Dimensions#"
            xmlns:stFnt="http://ns.adobe.com/xap/1.0/sType/Font#"
            xmlns:xmpG="http://ns.adobe.com/xap/1.0/g/"
            xmlns:dc="http://purl.org/dc/elements/1.1/">
         <xmp:CreatorTool>Adobe Illustrator CC (Macintosh)</xmp:CreatorTool>
         <xmp:CreateDate>2014-11-11T11:49:49+08:00</xmp:CreateDate>
         <xmp:Thumbnails>
            <rdf:Alt>
               <rdf:li rdf:parseType="Resource">
                  <xmpGImg:width>256</xmpGImg:width>
                  <xmpGImg:height>96</xmpGImg:height>
                  <xmpGImg:format>JPEG</xmpGImg:format>
                  <xmpGImg:image>/9j/4AAQSkZJRgABAgEASABIAAD/7QAsUGhvdG9zaG9wIDMuMAA4QklNA+0AAAAAABAASAAAAAEA&#xA;AQBIAAAAAQAB/+4ADkFkb2JlAGTAAAAAAf/bAIQABgQEBAUEBgUFBgkGBQYJCwgGBggLDAoKCwoK&#xA;DBAMDAwMDAwQDA4PEA8ODBMTFBQTExwbGxscHx8fHx8fHx8fHwEHBwcNDA0YEBAYGhURFRofHx8f&#xA;Hx8fHx8fHx8fHx8fHx8fHx8fHx8fHx8fHx8fHx8fHx8fHx8fHx8fHx8fHx8f/8AAEQgAYAEAAwER&#xA;AAIRAQMRAf/EAaIAAAAHAQEBAQEAAAAAAAAAAAQFAwIGAQAHCAkKCwEAAgIDAQEBAQEAAAAAAAAA&#xA;AQACAwQFBgcICQoLEAACAQMDAgQCBgcDBAIGAnMBAgMRBAAFIRIxQVEGE2EicYEUMpGhBxWxQiPB&#xA;UtHhMxZi8CRygvElQzRTkqKyY3PCNUQnk6OzNhdUZHTD0uIIJoMJChgZhJRFRqS0VtNVKBry4/PE&#xA;1OT0ZXWFlaW1xdXl9WZ2hpamtsbW5vY3R1dnd4eXp7fH1+f3OEhYaHiImKi4yNjo+Ck5SVlpeYmZ&#xA;qbnJ2en5KjpKWmp6ipqqusra6voRAAICAQIDBQUEBQYECAMDbQEAAhEDBCESMUEFURNhIgZxgZEy&#xA;obHwFMHR4SNCFVJicvEzJDRDghaSUyWiY7LCB3PSNeJEgxdUkwgJChgZJjZFGidkdFU38qOzwygp&#xA;0+PzhJSktMTU5PRldYWVpbXF1eX1RlZmdoaWprbG1ub2R1dnd4eXp7fH1+f3OEhYaHiImKi4yNjo&#xA;+DlJWWl5iZmpucnZ6fkqOkpaanqKmqq6ytrq+v/aAAwDAQACEQMRAD8A9U4q7FXYq7FXYq7FXYq7&#xA;FXYq7FXYq7FXYq7FXYq7FWPeY9BW48v6rbUkmjns5Yvq9u7QTSECq8ZUEjK7UpyVa+AxV5Pa+V7b&#xA;Sjq86aP5qefULZrHUrSqXUBWUmIPbSPbO00nGyV+UgC/GOf2qYq5dGvlsrywW8/MCGxUQ29mIaxT&#xA;R8b+ZeaXAqPT48aj0Rxh49cVZUfMt1P5b8uNp2ja9q0dlbw6mJL6NfVukS1uBAtxNHyrMZkjkbgh&#xA;6qaGtMVST8xb/wAv69JZpr+i+arXUJZksraLSIm4SFP33NfUVFlUK+5ZKr8XEVBOKU/8u/lnpN5p&#xA;1vqUN55j0vUBE1tHcXVwtveiETNIyyRxD06O7E/EtadKYqm9h+W0sMFut35p126uIUhWWQXskaSS&#xA;QqV9TgORHPlVlLEGgrihOvL/AJXXRZZXXVdS1BZIo4hFqFy1yqemzuXXkOXN/VoxJ6BRsBiqdYqt&#xA;mjEsTRk0DClRirFvO2jh/K16Pqs2oGN4riHT7NIi8jxstFVJ0uIm/m+NSKiu1KhV5zJcMgvtIil8&#xA;5y+YPQW59Ce+mRDHzjTlHJDFLIq1PVbfqGFKVxS2trLeWkGhTD8wluxb8zeytRFlf97we8EZXkvH&#xA;0uQT7LH3oqiRaoVlKaf5y0762IlkfTlRNhCtmlaxxSEKlwJfjWqsh2CoKqsk/LsiPXr6ykl16W5t&#xA;oGlUapzS1W3uLl/RRYmZh6qekyKwH2BtsaYoeh4q7FXYq7FXYq7FXYq7FXYq7FXYq7FXYq7FXYq7&#xA;FXYqp3SSPbTJG4jkZGCSGtFJFAdip29jiqT6TpOvW1yst1rH1y3B/u2iALLRv2gwFeTA1A9qdMVT&#xA;zFXYqk2t6ZrF9PG2naobFI1Kyoq8+RJ2rvt9G/4Yq1NpGutpkdqurt9ZViXvPTCu1Wc9FIWlGVen&#xA;QbUNCFVTQ9P1ezkn/SWp/X2loYl9MR8KVrQVbY9fbp2xVNsVdirsVdirsVS3XNHg1S3jhluZrXi4&#xA;ZZLeQxse1K4qpWPluK0sGshe3UqPu0jy1aoCDY02H7rp03OKqHl/yrFpF3JOupXd4zR+mYrmQOq1&#xA;KmoAA4n4afKnhiqfYq7FXYq7FXYq7FXYq7FXYq7FXYq7FXYq7FXYq7FXYqsmiWWJ4mrxcEGhod/A&#xA;jFUDDoGnRQxxBZGWNQqkyyVoNh0bFV/6F07+R/8AkbL/AM1Yq79C6d/I/wDyNl/5qxVbHoWnpNJK&#xA;A5aQKGrJJ0QUFPixVV/RVl/K3/IyT/mrFVKXT9Mtpo72WT0RD8CtJIQlZGAAPM0qWoBiqYYqpXN5&#xA;aWqo1zPHAsjrFG0rKgaRzREXkRVmOwHfFVXFXYq7FUPe2EF4qCXl+7YMvEkbjxpiqz9FWX8rf8jJ&#xA;P+asVbttMtra4kni5cpAFIZiwoPCpOKorFXYq7FXYq7FXYq7FXYq7FXYq7FXYq7FXYq7FXYq7FXY&#xA;q7FXYq7FXYq7FUm84xQS+Wr5Lixm1KHipks7Z5Y5nAdT+7aD96GWnIcN9tsVePS6D+X4ISf8u/NC&#xA;xRxz2TWlrFcNE6xxW8jTer60cvxC3SONuY50pStRiqP0byv+X2lxNaaf5L1jUbmS9is7lZzLIkBZ&#xA;pLxTI7yfClutyzK7LzqU3JoQqlNj+Xf5czprOp6j5A8w+vdXPq3OlSPcvGGiSrNbOskRdJQ+6sxU&#xA;kcdgBRVNvL9t+W8eo6TrWl/l5rMU0s63un6hbQyskYNvGolmPrhR8M7Jw+IVRjvscVe14q7FXYq7&#xA;FXYq7FXYq7FXYq7FXYq7FXYq7FXYq7FXYq7FXYq7FXYq7FXYq7FXYq7FXYqhNXgFxp81uTIBNSPl&#xA;CAZByYCor0p1r264qkOl6ALC6E63OpyBVI4yMjL2JNBUmvGn3eGKqsPk6BryLUPr9+hDpMLdpjxF&#xA;OB4MN6/Yo3jX2FFWSYq7FXYq7FXYq7FXYqhpbxIhWV0jXsWNBsK9z4DDTG21ug9eBVqdaGven6xj&#xA;S2hZdWEVPVeOOvTkeNadepwMnJqvqFhG0blftBTWlelaHFUVJeRRFRLIkZb7IYgV6Dap98NMbct2&#xA;kiM0TpIF6lTUVpXscaW0K+rCNgsjRox6BjQnenc+JwMl0epNJTgUYVAJXfrv44qrtf26Sem80ayf&#xA;yFgG336Vw0xtp72sSyxFXRjswNQfkQcUgoQa7ATQTQk1pTkOv34EotL2kTSylURTuxNAPmScKCXR&#xA;6hbysFimjdj0CsCdqHsffGkWoTap6J/eNGgqaFjTpv3OBk1Hqwlr6TxycftcTWnzofbFUTLewxEC&#xA;WRIyRUBmA2rTufE4aY24XqPE0kLpIB3U8h0B7HwONLaEbWY0f03kiVxsVLAHenavvgZIm3vHlP7J&#xA;WlQR/t4oJcupWjU4zxNXYUdTUmnv/lDDSLW3N+YT8RRV23bbc7DvgSFKPVhJtG8b9/hNfA9j7jFK&#xA;Ja9ij4+rIiFhUBiBXoNqnxOGmNtC9R4mkhdJANqqeQrsex98aUFCvrMaNxeSJW6UZgD28T74GSJt&#xA;r1phyHEqQCrL0IP04Qglcl7C7mNJEaRSQyBgSCvXYHtXGkWpz37xM1eIRRUs2wApUkmuBIU49VMo&#xA;rG0bgdSpr1Fex8MUq8l8saqZWRAxCqWNKk9hU5KmHEV8Nz6vEqVZGFQy7gildjiQkSV8iySzUdEh&#xA;1CIRXNTGGLAKzLuVK709myVsOErbDy/Z6e0rWkYiM1PUHJyDRmboxIG7nG14Sg9Q8qpfoiXXF1jP&#xA;JQGZd6UrsMizbs/KyWbSG2CJ6oUMOTEUWtAKjb7RxVF6n5es9TEYvE9RYiSi8mAqaVO3sKff45K2&#xA;HCV9polvZRSx2qhFloSKkioQIKV7UXG14SgL3yol7JHJccWMYogDuBuwY7Af5ORZqtl5dFkvC3CI&#xA;lVJALH7Kqg6j+VBipX3nlbTby8+t3MfqT0Cgl2AAHQUH3/PJWw4Sqx6IltYxWdoAkMJ+BWZjQbnq&#xA;anvgJSAkr/l7pjyeo8as5f1CTJJuxIJP00wMk7Oj+rZy2twQ0U1Q4UkVUgbVoMILEhB6f5L0bT7x&#xA;Ly1h4TxqVRjI7UDChFCSO5w2EUW9R8si/AW4IKKxZQGZdyCvYeByLMLNP8qRafF6doqIvELuzseK&#xA;klRVq7DkcVRWqeWrDVABeoZFCMnEO6jixBb7NOvHJWw4S3ZeX7awtJLeyXgkjc2DMzfFQAnev8uN&#xA;popbe+SLO9uDcXKh5T35uNqAUFO22RZJnpmi/UIlhi4rCi8UXkzUFa9W3wgoItBR+RtES4S4WE+s&#xA;jrIH9R92U8qtvvvWtfE4bCKKL1HRGvQUcr6ZKkirCvAhhWg6VGApApAad5MtdPcvaqqOQw5F3Y0c&#xA;hm616la4Epje+X7W+9E3QLmEUUB2UblSagUr9jJWw4SssfLlpp1nJbWK+mkjF25MzVY9TU164LTR&#xA;S698iafeXH1i4ijeUtzLcnHxUUV2Hgg/zJwMk103RzYwpBHxEUaLHGoJNFUUG5GEFjIWti8uWEOq&#xA;S6pHGFvZhSSUE7ghRT5fB08d8No4SvuNLmlkc1Ti21CT4U8MBZAIDTfKUOmxtHZqkaNTkOTHoKdx&#xA;9OBKYX+i29/bpBdLzjR1kADEfEm46ZK2HCVew0+Oyght4RxhhUIi1JooFAN8SUgbovIskPqFwlvZ&#xA;TTvcRWiRrya5noI0A6s1Sop9OKoGPU1mdUh1awkZwzIqryJCP6bEUn34ueJ99sVV5JbyKOSWS+tU&#xA;jh/vXaJgqbA/ETNt174qi4VuAX9Z1erVj4qVotAKGpau9TiqRf4l036s0n+ItL4q4tmm5JxFw4PC&#xA;Ovr05HiaL1NMVZArBlDKQwIqGHQg9xiqlcXtnbNCtxPHC1w4it1kdUMkhBIRKkcmoOgxVVV0YsFY&#xA;MUPFgDWhpWh+g4ql91qEcVxKn6StIDGAWhlALIFHJi37xD0ZT8vniqtHO0UUtxd3UJt1H94o9NF4&#xA;khyzM7jr92Kqkd/YSXP1WO5ie5EYm9BXUyekxosnEGvEnoemKqyOjoHRgyMKqymoI9iMVbxVKo9U&#xA;jlFxJDqtk8Nq7C4IAb0gGK8ZGEoCkcSDUdQcVRttdwGEhrmKWSAUuXQgAMlQ5IqeNGU9emKrmvrJ&#xA;Y4ZWuIxHclVt3LqFkZxVAhr8RbtTriqqHQuUDAuoBZa7gGtKj3pireKuxV2KuxV2KuxV2KuxV2Ku&#xA;xV2KuxV2KuxV2KpR5us7m+8t6hZW1nHqEl1F6JspZGhjlSQhZEaRCrKChO4/Hpiry6Dy35qvIZLT&#xA;UPy4tbcDlbtcnVBcB0k9R5JEpKkwjJUJ6ZNfiU9E44pT/Q/IGiaxdLe6h5euPLt9pF9DPGsd00qX&#xA;LpGJm5Mw/eRepPIjU+3vXrQKvScUPMbfygbWG7Wz8qSLJPMtxLI+pXH7yaXkZQoMzFYx60nMcgr/&#xA;AMu+yrWlflz5aN1bJL5LexgtVuRbyi/lkVfrIrKrR+ooZXLEUOwpt2xW2rL8s9BubWGxvfKn1eym&#xA;WG1nUXtzUQQRyCMMVm5UX1W7mpO+4DBW2TaT+WXlHStbOsWdtIlzyMkSNLI6RyM0rvIvIluTm5et&#xA;WI32AxVLvNXk/S9R1172bywmp3DiL/TvrD27/uSsigujV4h4l+ClCRv1xVj91+W2gyXFldS+QxLd&#xA;2ziRZYr+SDgUSPhVUlYPSnAKSQKHscVtEeY/yt8v3kv1RPKn16wQ8056hdQfFI5lkqFmo3xTN1+X&#xA;RVqrbLfJvkjQ/L8bXdnavBf3YdrkyStIwEsrTmLrx4o8jcdqgd8VZNirzPXvImmajLPbzeTkvIIx&#xA;OY3+uSQRvzuTOFMayDmZJEV2ZqUqQdq1VcvkrTb69tjqXk6QNGWU3g1CVjH60bRymMeoGCsOqhty&#xA;a9d8VtCRfltaDVJ0/wAOyPZ3HK35y3sgRIVEcClQsnqfFFAo3YkUqNzitso0z8pPy90z0PqOkiI2&#xA;7mWI+vcufUMiy82LyNzbnGpq1TtirL8VdirsVdirsVdirsVdirsVdirsVdirsVdirsVdirGvNPnC&#xA;90C5AXy/qOr2Yg9aSbTYvXlEjSrEsSxfDyNGLseWyjFUC35mRtBHNa+W9cuklZUjeKzqnxyvEHLB&#xA;/sAx8mK1opDUpiqyT8yrsW/1hfKWu8Iy3rwNaH16LbidfRRDIkhblw+J1+Ko67YqqeWPzOs9f8wz&#xA;6FHomrWVzbxJNPNeWvpxRCWFJUSVuRKSHmV406qd+mKsxdiqMwUuVBIUUqadhWgxVDfXLnYGxmrt&#xA;UhoafjIMVV4JJJIg8kZhYk/u2IJABIH2SRuN8VdNI6RlkjMrVACKQDuQK/EQNuuKqcNxPJKVe2kh&#xA;QLXm5jO9acaIzfPFVfFXYq7FVK6llihLxQmd6qBGpCncgE1YgbdcVUTe3XJFFjMOThWZmiAVTWrf&#xA;C7HbFUXirsVdirsVdirsVdirsVdirsVdirsVdirsVdirsVdirsVSjW/Lq6rLFIb66szEpX/RXCV5&#xA;Ajeobx3Heg8MVQP+CV+qm3bWNRcqUME7Tj1YuCsvwNx6NyqfkMVbh8n3UFzBcRa7fs8ckbTRzSB4&#xA;5I43LNHwURheVafwxVkM0SzQyRMSFkUoxGxowptiryL/AA1Yw2LwWD+bYPREBUW904CvyDfA7qzN&#xA;IUokjFTxVSoIHVW0UfK+laxqNs8V75p0/VLexayh1cv6chjDiWksvBy7MQOop/sqnFbVPLnlQvNa&#xA;S/X/ADNHcP6S3dy9yI0leMQOZZVKV+L6sFP+TI/djRW2beddJs9U8vzWl2tw0JeIkWjmOWvqAAhl&#xA;DEBa1bbpirBdJ0ny3puqWOp2+j666JIzwiZaLHIA/wC9ZVox5mdqKz8evFcVtm6ebklsJruPTb4N&#xA;C0a/V5YWSRxIR9gDlWnLfFUXpetyX1wYXsZ7UCISiSVaKamnGvj3H8MVTTFUi87aTbap5emtLj1/&#xA;TMkLf6LxElRKtD8aSig6k8agbjfFXnyaNbE200i+Y7llVoLS/vkaa4jhPH1Fk5H4/VqeLGhFNq/t&#xA;K2ioPLmmPozm3l8wx2tjIBptrI8i3Vs8kTQA2rkSfCkc/wAIYbEVqcVtN/KWgmbUo7sXnmCGGxEi&#xA;rbXt0fq0vOb1BWIKvILSib/Z+E7UxVnuKuxV2KuxV2KuxV2KuxV2KuxV2KuxV2KuxV2KuxV2KuxV&#xA;2KuxV2KuxV2KuxV2KuxV2KuxV2KuxV2KuxV2KuxV2KuxV2KuxV2KuxV2KuxV2KuxV2KuxV2Kv//Z</xmpGImg:image>
               </rdf:li>
            </rdf:Alt>
         </xmp:Thumbnails>
         <xmpTPg:MaxPageSize rdf:parseType="Resource">
            <stDim:w>1005.416667</stDim:w>
            <stDim:h>381.000000</stDim:h>
            <stDim:unit>Millimeters</stDim:unit>
         </xmpTPg:MaxPageSize>
         <xmpTPg:NPages>1</xmpTPg:NPages>
         <xmpTPg:HasVisibleTransparency>True</xmpTPg:HasVisibleTransparency>
         <xmpTPg:HasVisibleOverprint>False</xmpTPg:HasVisibleOverprint>
         <xmpTPg:Fonts>
            <rdf:Bag>
               <rdf:li rdf:parseType="Resource">
                  <stFnt:fontName>TitilliumWeb-Light</stFnt:fontName>
                  <stFnt:fontFamily>Titillium Web</stFnt:fontFamily>
                  <stFnt:fontFace>Light</stFnt:fontFace>
                  <stFnt:fontType>Open Type</stFnt:fontType>
                  <stFnt:versionString>Version 1.001;PS 57.000;hotconv 1.0.70;makeotf.lib2.5.55311</stFnt:versionString>
                  <stFnt:composite>False</stFnt:composite>
                  <stFnt:fontFileName>TitilliumWeb-Light.ttf</stFnt:fontFileName>
               </rdf:li>
               <rdf:li rdf:parseType="Resource">
                  <stFnt:fontName>TitilliumWeb-Regular</stFnt:fontName>
                  <stFnt:fontFamily>Titillium Web</stFnt:fontFamily>
                  <stFnt:fontFace>Regular</stFnt:fontFace>
                  <stFnt:fontType>Open Type</stFnt:fontType>
                  <stFnt:versionString>Version 1.001;PS 57.000;hotconv 1.0.70;makeotf.lib2.5.55311</stFnt:versionString>
                  <stFnt:composite>False</stFnt:composite>
                  <stFnt:fontFileName>TitilliumWeb-Regular.ttf</stFnt:fontFileName>
               </rdf:li>
               <rdf:li rdf:parseType="Resource">
                  <stFnt:fontName>.LucidaGrandeUI</stFnt:fontName>
                  <stFnt:fontFamily>System Font</stFnt:fontFamily>
                  <stFnt:fontFace>Regular</stFnt:fontFace>
                  <stFnt:fontType>TrueType</stFnt:fontType>
                  <stFnt:versionString>9.0d11e0</stFnt:versionString>
                  <stFnt:composite>False</stFnt:composite>
                  <stFnt:fontFileName>LucidaGrande.ttc</stFnt:fontFileName>
               </rdf:li>
               <rdf:li rdf:parseType="Resource">
                  <stFnt:fontName>Bariol-Regular</stFnt:fontName>
                  <stFnt:fontFamily>Bariol</stFnt:fontFamily>
                  <stFnt:fontFace>Regular</stFnt:fontFace>
                  <stFnt:fontType>Open Type</stFnt:fontType>
                  <stFnt:versionString>Version 001.001</stFnt:versionString>
                  <stFnt:composite>False</stFnt:composite>
                  <stFnt:fontFileName>Bariol_Regular.otf</stFnt:fontFileName>
               </rdf:li>
               <rdf:li rdf:parseType="Resource">
                  <stFnt:fontName>DaxlinePro-Regular</stFnt:fontName>
                  <stFnt:fontFamily>DaxlinePro Regular</stFnt:fontFamily>
                  <stFnt:fontFace>Regular</stFnt:fontFace>
                  <stFnt:fontType>Unknown</stFnt:fontType>
                  <stFnt:versionString>Version 2.007;PS 002.000;Core 1.0.38;makeotf.lib1.7.9032</stFnt:versionString>
                  <stFnt:composite>False</stFnt:composite>
                  <stFnt:fontFileName>MyriadPro-Regular.otf</stFnt:fontFileName>
               </rdf:li>
            </rdf:Bag>
         </xmpTPg:Fonts>
         <xmpTPg:PlateNames>
            <rdf:Seq>
               <rdf:li>Cyan</rdf:li>
               <rdf:li>Magenta</rdf:li>
               <rdf:li>Yellow</rdf:li>
               <rdf:li>Black</rdf:li>
            </rdf:Seq>
         </xmpTPg:PlateNames>
         <xmpTPg:SwatchGroups>
            <rdf:Seq>
               <rdf:li rdf:parseType="Resource">
                  <xmpG:groupName>Default Swatch Group</xmpG:groupName>
                  <xmpG:groupType>0</xmpG:groupType>
               </rdf:li>
            </rdf:Seq>
         </xmpTPg:SwatchGroups>
         <dc:format>image/svg+xml</dc:format>
      </rdf:Description>
   </rdf:RDF>
</x:xmpmeta>
                                                                                                    
                                                                                                    
                                                                                                    
                                                                                                    
                                                                                                    
                                                                                                    
                                                                                                    
                                                                                                    
                                                                                                    
                                                                                                    
                                                                                                    
                                                                                                    
                                                                                                    
                                                                                                    
                                                                                                    
                                                                                                    
                                                                                                    
                                                                                                    
                                                                                                    
                                                                                                    
                           
<?xpacket end="w"?>
	</metadata>
<g>
	<rect x="2520.8" y="520.3" opacity="0.12" fill="#231F20" enable-background="new    " width="160.6" height="112.5"/>
	<rect x="2360.2" y="520.3" opacity="0.18" fill="#A3D8E8" enable-background="new    " width="160.6" height="112.5"/>
	<rect x="2199.5" y="520.3" opacity="0.12" fill="#231F20" enable-background="new    " width="160.6" height="112.5"/>
	<rect x="2040.4" y="520.3" opacity="0.18" fill="#A3D8E8" enable-background="new    " width="159.1" height="112.5"/>
	<rect x="1881.3" y="520.3" opacity="0.12" fill="#231F20" enable-background="new    " width="159.1" height="112.5"/>
	<rect x="1720.7" y="520.3" opacity="0.18" fill="#A3D8E8" enable-background="new    " width="160.6" height="112.5"/>
	<rect x="1560" y="520.3" opacity="0.12" fill="#231F20" enable-background="new    " width="160.6" height="112.5"/>
	<rect x="1387.4" y="520.3" opacity="0.18" fill="#A3D8E8" enable-background="new    " width="172.6" height="112.5"/>
	<rect x="1214.8" y="520.3" opacity="0.12" fill="#231F20" enable-background="new    " width="172.6" height="112.5"/>
	<rect x="1054.1" y="520.3" opacity="0.18" fill="#A3D8E8" enable-background="new    " width="160.6" height="112.5"/>
	<rect x="895" y="520.3" opacity="0.12" fill="#231F20" enable-background="new    " width="159.1" height="112.5"/>
	<rect x="734.4" y="520.3" opacity="0.18" fill="#A3D8E8" enable-background="new    " width="160.6" height="112.5"/>
	<rect x="554.2" y="520.3" opacity="0.12" fill="#231F20" enable-background="new    " width="180.1" height="112.5"/>
	<rect x="374.1" y="520.3" opacity="0.18" fill="#A3D8E8" enable-background="new    " width="180.1" height="112.5"/>
	<rect x="194" y="520.3" opacity="0.12" fill="#231F20" enable-background="new    " width="180.1" height="112.5"/>
	<rect x="8" y="520.3" opacity="0.12" fill="#EDEDED" enable-background="new    " width="182.1" height="112.5"/>
	<rect x="13.8" y="520.3" opacity="0.18" fill="#A3D8E8" enable-background="new    " width="180.1" height="112.5"/>
	<rect x="13.8" y="518.8" opacity="0.36" fill="#FFFFFF" enable-background="new    " width="2827.2" height="55.5"/>
	<g>
		<g>
			<text transform="matrix(0.96 0 0 1 1431.5192 597.1357)" fill="#848484" font-family="'TitilliumWeb-Light'" font-size="40">2006</text>
			<text transform="matrix(0.96 0 0 1 1598.1481 597.1357)" fill="#848484" font-family="'TitilliumWeb-Light'" font-size="40">2004</text>
			<text transform="matrix(0.96 0 0 1 1758.7769 597.1357)" fill="#848484" font-family="'TitilliumWeb-Light'" font-size="40">2002</text>
			<text transform="matrix(0.96 0 0 1 1918.6517 597.1357)" fill="#848484" font-family="'TitilliumWeb-Light'" font-size="40">2001</text>
			<text transform="matrix(0.96 0 0 1 2077.7769 597.1357)" fill="#848484" font-family="'TitilliumWeb-Light'" font-size="40">2000</text>
			<text transform="matrix(0.96 0 0 1 2237.6528 597.1357)" fill="#848484" font-family="'TitilliumWeb-Light'" font-size="40">1999</text>
			<text transform="matrix(0.96 0 0 1 2415.6743 597.1357)" fill="#848484" font-family="'TitilliumWeb-Light'" font-size="40">‘95</text>
			<text transform="matrix(0.96 0 0 1 2576.3022 597.1357)" fill="#848484" font-family="'TitilliumWeb-Light'" font-size="40">‘90</text>
		</g>
	</g>
	<g>
		<g>
			<text transform="matrix(0.96 0 0 1 61.6899 597.1357)" fill="#848484" font-family="'TitilliumWeb-Light'" font-size="40">2014</text>
			<text transform="matrix(0.96 0 0 1 241.8315 597.1357)" fill="#848484" font-family="'TitilliumWeb-Light'" font-size="40">2013</text>
			<text transform="matrix(0.96 0 0 1 421.972 597.1357)" fill="#848484" font-family="'TitilliumWeb-Light'" font-size="40">2012</text>
			<text transform="matrix(0.96 0 0 1 602.1156 597.1357)" fill="#848484" font-family="'TitilliumWeb-Light'" font-size="40">2011</text>
			<text transform="matrix(0.96 0 0 1 772.4976 597.1357)" fill="#848484" font-family="'TitilliumWeb-Light'" font-size="40">2010</text>
			<text transform="matrix(0.96 0 0 1 932.3755 597.1357)" fill="#848484" font-family="'TitilliumWeb-Light'" font-size="40">2009</text>
			<text transform="matrix(0.96 0 0 1 1092.2513 597.1357)" fill="#848484" font-family="'TitilliumWeb-Light'" font-size="40">2008</text>
			<text transform="matrix(0.96 0 0 1 1258.8843 597.1357)" fill="#848484" font-family="'TitilliumWeb-Light'" font-size="40">2007</text>
		</g>
	</g>
	<g id="TRAINING_1_">
		
			<text transform="matrix(1 0 0 1 433.4819 1069.1156)" fill="#808184" font-family="'.LucidaGrandeUI'" font-size="33.7766" letter-spacing="396"> </text>
		
			<text transform="matrix(1 0 0 1 772.8883 865.9546)" fill="#808184" font-family="'.LucidaGrandeUI'" font-size="33.7766" letter-spacing="396"> </text>
		
			<text transform="matrix(1 0 0 1 376.9502 865.2046)" fill="#808184" font-family="'.LucidaGrandeUI'" font-size="33.7766" letter-spacing="396"> </text>
	</g>
	<g>
		<g>
			<path fill="#AAACAA" d="M1533.8,37.4c-0.2,0-0.2,0.1-0.2,0.3c-0.4,1.8-1.6,2.9-3.3,3.3c-1.4,0.4-2.8,0.6-4.2,0.9
				c-0.4,0.1-0.4,0.3-0.4,0.6c0,4,0,8,0,11.9c0,0.8-0.1,1.5-0.5,2.2c-0.6,1.1-1.5,1.9-2.5,2.5c-2.5,1.5-5.4,2-8.2,2.4
				c-2.8,0.4-5.7,0.4-8.5,0.3c-3-0.1-6-0.4-8.9-1.2c-2.1-0.6-4-1.4-5.5-3c-0.8-0.9-1.3-1.9-1.2-3.1c0-4,0-8,0-12
				c0-0.4-0.1-0.6-0.5-0.7c-1.2-0.2-2.5-0.5-3.7-0.8c-1.3-0.3-2.3-0.9-3.1-2c-0.3-0.5-0.4-1-0.7-1.5c0-0.6,0-1.1,0-1.7
				c0.4-2,1.8-3.2,3.7-3.6c3.7-0.8,7.5-1.6,11.2-2.4c2.8-0.6,5.7-1.2,8.5-1.8c0.4-0.1,0.9-0.1,1.3-0.2c0.6,0,1.2,0,1.8,0
				c3.8,0.6,7.5,1.5,11.2,2.3c3.2,0.7,6.4,1.4,9.7,2c1.2,0.2,2.3,0.8,3.1,1.7c0.5,0.5,0.7,1.1,0.9,1.8c0,0.1,0,0.2,0.1,0.3
				C1533.8,36.6,1533.8,37,1533.8,37.4z"/>
			<path fill="#AAACAA" d="M1529.8,69.2c-0.4-0.3-0.9-0.3-1.3-0.6c-1-0.7-1.3-1.7-1.2-2.8c0.1-0.8,0.3-1.7,0.6-2.4
				c0.4-0.9,0.7-1.8,1.5-2.4c0.8-0.7,1.5-0.8,2.3,0.2c1.1,1.2,1.6,2.8,1.9,4.4c0.1,0.1,0,0.3,0.2,0.4c0,0.3,0,0.6,0,0.8
				c-0.1,0.1-0.1,0.2-0.1,0.3c-0.2,1.2-1.2,2.1-2.5,2.2c0,0-0.1,0-0.1,0C1530.7,69.2,1530.3,69.2,1529.8,69.2z"/>
			<path fill="#FEFEFE" d="M1531.1,69.2c0.4-0.2,0.9-0.3,1.3-0.6c0.7-0.4,1-1,1.2-1.7c0.1-0.1,0.1-0.1,0.2,0c0,0.7,0,1.4,0,2.1
				c0,0.2,0,0.2-0.2,0.2C1532.8,69.2,1531.9,69.2,1531.1,69.2z"/>
			<path fill="#DEDFDE" d="M1533.8,65.8c-0.2,0-0.2-0.2-0.2-0.4c0.1,0,0.1,0,0.2,0C1533.8,65.6,1533.8,65.7,1533.8,65.8z"/>
			<path fill="#D3D4D3" d="M1533.8,66.9c-0.1,0-0.1,0-0.2,0c0-0.1,0-0.3,0.2-0.3C1533.8,66.7,1533.8,66.8,1533.8,66.9z"/>
			<path fill="#AAACAA" d="M1532.1,50.8c0,2.2,0,4.4,0,6.6c0,0.8-0.5,1.4-1.4,1.5c-0.8,0.1-1.6-0.4-1.8-1.1c0-0.2-0.1-0.4-0.1-0.5
				c0-4.3,0-8.6,0-12.9c0-1,0.7-1.7,1.6-1.7c1,0,1.6,0.6,1.6,1.7C1532.1,46.5,1532.1,48.7,1532.1,50.8z"/>
			<path fill="#FEFEFE" d="M1522.5,48.7c0,1.8,0,3.7,0,5.5c0,0.7-0.4,1.2-0.9,1.6c-2.1,1.6-4.7,2.1-7.2,2.6
				c-2.7,0.4-5.4,0.6-8.1,0.4c-3.1-0.1-6.2-0.5-9.1-1.6c-1.2-0.5-2.4-1-3.3-2c-0.2-0.2-0.3-0.5-0.3-0.9c0-3.8,0-7.6,0-11.3
				c0-0.3,0.1-0.4,0.4-0.3c1.4,0.3,2.7,0.6,4.1,0.9c3.1,0.7,6.3,1.3,9.4,2c0.9,0.2,1.8-0.1,2.6-0.3c3.4-0.7,6.8-1.4,10.1-2.2
				c0.6-0.1,1.3-0.2,1.9-0.4c0.3-0.1,0.4,0,0.4,0.3C1522.5,45,1522.5,46.9,1522.5,48.7z"/>
			<path fill="#FEFEFE" d="M1508.1,30.9c1,0.2,2,0.4,3.1,0.7c3.9,0.8,7.8,1.7,11.8,2.5c2.1,0.4,4.2,0.9,6.2,1.3
				c0.7,0.1,1.3,0.8,1.3,1.4c0,0.7-0.6,1.4-1.3,1.5c-3.6,0.8-7.2,1.5-10.9,2.3c-2.6,0.6-5.2,1.1-7.8,1.7c-0.7,0.2-1.5,0.3-2.2,0.5
				c-0.6,0.1-1.1-0.1-1.7-0.2c-3.8-0.8-7.6-1.6-11.4-2.4c-2.6-0.6-5.2-1.1-7.8-1.6c-0.4-0.1-0.9-0.2-1.3-0.4
				c-0.5-0.3-0.7-0.7-0.7-1.2s0.2-1,0.7-1.2c0.7-0.4,1.6-0.4,2.4-0.6c3.9-0.8,7.7-1.7,11.6-2.5c2.5-0.5,5-1,7.5-1.6
				C1507.8,30.9,1508,30.9,1508.1,30.9z"/>
		</g>
		<g>
			<path fill="#AAACAA" d="M2440.5,37.4c-0.2,0-0.2,0.1-0.2,0.3c-0.4,1.8-1.6,2.9-3.3,3.3c-1.4,0.4-2.8,0.6-4.2,0.9
				c-0.4,0.1-0.4,0.3-0.4,0.6c0,4,0,8,0,11.9c0,0.8-0.1,1.5-0.5,2.2c-0.6,1.1-1.5,1.9-2.5,2.5c-2.5,1.5-5.4,2-8.2,2.4
				c-2.8,0.4-5.7,0.4-8.5,0.3c-3-0.1-6-0.4-8.9-1.2c-2.1-0.6-4-1.4-5.5-3c-0.8-0.9-1.3-1.9-1.2-3.1c0-4,0-8,0-12
				c0-0.4-0.1-0.6-0.5-0.7c-1.2-0.2-2.5-0.5-3.7-0.8c-1.3-0.3-2.3-0.9-3.1-2c-0.3-0.5-0.4-1-0.7-1.5c0-0.6,0-1.1,0-1.7
				c0.4-2,1.8-3.2,3.7-3.6c3.7-0.8,7.5-1.6,11.2-2.4c2.8-0.6,5.7-1.2,8.5-1.8c0.4-0.1,0.9-0.1,1.3-0.2c0.6,0,1.2,0,1.8,0
				c3.8,0.6,7.5,1.5,11.2,2.3c3.2,0.7,6.4,1.4,9.7,2c1.2,0.2,2.3,0.8,3.1,1.7c0.5,0.5,0.7,1.1,0.9,1.8c0,0.1,0,0.2,0.1,0.3
				C2440.5,36.6,2440.5,37,2440.5,37.4z"/>
			<path fill="#AAACAA" d="M2436.5,69.2c-0.4-0.3-0.9-0.3-1.3-0.6c-1-0.7-1.3-1.7-1.2-2.8c0.1-0.8,0.3-1.7,0.6-2.4
				c0.4-0.9,0.7-1.8,1.5-2.4c0.8-0.7,1.5-0.8,2.3,0.2c1.1,1.2,1.6,2.8,1.9,4.4c0.1,0.1,0,0.3,0.2,0.4c0,0.3,0,0.6,0,0.8
				c-0.1,0.1-0.1,0.2-0.1,0.3c-0.2,1.2-1.2,2.1-2.5,2.2c0,0-0.1,0-0.1,0C2437.4,69.2,2436.9,69.2,2436.5,69.2z"/>
			<path fill="#FEFEFE" d="M2437.8,69.2c0.4-0.2,0.9-0.3,1.3-0.6c0.7-0.4,1-1,1.2-1.7c0.1-0.1,0.1-0.1,0.2,0c0,0.7,0,1.4,0,2.1
				c0,0.2,0,0.2-0.2,0.2C2439.4,69.2,2438.6,69.2,2437.8,69.2z"/>
			<path fill="#DEDFDE" d="M2440.5,65.8c-0.2,0-0.2-0.2-0.2-0.4c0.1,0,0.1,0,0.2,0C2440.5,65.6,2440.5,65.7,2440.5,65.8z"/>
			<path fill="#D3D4D3" d="M2440.5,66.9c-0.1,0-0.1,0-0.2,0c0-0.1,0-0.3,0.2-0.3C2440.5,66.7,2440.5,66.8,2440.5,66.9z"/>
			<path fill="#AAACAA" d="M2438.8,50.8c0,2.2,0,4.4,0,6.6c0,0.8-0.5,1.4-1.4,1.5c-0.8,0.1-1.6-0.4-1.8-1.1c0-0.2-0.1-0.4-0.1-0.5
				c0-4.3,0-8.6,0-12.9c0-1,0.7-1.7,1.6-1.7c1,0,1.6,0.6,1.6,1.7C2438.8,46.5,2438.8,48.7,2438.8,50.8z"/>
			<path fill="#FEFEFE" d="M2429.1,48.7c0,1.8,0,3.7,0,5.5c0,0.7-0.4,1.2-0.9,1.6c-2.1,1.6-4.7,2.1-7.2,2.6
				c-2.7,0.4-5.4,0.6-8.1,0.4c-3.1-0.1-6.2-0.5-9.1-1.6c-1.2-0.5-2.4-1-3.3-2c-0.2-0.2-0.3-0.5-0.3-0.9c0-3.8,0-7.6,0-11.3
				c0-0.3,0.1-0.4,0.4-0.3c1.4,0.3,2.7,0.6,4.1,0.9c3.1,0.7,6.3,1.3,9.4,2c0.9,0.2,1.8-0.1,2.6-0.3c3.4-0.7,6.8-1.4,10.1-2.2
				c0.6-0.1,1.3-0.2,1.9-0.4c0.3-0.1,0.4,0,0.4,0.3C2429.1,45,2429.1,46.9,2429.1,48.7z"/>
			<path fill="#FEFEFE" d="M2414.8,30.9c1,0.2,2,0.4,3.1,0.7c3.9,0.8,7.8,1.7,11.8,2.5c2.1,0.4,4.2,0.9,6.2,1.3
				c0.7,0.1,1.3,0.8,1.3,1.4c0,0.7-0.6,1.4-1.3,1.5c-3.6,0.8-7.2,1.5-10.9,2.3c-2.6,0.6-5.2,1.1-7.8,1.7c-0.7,0.2-1.5,0.3-2.2,0.5
				c-0.6,0.1-1.1-0.1-1.7-0.2c-3.8-0.8-7.6-1.6-11.4-2.4c-2.6-0.6-5.2-1.1-7.8-1.6c-0.4-0.1-0.9-0.2-1.3-0.4
				c-0.5-0.3-0.7-0.7-0.7-1.2s0.2-1,0.7-1.2c0.7-0.4,1.6-0.4,2.4-0.6c3.9-0.8,7.7-1.7,11.6-2.5c2.5-0.5,5-1,7.5-1.6
				C2414.5,30.9,2414.6,30.9,2414.8,30.9z"/>
		</g>
		<text transform="matrix(1 0 0 1 1847.3933 58.1519)" font-family="'Bariol-Regular'" font-size="42" letter-spacing="29"> </text>
		<text transform="matrix(1 0 0 1 2186.0415 58.1519)" fill="#231F20" font-family="'Bariol-Regular'" font-size="41.2825"> </text>
		
			<text transform="matrix(1 0 0 1 1887.1995 155.7289)" fill="#808184" font-family="'TitilliumWeb-Regular'" font-size="36" letter-spacing="-6"> </text>
		
			<text transform="matrix(1 0 0 1 2069.0884 155.7289)" fill="#808184" font-family="'.LucidaGrandeUI'" font-size="33.7766" letter-spacing="364"> </text>
		<text transform="matrix(1 0 0 1 2468.6328 58.1331)" enable-background="new    "><tspan x="0" y="0" fill="#231F20" font-family="'Bariol-Regular'" font-size="42" letter-spacing="2">Comme</tspan><tspan x="145" y="0" fill="#231F20" font-family="'Bariol-Regular'" font-size="42" letter-spacing="1">r</tspan><tspan x="159.9" y="0" fill="#231F20" font-family="'Bariol-Regular'" font-size="42" letter-spacing="2">cial Design</tspan><tspan x="6.4" y="48.8" fill="#231F20" font-family="'Bariol-Regular'" font-size="39.7813">Ming Chuan Unive</tspan><tspan x="294" y="48.8" fill="#231F20" font-family="'Bariol-Regular'" font-size="39.7813">r</tspan><tspan x="306.1" y="48.8" fill="#231F20" font-family="'Bariol-Regular'" font-size="39.7813">sity</tspan></text>
		<text transform="matrix(1 0 0 1 2636.3154 151.3881)" fill="#808184" font-family="'TitilliumWeb-Regular'" font-size="36">1991 - 1986</text>
		
			<text transform="matrix(1 0 0 1 2549.1165 284.1771)" fill="#808184" font-family="'.LucidaGrandeUI'" font-size="33.7766" letter-spacing="396"> </text>
		<text transform="matrix(1 0 0 1 2479.4255 327.401)" fill="#231F20" font-family="'Bariol-Regular'" font-size="37.5296">  </text>
		
			<text transform="matrix(1 0 0 1 2299.3594 420.6559)" fill="#808184" font-family="'.LucidaGrandeUI'" font-size="33.7766" letter-spacing="198"> </text>
	</g>
	<g id="MULTIMEDUA_5_">
		<path fill="#A8A8A8" d="M832.7,911.2c1.7,7-4.5,13.1-11.4,11.4c-3.3-0.8-6-3.5-6.8-6.8c-1.7-7,4.5-13.1,11.4-11.4
			C829.2,905.3,831.9,908,832.7,911.2z"/>
		<path fill="#A8A8A8" d="M864.8,916.5h-22.5c-1.6,0-2.9-1.3-2.9-2.9s1.3-2.9,2.9-2.9h22.5c1.6,0,2.9,1.3,2.9,2.9
			S866.5,916.5,864.8,916.5z"/>
	</g>
	<g id="NPDP_6_">
		<path fill="#A8A8A8" d="M881.4,704.8c1.7,7-4.5,13.1-11.4,11.4c-3.3-0.8-6-3.5-6.8-6.8c-1.7-7,4.5-13.1,11.4-11.4
			C878,698.9,880.7,701.5,881.4,704.8z"/>
		<path fill="#A8A8A8" d="M791.4,704.8c1.7,7-4.5,13.1-11.4,11.4c-3.3-0.8-6-3.5-6.8-6.8c-1.7-7,4.5-13.1,11.4-11.4
			C787.9,698.9,790.6,701.5,791.4,704.8z"/>
		<path fill="#A8A8A8" d="M853.6,710.1H801c-1.6,0-2.9-1.3-2.9-2.9s1.3-2.9,2.9-2.9h52.5c1.6,0,2.9,1.3,2.9,2.9
			S855.2,710.1,853.6,710.1z"/>
	</g>
	<g id="MBA_2001_5_">
		<path fill="#A8A8A8" d="M2097.4,219.1c1.7,7-4.5,13.1-11.4,11.4c-3.3-0.8-6-3.5-6.8-6.8c-1.7-7,4.5-13.1,11.4-11.4
			C2093.9,213.2,2096.6,215.9,2097.4,219.1z"/>
		<path fill="#A8A8A8" d="M2063.9,224.3h-156.4c-1.6,0-2.8-1.3-2.8-2.8s1.3-2.8,2.8-2.8h156.4c1.6,0,2.8,1.3,2.8,2.8
			S2065.5,224.3,2063.9,224.3z"/>
	</g>
	<g id="MBA_2001_4_">
		<path opacity="0.3" fill="#A8A8A8" enable-background="new    " d="M2831,215.9c4,16.8-10.7,31.5-27.5,27.4
			c-7.9-1.9-14.3-8.4-16.2-16.2c-4-16.8,10.7-31.5,27.5-27.4C2822.7,201.5,2829.1,208,2831,215.9z"/>
		<path opacity="0.3" fill="#A8A8A8" enable-background="new    " d="M2680.7,215.9c4,16.8-10.7,31.5-27.5,27.4
			c-7.9-1.9-14.3-8.4-16.2-16.2c-4-16.8,10.7-31.5,27.5-27.4C2672.3,201.5,2678.8,208,2680.7,215.9z"/>
		<path fill="#A8A8A8" d="M2818.3,219.1c1.7,7-4.5,13.1-11.4,11.4c-3.3-0.8-6-3.5-6.8-6.8c-1.7-7,4.5-13.1,11.4-11.4
			C2814.8,213.2,2817.5,215.9,2818.3,219.1z"/>
		<path fill="#A8A8A8" d="M2667.9,219.1c1.7,7-4.5,13.1-11.4,11.4c-3.3-0.8-6-3.5-6.8-6.8c-1.7-7,4.5-13.1,11.4-11.4
			C2664.4,213.2,2667.1,215.9,2667.9,219.1z"/>
		<path fill="#A8A8A8" d="M2785.5,224.3h-103.1c-1.6,0-2.8-1.3-2.8-2.8s1.3-2.8,2.8-2.8h103.1c1.6,0,2.8,1.3,2.8,2.8
			S2787.1,224.3,2785.5,224.3z"/>
	</g>
	<g id="MBA_2004_1_">
		<path opacity="0.2" fill="#8E8E8E" enable-background="new    " d="M1907.5,215.9c4,16.8-10.7,31.5-27.5,27.4
			c-7.9-1.9-14.3-8.4-16.2-16.2c-4-16.8,10.7-31.5,27.5-27.4C1899.1,201.5,1905.6,208,1907.5,215.9z"/>
		<path fill="#8E8E8E" d="M1588.9,219.1c1.7,7-4.5,13.1-11.4,11.4c-3.3-0.8-6-3.5-6.8-6.8c-1.7-7,4.5-13.1,11.4-11.4
			C1585.4,213.2,1588.1,215.9,1588.9,219.1z"/>
		<path opacity="0.24" fill="#8E8E8E" enable-background="new    " d="M2110.1,215.9c4,16.8-10.7,31.5-27.5,27.4
			c-7.9-1.9-14.3-8.4-16.2-16.2c-4-16.8,10.7-31.5,27.5-27.4C2101.8,201.5,2108.2,208,2110.1,215.9z"/>
		<path opacity="0.24" fill="#8E8E8E" enable-background="new    " d="M1601.6,215.9c4,16.8-10.7,31.5-27.5,27.4
			c-7.9-1.9-14.3-8.4-16.2-16.2c-4-16.8,10.7-31.5,27.5-27.4C1593.3,201.5,1599.7,208,1601.6,215.9z"/>
		<path fill="#8E8E8E" d="M1894.7,219.1c1.7,7-4.5,13.1-11.4,11.4c-3.3-0.8-6-3.5-6.8-6.8c-1.7-7,4.5-13.1,11.4-11.4
			C1891.3,213.2,1894,215.9,1894.7,219.1z"/>
		<path fill="#8E8E8E" d="M1861.2,224.3h-257.1c-1.6,0-2.8-1.3-2.8-2.8s1.3-2.8,2.8-2.8h257.1c1.6,0,2.8,1.3,2.8,2.8
			S1862.8,224.3,1861.2,224.3z"/>
	</g>
	<g id="MULTIMEDUA_3_">
		<path fill="#A8A8A8" d="M892.7,911.2c1.7,7-4.5,13.1-11.4,11.4c-3.3-0.8-6-3.5-6.8-6.8c-1.7-7,4.5-13.1,11.4-11.4
			C889.2,905.3,891.9,908,892.7,911.2z"/>
	</g>
	<g id="NPDP_5_">
		<path fill="#A8A8A8" d="M470.5,704.8c1.7,7-4.5,13.1-11.4,11.4c-3.3-0.8-6-3.5-6.8-6.8c-1.7-7,4.5-13.1,11.4-11.4
			C467,698.9,469.7,701.5,470.5,704.8z"/>
		<path fill="#A8A8A8" d="M395.4,704.8c1.7,7-4.5,13.1-11.4,11.4c-3.3-0.8-6-3.5-6.8-6.8c-1.7-7,4.5-13.1,11.4-11.4
			C392,698.9,394.6,701.5,395.4,704.8z"/>
		<path fill="#A8A8A8" d="M442.6,710.1h-37.5c-1.6,0-2.9-1.3-2.9-2.9s1.3-2.9,2.9-2.9h37.5c1.6,0,2.9,1.3,2.9,2.9
			S444.3,710.1,442.6,710.1z"/>
	</g>
	<g id="NPDP_4_">
		<path fill="#A8A8A8" d="M675.7,911.2c1.7,7-4.5,13.1-11.4,11.4c-3.3-0.8-6-3.5-6.8-6.8c-1.7-7,4.5-13.1,11.4-11.4
			C672.2,905.3,674.9,908,675.7,911.2z"/>
		<path fill="#A8A8A8" d="M570.6,911.2c1.7,7-4.5,13.1-11.4,11.4c-3.3-0.8-6-3.5-6.8-6.8c-1.7-7,4.5-13.1,11.4-11.4
			C567.1,905.3,569.8,908,570.6,911.2z"/>
		<path fill="#A8A8A8" d="M647.8,916.5h-67.6c-1.6,0-2.9-1.3-2.9-2.9s1.3-2.9,2.9-2.9h67.6c1.6,0,2.9,1.3,2.9,2.9
			S649.4,916.5,647.8,916.5z"/>
	</g>
	<g id="MULTIMEDUA_2_">
		<path fill="#A8A8A8" d="M1375,911.2c1.7,7-4.5,13.1-11.4,11.4c-3.3-0.8-6-3.5-6.8-6.8c-1.7-7,4.5-13.1,11.4-11.4
			C1371.5,905.3,1374.2,908,1375,911.2z"/>
		<path fill="#A8A8A8" d="M1292.4,911.2c1.7,7-4.5,13.1-11.4,11.4c-3.3-0.8-6-3.5-6.8-6.8c-1.7-7,4.5-13.1,11.4-11.4
			C1288.9,905.3,1291.6,908,1292.4,911.2z"/>
	</g>
	<g id="NPDP_3_">
		<path fill="#A8A8A8" d="M1311.2,704.8c1.7,7-4.5,13.1-11.4,11.4c-3.3-0.8-6-3.5-6.8-6.8c-1.7-7,4.5-13.1,11.4-11.4
			C1307.7,698.9,1310.4,701.5,1311.2,704.8z"/>
		<path fill="#A8A8A8" d="M1236.1,704.8c1.7,7-4.5,13.1-11.4,11.4c-3.3-0.8-6-3.5-6.8-6.8c-1.7-7,4.5-13.1,11.4-11.4
			C1232.6,698.9,1235.3,701.5,1236.1,704.8z"/>
		<path fill="#A8A8A8" d="M1283.3,710.1h-37.5c-1.6,0-2.9-1.3-2.9-2.9s1.3-2.9,2.9-2.9h37.5c1.6,0,2.9,1.3,2.9,2.9
			S1284.9,710.1,1283.3,710.1z"/>
	</g>
	<g id="MULTIMEDUA_1_">
		<path fill="#A8A8A8" d="M1375,911.2c1.7,7-4.5,13.1-11.4,11.4c-3.3-0.8-6-3.5-6.8-6.8c-1.7-7,4.5-13.1,11.4-11.4
			C1371.5,905.3,1374.2,908,1375,911.2z"/>
		<path fill="#A8A8A8" d="M1292.4,911.2c1.7,7-4.5,13.1-11.4,11.4c-3.3-0.8-6-3.5-6.8-6.8c-1.7-7,4.5-13.1,11.4-11.4
			C1288.9,905.3,1291.6,908,1292.4,911.2z"/>
		<path fill="#A8A8A8" d="M1347.1,916.5h-45c-1.6,0-2.9-1.3-2.9-2.9s1.3-2.9,2.9-2.9h45c1.6,0,2.9,1.3,2.9,2.9
			S1348.7,916.5,1347.1,916.5z"/>
	</g>
	<g id="NPDP_1_">
		<path fill="#A8A8A8" d="M320.8,704.8c1.7,7-4.5,13.1-11.4,11.4c-3.3-0.8-6-3.5-6.8-6.8c-1.7-7,4.5-13.1,11.4-11.4
			C317.4,698.9,320,701.5,320.8,704.8z"/>
		<path fill="#A8A8A8" d="M99.3,704.8c1.7,7-4.5,13.1-11.4,11.4c-3.3-0.8-6-3.5-6.8-6.8c-1.7-7,4.5-13.1,11.4-11.4
			C95.9,698.9,98.6,701.5,99.3,704.8z"/>
		<path fill="#A8A8A8" d="M286.6,710.1H107.1c-1.6,0-2.9-1.3-2.9-2.9s1.3-2.9,2.9-2.9h179.5c1.6,0,2.9,1.3,2.9,2.9
			S288.2,710.1,286.6,710.1z"/>
	</g>
	<g id="MBA_2001_3_">
		<path fill="#A8A8A8" d="M2230,458.2c1.7,7-4.5,13.1-11.4,11.4c-3.3-0.8-6-3.5-6.8-6.8c-1.7-7,4.5-13.1,11.4-11.4
			C2226.5,452.2,2229.2,454.9,2230,458.2z"/>
		<path fill="#A8A8A8" d="M2121.2,458.2c1.7,7-4.5,13.1-11.4,11.4c-3.3-0.8-6-3.5-6.8-6.8c-1.7-7,4.5-13.1,11.4-11.4
			C2117.7,452.2,2120.4,454.9,2121.2,458.2z"/>
		<path fill="#A8A8A8" d="M2200.3,463.3h-67.6c-1.6,0-2.8-1.3-2.8-2.8s1.3-2.8,2.8-2.8h67.6c1.6,0,2.8,1.3,2.8,2.8
			S2201.8,463.3,2200.3,463.3z"/>
	</g>
</g>
<g id="TRAINING_2_">
	<text transform="matrix(1 0 0 1 470.1289 984.5189)"><tspan x="0" y="0" fill="#231F20" font-family="'Bariol-Regular'" font-size="41.2825">Motion G</tspan><tspan x="149.2" y="0" fill="#231F20" font-family="'Bariol-Regular'" font-size="41.2825">r</tspan><tspan x="161.6" y="0" fill="#231F20" font-family="'Bariol-Regular'" font-size="41.2825">aphics</tspan><tspan x="0" y="44.5" fill="#808184" font-family="'TitilliumWeb-Regular'" font-size="36">C</tspan><tspan x="19.2" y="44.5" fill="#808184" font-family="'TitilliumWeb-Regular'" font-size="36">ertificate . 2011</tspan><tspan x="0" y="85" fill="#808184" font-family="'DaxlinePro-Regular'" font-size="33.7766" letter-spacing="397">	</tspan></text>
	<text transform="matrix(1 0 0 1 814.8174 984.5189)"><tspan x="0" y="0" fill="#231F20" font-family="'Bariol-Regular'" font-size="41.2825">NPDP</tspan><tspan x="0" y="44.5" fill="#808184" font-family="'TitilliumWeb-Regular'" font-size="36">C</tspan><tspan x="19.2" y="44.5" fill="#808184" font-family="'TitilliumWeb-Regular'" font-size="36">ertificate . 2010</tspan></text>
	<text transform="matrix(1 0 0 1 1274.5548 984.5189)"><tspan x="0" y="0" fill="#231F20" font-family="'Bariol-Regular'" font-size="41.2825">D</tspan><tspan x="25.3" y="0" fill="#231F20" font-family="'Bariol-Regular'" font-size="41.2825" letter-spacing="-2">w</tspan><tspan x="49" y="0" fill="#231F20" font-family="'Bariol-Regular'" font-size="41.2825" letter-spacing="-1">,</tspan><tspan x="54.3" y="0" fill="#231F20" font-family="'Bariol-Regular'" font-size="41.2825"> F</tspan><tspan x="85.9" y="0" fill="#231F20" font-family="'Bariol-Regular'" font-size="41.2825">l</tspan><tspan x="95.6" y="0" fill="#231F20" font-family="'Bariol-Regular'" font-size="41.2825" letter-spacing="-1">,</tspan><tspan x="100.8" y="0" fill="#231F20" font-family="'Bariol-Regular'" font-size="41.2825"> </tspan><tspan x="110.8" y="0" fill="#231F20" font-family="'Bariol-Regular'" font-size="41.2825" letter-spacing="-1">F</tspan><tspan x="130.8" y="0" fill="#231F20" font-family="'Bariol-Regular'" font-size="41.2825" letter-spacing="-2">w</tspan><tspan x="154.5" y="0" fill="#231F20" font-family="'Bariol-Regular'" font-size="41.2825" letter-spacing="-1">,</tspan><tspan x="159.8" y="0" fill="#231F20" font-family="'Bariol-Regular'" font-size="41.2825"> </tspan><tspan x="169.8" y="0" fill="#231F20" font-family="'Bariol-Regular'" font-size="41.2825">P</tspan><tspan x="191.6" y="0" fill="#231F20" font-family="'Bariol-Regular'" font-size="41.2825">ainter</tspan><tspan x="0" y="44.5" fill="#808184" font-family="'TitilliumWeb-Regular'" font-size="36">C</tspan><tspan x="19.2" y="44.5" fill="#808184" font-family="'TitilliumWeb-Regular'" font-size="36">ertificate . 2007</tspan></text>
	<text transform="matrix(1 0 0 1 773.5353 780.6079)"><tspan x="0" y="0" fill="#231F20" font-family="'Bariol-Regular'" font-size="41.2825">Multimedia Design</tspan><tspan x="0" y="44.5" fill="#808184" font-family="'TitilliumWeb-Regular'" font-size="36">C</tspan><tspan x="19.2" y="44.5" fill="#808184" font-family="'TitilliumWeb-Regular'" font-size="36">ertificate . 2010</tspan><tspan x="0" y="85.7" fill="#808184" font-family="'DaxlinePro-Regular'" font-size="33.7766" letter-spacing="397">	</tspan></text>
	<text transform="matrix(1 0 0 1 1218.2593 780.6079)"><tspan x="0" y="0" fill="#231F20" font-family="'Bariol-Regular'" font-size="41.2825">Flash Lite </tspan><tspan x="166.2" y="0" fill="#231F20" font-family="'Bariol-Regular'" font-size="41.2825">A</tspan><tspan x="191.3" y="0" fill="#231F20" font-family="'Bariol-Regular'" font-size="41.2825">p</tspan><tspan x="212.3" y="0" fill="#231F20" font-family="'Bariol-Regular'" font-size="41.2825">p</tspan><tspan x="232.9" y="0" fill="#231F20" font-family="'Bariol-Regular'" font-size="41.2825">lication</tspan><tspan x="0" y="44.5" fill="#808184" font-family="'TitilliumWeb-Regular'" font-size="36">C</tspan><tspan x="19.2" y="44.5" fill="#808184" font-family="'TitilliumWeb-Regular'" font-size="36">ertificate . 2007</tspan></text>
	<text transform="matrix(1 0 0 1 377.5972 780.6079)"><tspan x="0" y="0" fill="#231F20" font-family="'Bariol-Regular'" font-size="41.2825">3D Cha</tspan><tspan x="120.8" y="0" fill="#231F20" font-family="'Bariol-Regular'" font-size="41.2825">r</tspan><tspan x="132.8" y="0" fill="#231F20" font-family="'Bariol-Regular'" font-size="41.2825">acte</tspan><tspan x="199.3" y="0" fill="#231F20" font-family="'Bariol-Regular'" font-size="41.2825">r</tspan><tspan x="211.5" y="0" fill="#231F20" font-family="'Bariol-Regular'" font-size="41.2825">s Design</tspan><tspan x="0" y="44.5" fill="#808184" font-family="'TitilliumWeb-Regular'" font-size="36">C</tspan><tspan x="19.2" y="44.5" fill="#808184" font-family="'TitilliumWeb-Regular'" font-size="36">ertificate . 2012</tspan><tspan x="0" y="85" fill="#808184" font-family="'DaxlinePro-Regular'" font-size="33.7766" letter-spacing="397">	</tspan></text>
</g>
<text transform="matrix(1 0 0 1 81.5056 780.6079)"><tspan x="0" y="0" fill="#231F20" font-family="'Bariol-Regular'" font-size="41.2825">3D Printing/</tspan><tspan x="0" y="49.5" fill="#231F20" font-family="'Bariol-Regular'" font-size="41.2825">Modeling</tspan><tspan x="0" y="148.6" fill="#231F20" font-family="'Bariol-Regular'" font-size="41.2825" letter-spacing="48">	</tspan><tspan x="58.3" y="148.6" fill="#231F20" font-family="'Bariol-Regular'" font-size="41.2825">Responsive Design</tspan><tspan x="0" y="198.2" fill="#808184" font-family="'TitilliumWeb-Regular'" font-size="36" letter-spacing="50">	</tspan><tspan x="58.3" y="198.2" fill="#808184" font-family="'TitilliumWeb-Regular'" font-size="36">Online </tspan><tspan x="163.1" y="198.2" fill="#808184" font-family="'TitilliumWeb-Regular'" font-size="36" letter-spacing="-3">T</tspan><tspan x="178.9" y="198.2" fill="#808184" font-family="'TitilliumWeb-Regular'" font-size="36">raining</tspan><tspan x="282.3" y="198.2" fill="#231F20" font-family="'Bariol-Regular'" font-size="41.2825" letter-spacing="599">	</tspan></text>
<text transform="matrix(1 0 0 1 1561.6884 58.5541)"><tspan x="0" y="0" font-family="'Bariol-Regular'" font-size="42">M</tspan><tspan x="32" y="0" font-family="'Bariol-Regular'" font-size="42">B</tspan><tspan x="55.1" y="0" font-family="'Bariol-Regular'" font-size="42">A Deg</tspan><tspan x="156.7" y="0" font-family="'Bariol-Regular'" font-size="42">r</tspan><tspan x="169.3" y="0" font-family="'Bariol-Regular'" font-size="42">ee     / </tspan><tspan x="285.5" y="0" font-family="'Bariol-Regular'" font-size="42" letter-spacing="31">	</tspan><tspan x="326.5" y="0" fill="#231F20" font-family="'Bariol-Regular'" font-size="42">M</tspan><tspan x="358.5" y="0" fill="#231F20" font-family="'Bariol-Regular'" font-size="42">B</tspan><tspan x="381.6" y="0" fill="#231F20" font-family="'Bariol-Regular'" font-size="42">A P</tspan><tspan x="440.2" y="0" fill="#231F20" font-family="'Bariol-Regular'" font-size="42">r</tspan><tspan x="453" y="0" fill="#231F20" font-family="'Bariol-Regular'" font-size="42">og</tspan><tspan x="494.3" y="0" fill="#231F20" font-family="'Bariol-Regular'" font-size="42">r</tspan><tspan x="506.9" y="0" fill="#231F20" font-family="'Bariol-Regular'" font-size="42">amme </tspan><tspan x="624" y="0" fill="#231F20" font-family="'Bariol-Regular'" font-size="41.2825"> </tspan><tspan x="0" y="48.8" fill="#231F20" font-family="'Bariol-Regular'" font-size="39.7813">T</tspan><tspan x="21" y="48.8" fill="#231F20" font-family="'Bariol-Regular'" font-size="39.7813">he Unive</tspan><tspan x="157.3" y="48.8" fill="#231F20" font-family="'Bariol-Regular'" font-size="39.7813">r</tspan><tspan x="169.4" y="48.8" fill="#231F20" font-family="'Bariol-Regular'" font-size="39.7813">sity of Glasg</tspan><tspan x="362.6" y="48.8" fill="#231F20" font-family="'Bariol-Regular'" font-size="39.7813">o</tspan><tspan x="381.5" y="48.8" fill="#231F20" font-family="'Bariol-Regular'" font-size="39.7813">w</tspan><tspan x="0" y="97.6" fill="#808184" font-family="'TitilliumWeb-Regular'" font-size="36">2004                               </tspan><tspan x="326.2" y="97.6" fill="#808184" font-family="'TitilliumWeb-Regular'" font-size="36" letter-spacing="-7">	</tspan><tspan x="326.2" y="97.6" fill="#808184" font-family="'TitilliumWeb-Regular'" font-size="36">2001 - 2000</tspan><tspan x="519" y="97.6" fill="#808184" font-family="'DaxlinePro-Regular'" font-size="33.7766" letter-spacing="365">	</tspan></text>
<text transform="matrix(1 0 0 1 2107.1174 327.8033)"><tspan x="0" y="0" font-family="'Bariol-Regular'" font-size="42">Language P</tspan><tspan x="196.9" y="0" font-family="'Bariol-Regular'" font-size="42">r</tspan><tspan x="209.9" y="0" font-family="'Bariol-Regular'" font-size="42">og</tspan><tspan x="251.7" y="0" font-family="'Bariol-Regular'" font-size="42">r</tspan><tspan x="264.4" y="0" font-family="'Bariol-Regular'" font-size="42">amme</tspan><tspan x="372.3" y="0" fill="#231F20" font-family="'Bariol-Regular'" font-size="37.5296">  </tspan><tspan x="0" y="48.8" fill="#231F20" font-family="'Bariol-Regular'" font-size="39.7813">Unive</tspan><tspan x="88.4" y="48.8" fill="#231F20" font-family="'Bariol-Regular'" font-size="39.7813">r</tspan><tspan x="100.5" y="48.8" fill="#231F20" font-family="'Bariol-Regular'" font-size="39.7813">sity of Nottingham</tspan><tspan x="0" y="93.3" fill="#808184" font-family="'TitilliumWeb-Regular'" font-size="36">2000 - 1999</tspan><tspan x="192.9" y="93.3" fill="#808184" font-family="'DaxlinePro-Regular'" font-size="33.7766" letter-spacing="199">	</tspan></text>
<rect x="2681.4" y="520.3" opacity="0.18" fill="#A3D8E8" enable-background="new    " width="159.6" height="112.5"/>
<text transform="matrix(0.96 0 0 1 2736.9287 597.1357)" fill="#848484" font-family="'TitilliumWeb-Light'" font-size="40">‘85</text>
</svg>
