<?xml version="1.0" encoding="utf-8"?>
<!-- Generator: Adobe Illustrator 17.1.0, SVG Export Plug-In . SVG Version: 6.00 Build 0)  -->
<!DOCTYPE svg PUBLIC "-//W3C//DTD SVG 1.1//EN" "http://www.w3.org/Graphics/SVG/1.1/DTD/svg11.dtd" [
	<!ENTITY ns_flows "http://ns.adobe.com/Flows/1.0/">
	<!ENTITY ns_extend "http://ns.adobe.com/Extensibility/1.0/">
	<!ENTITY ns_ai "http://ns.adobe.com/AdobeIllustrator/10.0/">
	<!ENTITY ns_graphs "http://ns.adobe.com/Graphs/1.0/">
	<!ENTITY ns_vars "http://ns.adobe.com/Variables/1.0/">
	<!ENTITY ns_imrep "http://ns.adobe.com/ImageReplacement/1.0/">
	<!ENTITY ns_sfw "http://ns.adobe.com/SaveForWeb/1.0/">
	<!ENTITY ns_custom "http://ns.adobe.com/GenericCustomNamespace/1.0/">
	<!ENTITY ns_adobe_xpath "http://ns.adobe.com/XPath/1.0/">
]>
<svg version="1.1" id="timeline" xmlns:x="&ns_extend;" xmlns:i="&ns_ai;" xmlns:graph="&ns_graphs;"
	 xmlns="http://www.w3.org/2000/svg" xmlns:xlink="http://www.w3.org/1999/xlink" xmlns:a="http://ns.adobe.com/AdobeSVGViewerExtensions/3.0/"
	 x="0px" y="0px" viewBox="0 0 2850 872" enable-background="new 0 0 2850 872" xml:space="preserve">
<metadata>
	<sfw  xmlns="&ns_sfw;">
		<slices></slices>
		<sliceSourceBounds  height="799.999" width="2834.705" x="7.648" y="-836" bottomLeftOrigin="true"></sliceSourceBounds>
	</sfw>
</metadata>
<text transform="matrix(1 0 0 1 714.7051 174.457)" fill="#231F20" font-family="'Bariol-Regular'" font-size="37.0557">Freelance Designer.</text>
<text transform="matrix(1 0 0 1 1000.5088 174.457)" fill="#231F20" font-family="'Bariol-Bold'" font-size="44.4668"> </text>
<text transform="matrix(0.95 0 0 1 714.7051 218.9238)" fill="#808184" font-family="'TitilliumWeb-Regular'" font-size="36">UI/UX DESIGNER</text>
<text transform="matrix(1 0 0 1 959.9502 218.9238)" fill="#808184" font-family="'DaxlinePro-Regular'" font-size="33.3501" letter-spacing="147">	</text>
<text transform="matrix(0.95 0 0 1 714.7051 263.3906)" fill="#808184" font-family="'TitilliumWeb-Regular'" font-size="34">FEB. 2011 - FEB. 2008</text>
<text transform="matrix(1 0 0 1 1213.79 480.1943)" fill="#231F20" font-family="'Bariol-Regular'" font-size="37.0557">Mio Technology. </text>
<text transform="matrix(1 0 0 1 1213.79 524.6611)" fill="#231F20" font-family="'Bariol-Regular'" font-size="37.0557">Mitac Group.</text>
<text transform="matrix(1 0 0 1 1398.7686 524.6611)" fill="#231F20" font-family="'Bariol-Bold'" font-size="44.4668"> </text>
<text transform="matrix(0.95 0 0 1 1213.79 569.1279)" fill="#808184" font-family="'TitilliumWeb-Regular'" font-size="36">SENIOR DESIGNER</text>
<text transform="matrix(1 0 0 1 1486.0186 569.1279)" fill="#808184" font-family="'DaxlinePro-Regular'" font-size="33.3501" letter-spacing="120">	</text>
<text transform="matrix(0.95 0 0 1 1213.79 613.5947)" fill="#808184" font-family="'TitilliumWeb-Regular'" font-size="34">DEC. ’07 - MAY. ‘06</text>
<text transform="matrix(1 0 0 1 1213.79 653.6152)" fill="#808184" font-family="'DaxlinePro-Regular'" font-size="33.3501" letter-spacing="392">	</text>
<text transform="matrix(1 0 0 1 1213.79 693.6348)" fill="#808184" font-family="'DaxlinePro-Regular'" font-size="33.3501" letter-spacing="392">	</text>
<text transform="matrix(1 0 0 1 1494.1445 174.46)" fill="#231F20" font-family="'Bariol-Regular'" font-size="37.0557">YiJiang Arts &amp; Crafts Co., Ltd..</text>
<text transform="matrix(1 0 0 1 1925.3145 174.46)" fill="#231F20" font-family="'Bariol-Bold'" font-size="44.4668"> </text>
<text transform="matrix(0.95 0 0 1 1494.1445 218.9268)" fill="#808184" font-family="'TitilliumWeb-Regular'" font-size="36">ACCOUNT MANAGER</text>
<text transform="matrix(1 0 0 1 1798.6221 218.9268)" fill="#808184" font-family="'DaxlinePro-Regular'" font-size="33.3501" letter-spacing="88">	</text>
<text transform="matrix(1 0 0 1 1894.1133 218.9268)" fill="#808184" font-family="'DaxlinePro-Regular'" font-size="33.3501" letter-spacing="-6">	</text>
<text transform="matrix(1 0 0 1 1894.3447 218.9268)" fill="#808184" font-family="'DaxlinePro-Regular'" font-size="33.3501" letter-spacing="484">	</text>
<text transform="matrix(0.95 0 0 1 1494.1445 263.3936)" fill="#808184" font-family="'TitilliumWeb-Regular'" font-size="34">APR. 2006 - JUL. 2002</text>
<text transform="matrix(1 0 0 1 2267.3398 519.3477)" fill="#231F20" font-family="'Bariol-Regular'" font-size="37.0557">CIS Technology Inc.</text>
<text transform="matrix(1 0 0 1 2556.4434 519.3477)" fill="#231F20" font-family="'Bariol-Bold'" font-size="44.4668"> </text>
<text transform="matrix(0.95 0 0 1 2267.3398 563.8145)" fill="#808184" font-family="'TitilliumWeb-Regular'" font-size="36">GRAPHIC DESIGN SUPERVISOR</text>
<text transform="matrix(0.95 0 0 1 2267.3398 608.2812)" fill="#808184" font-family="'TitilliumWeb-Regular'" font-size="34">MAR. 1999 - APR. 1995</text>
<text transform="matrix(1 0 0 1 2406.9785 270.8037)" fill="#231F20" font-family="'Bariol-Regular'" font-size="37.0557">TVM Video &amp; Monitor Corp.</text>
<text transform="matrix(1 0 0 1 2806.8379 270.8037)" fill="#231F20" font-family="'Bariol-Bold'" font-size="44.4668"> </text>
<text transform="matrix(0.95 0 0 1 2406.9785 315.2705)" fill="#808184" font-family="'TitilliumWeb-Regular'" font-size="36">GRAPHIC DESIGNER</text>
<text transform="matrix(0.95 0 0 1 2406.9785 359.7373)" fill="#808184" font-family="'TitilliumWeb-Regular'" font-size="34">APR. 1995 - JUN. 1991</text>
<text transform="matrix(1 0 0 1 71.8232 174.457)" fill="#231F20" font-family="'Bariol-Regular'" font-size="37.0557">Freelance Designer.</text>
<text transform="matrix(1 0 0 1 357.6274 174.457)" fill="#231F20" font-family="'Bariol-Bold'" font-size="44.4668"> </text>
<text transform="matrix(0.95 0 0 1 71.8232 218.9238)" fill="#808184" font-family="'TitilliumWeb-Regular'" font-size="36">UI/UX DESIGNER</text>
<text transform="matrix(0.95 0 0 1 317.0679 218.9238)" fill="#808184" font-family="'TitilliumWeb-Regular'" font-size="33.3501" letter-spacing="154.737">	</text>
<text transform="matrix(0.95 0 0 1 71.8232 263.3906)" fill="#808184" font-family="'TitilliumWeb-Regular'" font-size="34">Present - SEP. 2013</text>
<text transform="matrix(1 0 0 1 2406.9785 85.5234)" fill="#231F20" font-family="'Bariol-Regular'" font-size="37.0557">BoShang Advertising Agency.</text>
<text transform="matrix(1 0 0 1 2835.8896 85.5234)" fill="#231F20" font-family="'Bariol-Bold'" font-size="44.4668"> </text>
<text transform="matrix(0.95 0 0 1 2406.9785 129.9902)" fill="#808184" font-family="'TitilliumWeb-Regular'" font-size="36">RESEARCHER (PART-TIME)</text>
<text transform="matrix(0.95 0 0 1 2406.9785 174.457)" fill="#808184" font-family="'TitilliumWeb-Regular'" font-size="34">1991 - 1989</text>
<text transform="matrix(1 0 0 1 306.5088 425.834)" fill="#231F20" font-family="'Bariol-Regular'" font-size="37.0557">Claridy Solutions, Inc.</text>
<text transform="matrix(1 0 0 1 616.3618 425.834)" fill="#231F20" font-family="'Bariol-Bold'" font-size="44.4668"> </text>
<text transform="matrix(0.95 0 0 1 306.5088 470.3008)" fill="#808184" font-family="'TitilliumWeb-Regular'" font-size="36">UI/UX DESIGNER</text>
<text transform="matrix(1 0 0 1 306.5088 514.7676)" fill="#231F20" font-family="'Bariol-Regular'" font-size="37.0557">TROPOX. Promate Electronic.</text>
<text transform="matrix(1 0 0 1 735.1602 514.7676)" fill="#231F20" font-family="'Bariol-Bold'" font-size="44.4668"> </text>
<text transform="matrix(0.95 0 0 1 306.5088 559.2344)" fill="#808184" font-family="'TitilliumWeb-Regular'" font-size="36">VISUAL DESIGN SUPERVISOR</text>
<text transform="matrix(0.95 0 0 1 306.5088 603.7012)" fill="#808184" font-family="'TitilliumWeb-Regular'" font-size="34">AUG. 2013 - APR. 2011</text>
<text transform="matrix(1 0 0 1 71.8232 66.998)" fill="#231F20" font-family="'Bariol-Regular'" font-size="37.0557">Makeneer(MakerSpace)</text>
<text transform="matrix(0.95 0 0 1 71.8232 111.4648)" fill="#808184" font-family="'TitilliumWeb-Regular'" font-size="36">3D Printing . Prototyping</text>
<rect x="2488.717" y="724.902" opacity="0.12" fill="#231F20" width="158.598" height="111.098"/>
<rect x="2330.118" y="724.902" opacity="0.18" fill="#A3D8E8" width="158.598" height="111.098"/>
<rect x="2171.52" y="724.902" opacity="0.12" fill="#231F20" width="158.598" height="111.098"/>
<rect x="2014.404" y="724.902" opacity="0.18" fill="#A3D8E8" width="157.116" height="111.098"/>
<rect x="1857.288" y="724.902" opacity="0.12" fill="#231F20" width="157.116" height="111.098"/>
<rect x="1698.689" y="724.902" opacity="0.18" fill="#A3D8E8" width="158.598" height="111.098"/>
<rect x="1540.091" y="724.902" opacity="0.12" fill="#231F20" width="158.598" height="111.098"/>
<rect x="1369.635" y="724.902" opacity="0.18" fill="#A3D8E8" width="170.456" height="111.098"/>
<rect x="1199.179" y="724.902" opacity="0.12" fill="#231F20" width="170.456" height="111.098"/>
<rect x="1040.581" y="724.902" opacity="0.18" fill="#A3D8E8" width="158.598" height="111.098"/>
<rect x="883.464" y="724.902" opacity="0.12" fill="#231F20" width="157.116" height="111.098"/>
<rect x="724.866" y="724.902" opacity="0.18" fill="#A3D8E8" width="158.598" height="111.098"/>
<rect x="546.999" y="724.902" opacity="0.12" fill="#231F20" width="177.867" height="111.098"/>
<rect x="369.132" y="724.902" opacity="0.18" fill="#A3D8E8" width="177.867" height="111.098"/>
<rect x="191.264" y="724.902" opacity="0.12" fill="#231F20" width="177.867" height="111.098"/>
<rect x="7.648" y="724.902" opacity="0.12" fill="#EDEDED" width="179.784" height="111.098"/>
<rect x="13.397" y="724.902" opacity="0.18" fill="#A3D8E8" width="177.867" height="111.098"/>
<rect x="13.397" y="723.405" opacity="0.36" fill="#FFFFFF"  a:adobe-blending-mode="lighten" width="2632.436" height="54.842"/>
<g>
	<text transform="matrix(0.96 0 0 1 60.1211 800.7812)" fill="#848484" font-family="'TitilliumWeb-Light'" font-size="40">2014</text>
	<text transform="matrix(0.96 0 0 1 237.9888 800.7812)" fill="#848484" font-family="'TitilliumWeb-Light'" font-size="40">2013</text>
	<text transform="matrix(0.96 0 0 1 415.8569 800.7812)" fill="#848484" font-family="'TitilliumWeb-Light'" font-size="40">2012</text>
	<text transform="matrix(0.96 0 0 1 593.7241 800.7812)" fill="#848484" font-family="'TitilliumWeb-Light'" font-size="40">2011</text>
	<text transform="matrix(0.96 0 0 1 761.9561 800.7812)" fill="#848484" font-family="'TitilliumWeb-Light'" font-size="40">2010</text>
	<text transform="matrix(0.96 0 0 1 919.8135 800.7812)" fill="#848484" font-family="'TitilliumWeb-Light'" font-size="40">2009</text>
	<text transform="matrix(0.96 0 0 1 1077.6709 800.7812)" fill="#848484" font-family="'TitilliumWeb-Light'" font-size="40">2008</text>
	<text transform="matrix(0.96 0 0 1 1242.1973 800.7812)" fill="#848484" font-family="'TitilliumWeb-Light'" font-size="40">2007</text>
</g>
<g>
	<path fill="#C3C1B5" d="M686.913,715.608h-3.705v-7.411h3.705V715.608z M686.913,697.08h-3.705v-7.411h3.705V697.08z
		 M686.913,660.024h-3.705v-7.411h3.705V660.024z M686.913,641.497h-3.705v-7.411h3.705V641.497z M686.913,622.969h-3.705v-7.411
		h3.705V622.969z M686.913,604.441h-3.705v-7.411h3.705V604.441z M686.913,585.913h-3.705v-7.411h3.705V585.913z"/>
	<path fill="#C3C1B5" d="M686.913,474.746h-3.705v-6.793h3.705V474.746z M686.913,456.836h-3.705v-7.411h3.705V456.836z
		 M686.913,438.309h-3.705v-7.411h3.705V438.309z M686.913,419.78h-3.705v-7.411h3.705V419.78z M686.913,401.253h-3.705v-7.411
		h3.705V401.253z M686.913,382.725h-3.705v-7.411h3.705V382.725z M686.913,364.197h-3.705v-7.411h3.705V364.197z M686.913,345.669
		h-3.705v-7.411h3.705V345.669z"/>
</g>
<g>
	<path fill="#C3C1B5" d="M1184.645,717.461h-3.705v-7.411h3.705V717.461z M1184.645,698.934h-3.705v-7.411h3.705V698.934z
		 M1184.645,680.405h-3.705v-7.411h3.705V680.405z M1184.645,661.878h-3.705v-7.411h3.705V661.878z M1184.645,643.35h-3.705v-7.411
		h3.705V643.35z M1184.645,624.822h-3.705v-7.411h3.705V624.822z M1184.645,606.294h-3.705v-7.411h3.705V606.294z M1184.645,587.767
		h-3.705v-7.411h3.705V587.767z M1184.645,569.238h-3.705v-7.411h3.705V569.238z M1184.645,550.711h-3.705V543.3h3.705V550.711z
		 M1184.645,532.183h-3.705v-7.411h3.705V532.183z M1184.645,513.655h-3.705v-7.411h3.705V513.655z M1184.645,495.127h-3.705v-7.411
		h3.705V495.127z M1184.645,476.6h-3.705v-7.411h3.705V476.6z M1184.645,458.071h-3.705v-7.411h3.705V458.071z M1184.645,439.544
		h-3.705v-7.411h3.705V439.544z M1184.645,421.016h-3.705v-7.411h3.705V421.016z M1184.645,402.488h-3.705v-7.411h3.705V402.488z
		 M1184.645,383.96h-3.705v-7.411h3.705V383.96z M1184.645,365.433h-3.705v-7.411h3.705V365.433z M1184.645,346.904h-3.705v-7.411
		h3.705V346.904z"/>
</g>
<g>
	<text transform="matrix(0.96 0 0 1 1412.6553 800.7812)" fill="#848484" font-family="'TitilliumWeb-Light'" font-size="40">2006</text>
	<text transform="matrix(0.96 0 0 1 1577.1807 800.7812)" fill="#848484" font-family="'TitilliumWeb-Light'" font-size="40">2004</text>
	<text transform="matrix(0.96 0 0 1 1735.7793 800.7812)" fill="#848484" font-family="'TitilliumWeb-Light'" font-size="40">2002</text>
	<text transform="matrix(0.96 0 0 1 1893.6357 800.7812)" fill="#848484" font-family="'TitilliumWeb-Light'" font-size="40">2001</text>
	<text transform="matrix(0.96 0 0 1 2050.7529 800.7812)" fill="#848484" font-family="'TitilliumWeb-Light'" font-size="40">2000</text>
	<text transform="matrix(0.96 0 0 1 2208.6104 800.7812)" fill="#848484" font-family="'TitilliumWeb-Light'" font-size="40">1999</text>
	<text transform="matrix(0.96 0 0 1 2384.6016 800.7812)" fill="#848484" font-family="'TitilliumWeb-Light'" font-size="40">‘97</text>
	<text transform="matrix(0.96 0 0 1 2543.2031 800.7812)" fill="#848484" font-family="'TitilliumWeb-Light'" font-size="40">‘95</text>
</g>
<path fill="#C3C1B5" d="M1781.909,713.484h-3.705v-7.411h3.705V713.484z M1781.909,694.957h-3.705v-7.411h3.705V694.957z
	 M1781.909,676.429h-3.705v-7.411h3.705V676.429z M1781.909,657.901h-3.705v-7.411h3.705V657.901z M1781.909,639.373h-3.705v-7.411
	h3.705V639.373z M1781.909,620.846h-3.705v-7.411h3.705V620.846z M1781.909,602.317h-3.705v-7.411h3.705V602.317z M1781.909,583.79
	h-3.705v-7.411h3.705V583.79z M1781.909,565.262h-3.705v-7.411h3.705V565.262z M1781.909,546.734h-3.705v-7.411h3.705V546.734z
	 M1781.909,528.206h-3.705v-7.411h3.705V528.206z M1781.909,509.679h-3.705v-7.411h3.705V509.679z M1781.909,491.15h-3.705v-7.411
	h3.705V491.15z M1781.909,472.623h-3.705v-7.411h3.705V472.623z M1781.909,454.095h-3.705v-7.411h3.705V454.095z M1781.909,435.567
	h-3.705v-7.411h3.705V435.567z M1781.909,417.039h-3.705v-7.411h3.705V417.039z M1781.909,398.512h-3.705v-7.411h3.705V398.512z
	 M1781.909,379.983h-3.705v-7.411h3.705V379.983z M1781.909,361.456h-3.705v-7.411h3.705V361.456z M1781.909,342.928h-3.705v-7.411
	h3.705V342.928z"/>
<path fill="#C3C1B5" d="M1502.139,717.189h-3.705v-7.411h3.705V717.189z M1502.139,698.662h-3.705v-7.411h3.705V698.662z
	 M1502.139,680.134h-3.705v-7.411h3.705V680.134z M1502.139,661.606h-3.705v-7.411h3.705V661.606z M1502.139,643.078h-3.705v-7.411
	h3.705V643.078z M1502.139,624.551h-3.705v-7.411h3.705V624.551z M1502.139,606.022h-3.705v-7.411h3.705V606.022z M1502.139,587.495
	h-3.705v-7.411h3.705V587.495z M1502.139,568.967h-3.705v-7.411h3.705V568.967z M1502.139,550.439h-3.705v-7.411h3.705V550.439z
	 M1502.139,531.911h-3.705V524.5h3.705V531.911z M1502.139,513.384h-3.705v-7.411h3.705V513.384z M1502.139,494.855h-3.705v-7.411
	h3.705V494.855z M1502.139,476.328h-3.705v-7.411h3.705V476.328z M1502.139,457.8h-3.705v-7.411h3.705V457.8z M1502.139,439.272
	h-3.705v-7.411h3.705V439.272z M1502.139,420.744h-3.705v-7.411h3.705V420.744z M1502.139,402.217h-3.705v-7.411h3.705V402.217z
	 M1502.139,383.688h-3.705v-7.411h3.705V383.688z M1502.139,365.161h-3.705v-7.411h3.705V365.161z M1502.139,346.633h-3.705v-7.411
	h3.705V346.633z"/>
<path fill="#C3C1B5" d="M2595.281,723.02h-3.705v-3.705h3.705V723.02z M2595.281,708.197h-3.705v-7.411h3.705V708.197z
	 M2595.281,689.67h-3.705v-7.411h3.705V689.67z M2595.281,671.142h-3.705v-7.411h3.705V671.142z"/>
<path fill="#C3C1B5" d="M2595.281,522.918h-3.705v-7.411h3.705V522.918z M2595.281,504.391h-3.705v-7.411h3.705V504.391z
	 M2595.281,485.862h-3.705v-7.411h3.705V485.862z M2595.281,467.335h-3.705v-7.411h3.705V467.335z M2595.281,448.807h-3.705v-7.411
	h3.705V448.807z"/>
<path fill="#C3C1B5" d="M2287.719,723.02h-3.705v-3.089h3.705V723.02z M2287.719,708.814h-3.705v-7.411h3.705V708.814z
	 M2287.719,690.286h-3.705v-7.411h3.705V690.286z"/>
<path fill="#C3C1B5" d="M2769.442,710.048h-3.705v-7.411h3.705V710.048z M2769.442,691.521h-3.705v-7.411h3.705V691.521z
	 M2769.442,672.992h-3.705v-7.411h3.705V672.992z M2769.442,654.465h-3.705v-7.411h3.705V654.465z M2769.442,635.937h-3.705v-7.411
	h3.705V635.937z M2769.442,617.409h-3.705v-7.411h3.705V617.409z M2769.442,598.881h-3.705v-7.411h3.705V598.881z M2769.442,580.354
	h-3.705v-7.411h3.705V580.354z M2769.442,561.825h-3.705v-7.411h3.705V561.825z M2769.442,543.298h-3.705v-7.411h3.705V543.298z
	 M2769.442,524.77h-3.705v-7.411h3.705V524.77z M2769.442,506.242h-3.705v-7.411h3.705V506.242z M2769.442,487.714h-3.705v-7.411
	h3.705V487.714z M2769.442,469.187h-3.705v-7.411h3.705V469.187z M2769.442,450.658h-3.705v-7.411h3.705V450.658z M2769.442,395.075
	h-3.705v-7.411h3.705V395.075z M2769.442,376.547h-3.705v-7.411h3.705V376.547z M2769.442,358.02h-3.705v-7.411h3.705V358.02z
	 M2769.442,339.491h-3.705v-7.411h3.705V339.491z M2769.442,320.964h-3.705v-7.411h3.705V320.964z M2769.442,302.436h-3.705v-7.411
	h3.705V302.436z"/>
<path fill="#C3C1B5" d="M2769.442,232.71h-3.705v-7.411h3.705V232.71z M2769.442,214.182h-3.705v-7.411h3.705V214.182z"/>
<path fill="#C3C1B5" d="M1473.507,720.211h-3.111v-6.223h3.111V720.211z M1473.507,704.654h-3.111v-6.223h3.111V704.654z
	 M1473.507,689.098h-3.111v-6.223h3.111V689.098z"/>
<path fill="#C3C1B5" d="M1225.234,720.211h-3.111v-6.223h3.111V720.211z M1225.234,704.654h-3.111v-6.223h3.111V704.654z
	 M1225.234,689.098h-3.111v-6.223h3.111V689.098z"/>
<path fill="#C3C1B5" d="M284.86,716.226h-3.706v-7.411h3.706V716.226z M284.86,697.698h-3.706v-7.411h3.706V697.698z
	 M284.86,660.643h-3.706v-7.411h3.706V660.643z M284.86,642.114h-3.706v-7.411h3.706V642.114z M284.86,623.587h-3.706v-7.411h3.706
	V623.587z M284.86,605.059h-3.706v-7.411h3.706V605.059z M284.86,586.531h-3.706v-7.411h3.706V586.531z M284.86,568.003h-3.706
	v-7.411h3.706V568.003z M284.86,549.476h-3.706v-7.411h3.706V549.476z M284.86,530.947h-3.706v-7.411h3.706V530.947z M284.86,512.42
	h-3.706v-7.411h3.706V512.42z M284.86,493.892h-3.706v-7.411h3.706V493.892z M284.86,475.364h-3.706v-7.411h3.706V475.364z
	 M284.86,456.836h-3.706v-7.411h3.706V456.836z M284.86,438.309h-3.706v-7.411h3.706V438.309z M284.86,419.78h-3.706v-7.411h3.706
	V419.78z M284.86,401.253h-3.706v-7.411h3.706V401.253z M284.86,382.725h-3.706v-7.411h3.706V382.725z M284.86,364.197h-3.706
	v-7.411h3.706V364.197z M284.86,345.669h-3.706v-7.411h3.706V345.669z"/>
<g id="_x32_004_2_">
	<path opacity="0.3" fill="#EBA538" d="M99.197,297.27c18.121,23.807-8.792,50.699-32.584,32.564l0,0
		C48.498,306.03,75.404,279.142,99.197,297.27z"/>
	<path opacity="0.3" fill="#EBA538" d="M299.299,297.272c18.117,23.806-8.793,50.696-32.585,32.564
		C248.597,306.03,275.507,279.14,299.299,297.272z"/>
	<path fill="#EBA538" d="M258.934,316.333H106.362c-1.499,0-2.714-1.244-2.714-2.779s1.215-2.779,2.714-2.779h152.572
		c1.499,0,2.714,1.244,2.714,2.779S260.432,316.333,258.934,316.333z"/>
	<path fill="#EBA538" d="M89.694,306.769c7.55,9.919-3.663,21.125-13.577,13.568l0,0C68.57,310.419,79.78,299.215,89.694,306.769z"
		/>
	<path fill="#EBA538" d="M289.795,306.77c7.549,9.919-3.664,21.123-13.577,13.568C268.669,310.419,279.882,299.215,289.795,306.77z"
		/>
</g>
<g id="CLARIDY_1_">
	<path fill="#A6A538" d="M661.269,663.619H306.799c-1.527,0-2.765-1.244-2.765-2.779s1.238-2.779,2.765-2.779h354.471
		c1.527,0,2.765,1.244,2.765,2.779S662.796,663.619,661.269,663.619z"/>
	<path opacity="0.36" fill="#A6A538" d="M304.575,655.316c3.985,16.554-10.556,31.084-27.107,27.088
		c-7.779-1.878-14.157-8.261-16.03-16.041c-3.985-16.554,10.556-31.084,27.107-27.088
		C296.324,641.153,302.702,647.536,304.575,655.316z"/>
	<path fill="#A6A538" d="M291.994,658.538c1.66,6.898-4.398,12.952-11.294,11.287c-3.241-0.783-5.899-3.442-6.679-6.684
		c-1.66-6.898,4.398-12.952,11.294-11.287C288.556,652.637,291.213,655.296,291.994,658.538z"/>
	<path opacity="0.36" fill="#A6A538" d="M701.354,644.559c18.115,23.805-8.791,50.693-32.584,32.564
		C650.649,653.316,677.562,626.424,701.354,644.559z"/>
	<path fill="#A6A538" d="M691.85,654.056c7.548,9.919-3.663,21.122-13.577,13.568C670.723,657.705,681.936,646.5,691.85,654.056z"/>
</g>
<g id="MIO_2_">
	<path opacity="0.3" fill="#87ABAD" d="M1493.918,657.332c2.296,15.026-10.464,27.777-25.488,25.47
		c-9.362-1.437-17.011-9.092-18.441-18.454c-2.296-15.026,10.464-27.777,25.488-25.47
		C1484.838,640.315,1492.487,647.969,1493.918,657.332z"/>
	<path opacity="0.3" fill="#87ABAD" d="M1245.645,657.332c2.296,15.026-10.464,27.777-25.488,25.47
		c-9.362-1.437-17.011-9.092-18.441-18.454c-2.296-15.026,10.464-27.777,25.488-25.47
		C1236.565,640.315,1244.214,647.969,1245.645,657.332z"/>
	<path fill="#87ABAD" d="M1481.105,659.378c0.957,6.261-4.36,11.574-10.62,10.613c-3.901-0.599-7.088-3.788-7.684-7.689
		c-0.957-6.261,4.36-11.574,10.62-10.613C1477.322,652.288,1480.509,655.477,1481.105,659.378z"/>
	<path fill="#87ABAD" d="M1232.832,659.378c0.957,6.261-4.36,11.574-10.62,10.613c-3.901-0.599-7.088-3.788-7.684-7.689
		c-0.957-6.261,4.36-11.574,10.62-10.613C1229.049,652.288,1232.236,655.477,1232.832,659.378z"/>
	<path fill="#87ABAD" d="M1449.103,663.619H1246.53c-1.499,0-2.713-1.244-2.713-2.779s1.214-2.779,2.713-2.779h202.574
		c1.499,0,2.713,1.244,2.713,2.779S1450.602,663.619,1449.103,663.619z"/>
</g>
<g id="YJ_2_">
	<path fill="#4BB3D2" d="M1756.545,316.333h-232.521c-1.513,0-2.739-1.244-2.739-2.779s1.226-2.779,2.739-2.779h232.521
		c1.513,0,2.739,1.244,2.739,2.779S1758.058,316.333,1756.545,316.333z"/>
	<path opacity="0.2" fill="#4BB3D2" d="M1802.021,310.046c2.296,15.026-10.464,27.776-25.488,25.47
		c-9.362-1.437-17.011-9.092-18.442-18.455c-2.296-15.026,10.464-27.776,25.488-25.47
		C1792.941,293.029,1800.59,300.683,1802.021,310.046z"/>
	<path opacity="0.2" fill="#4BB3D2" d="M1522.251,310.046c2.296,15.026-10.464,27.776-25.488,25.47
		c-9.362-1.437-17.011-9.092-18.442-18.455c-2.296-15.026,10.464-27.776,25.488-25.47
		C1513.171,293.029,1520.82,300.683,1522.251,310.046z"/>
	<path fill="#4BB3D2" d="M1507.608,312.385c0.765,5.009-3.488,9.259-8.496,8.49c-3.121-0.479-5.67-3.031-6.147-6.152
		c-0.765-5.009,3.488-9.259,8.496-8.49C1504.581,306.712,1507.131,309.264,1507.608,312.385z"/>
	<path fill="#4BB3D2" d="M1787.378,312.385c0.765,5.009-3.488,9.259-8.496,8.49c-3.121-0.479-5.67-3.031-6.147-6.152
		c-0.765-5.009,3.488-9.259,8.496-8.49C1784.351,306.712,1786.901,309.264,1787.378,312.385z"/>
</g>
<g id="Freelance_2_">
	<path opacity="0.36" fill="#87AB66" d="M1205.424,310.044c2.297,15.027-10.464,27.779-25.488,25.472
		c-9.362-1.437-17.01-9.092-18.441-18.455c-2.296-15.025,10.462-27.775,25.486-25.47
		C1196.343,293.027,1203.993,300.682,1205.424,310.044z"/>
	<path opacity="0.36" fill="#87AB66" d="M706.629,308.028c3.987,16.555-10.555,31.086-27.107,27.09
		c-7.779-1.878-14.157-8.261-16.03-16.042c-3.984-16.553,10.554-31.082,27.105-27.088
		C698.377,293.866,704.755,300.248,706.629,308.028z"/>
	<path fill="#87AB66" d="M1192.612,312.092c0.957,6.261-4.36,11.574-10.62,10.613c-3.901-0.599-7.088-3.788-7.684-7.689
		c-0.957-6.261,4.359-11.573,10.619-10.613C1188.828,305.001,1192.015,308.19,1192.612,312.092z"/>
	<path fill="#87AB66" d="M694.048,311.252c1.661,6.898-4.398,12.953-11.294,11.287c-3.241-0.783-5.899-3.442-6.679-6.684
		c-1.66-6.897,4.398-12.951,11.294-11.287C690.609,305.351,693.267,308.01,694.048,311.252z"/>
	<path fill="#87AB66" d="M1158.988,316.333H708.512c-1.526,0-2.762-1.244-2.762-2.779s1.236-2.779,2.762-2.779h450.476
		c1.526,0,2.762,1.244,2.762,2.779S1160.514,316.333,1158.988,316.333z"/>
</g>
<g id="CIS_2_">
	<path opacity="0.3" fill="#69C7FF" d="M2307.435,655.317c3.984,16.553-10.554,31.082-27.105,27.088
		c-7.78-1.877-14.158-8.259-16.031-16.04c-3.987-16.555,10.555-31.087,27.107-27.09
		C2299.184,641.154,2305.562,647.536,2307.435,655.317z"/>
	<path fill="#69C7FF" d="M2294.853,658.539c1.66,6.897-4.398,12.951-11.294,11.287c-3.241-0.782-5.899-3.441-6.68-6.683
		c-1.661-6.898,4.398-12.953,11.294-11.288C2291.416,652.637,2294.073,655.297,2294.853,658.539z"/>
	<path fill="#69C7FF" d="M2568.725,663.619H2310.57c-1.535,0-2.779-1.244-2.779-2.779s1.244-2.779,2.779-2.779h258.154
		c1.535,0,2.779,1.244,2.779,2.779S2570.26,663.619,2568.725,663.619z"/>
	<path opacity="0.3" fill="#69C7FF" d="M2614.997,655.317c3.984,16.553-10.554,31.082-27.105,27.088
		c-7.779-1.877-14.158-8.259-16.031-16.04c-3.987-16.555,10.555-31.087,27.107-27.09
		C2606.747,641.154,2613.125,647.536,2614.997,655.317z"/>
	<path fill="#69C7FF" d="M2602.415,658.539c1.66,6.897-4.397,12.951-11.294,11.287c-3.241-0.782-5.899-3.441-6.68-6.683
		c-1.661-6.898,4.398-12.953,11.294-11.288C2598.978,652.637,2601.635,655.297,2602.415,658.539z"/>
</g>
<path fill="#C3C1B5" d="M2825.026,714.434h-3.705v-7.411h3.705V714.434z M2825.026,695.905h-3.705v-7.411h3.705V695.905z
	 M2825.026,677.378h-3.705v-7.411h3.705V677.378z M2825.026,658.85h-3.705v-7.411h3.705V658.85z M2825.026,640.322h-3.705v-7.411
	h3.705V640.322z M2825.026,621.794h-3.705v-7.411h3.705V621.794z M2825.026,603.267h-3.705v-7.411h3.705V603.267z M2825.026,584.738
	h-3.705v-7.411h3.705V584.738z M2825.026,566.211h-3.705V558.8h3.705V566.211z M2825.026,547.683h-3.705v-7.411h3.705V547.683z
	 M2825.026,529.155h-3.705v-7.411h3.705V529.155z M2825.026,510.627h-3.705v-7.411h3.705V510.627z M2825.026,492.1h-3.705v-7.411
	h3.705V492.1z M2825.026,473.571h-3.705v-7.411h3.705V473.571z M2825.026,455.044h-3.705v-7.411h3.705V455.044z M2825.026,436.516
	h-3.705v-7.411h3.705V436.516z M2825.026,417.988h-3.705v-7.411h3.705V417.988z M2825.026,399.46h-3.705v-7.411h3.705V399.46z
	 M2825.026,380.933h-3.705v-7.411h3.705V380.933z M2825.026,362.404h-3.705v-7.411h3.705V362.404z M2825.026,343.877h-3.705v-7.411
	h3.705V343.877z M2825.026,325.349h-3.705v-7.411h3.705V325.349z M2825.026,306.821h-3.705v-7.411h3.705V306.821z M2825.026,288.293
	h-3.705v-7.411h3.705V288.293z M2825.026,269.766h-3.705v-7.411h3.705V269.766z M2825.026,251.237h-3.705v-7.411h3.705V251.237z
	 M2825.026,232.71h-3.705v-7.411h3.705V232.71z M2825.026,214.182h-3.705v-7.411h3.705V214.182z"/>
<g id="tvm_1_">
	<path opacity="0.3" fill="#A8A8A8" d="M2789.159,411.787c3.984,16.553-10.554,31.082-27.105,27.088
		c-7.779-1.877-14.158-8.259-16.031-16.04c-3.987-16.555,10.555-31.087,27.107-27.09
		C2780.908,397.624,2787.286,404.006,2789.159,411.787z"/>
	<path opacity="0.3" fill="#A8A8A8" d="M2614.997,411.787c3.984,16.553-10.554,31.082-27.105,27.088
		c-7.779-1.877-14.158-8.259-16.031-16.04c-3.987-16.555,10.555-31.087,27.107-27.09
		C2606.747,397.624,2613.125,404.006,2614.997,411.787z"/>
	<path fill="#A8A8A8" d="M2776.577,415.009c1.66,6.897-4.398,12.951-11.294,11.287c-3.241-0.782-5.899-3.441-6.68-6.683
		c-1.661-6.898,4.398-12.953,11.294-11.288C2773.139,409.107,2775.797,411.767,2776.577,415.009z"/>
	<path fill="#A8A8A8" d="M2602.415,415.009c1.66,6.897-4.397,12.951-11.294,11.287c-3.241-0.782-5.899-3.441-6.68-6.683
		c-1.661-6.898,4.398-12.953,11.294-11.287C2598.978,409.107,2601.635,411.767,2602.415,415.009z"/>
	<path fill="#A8A8A8" d="M2743.504,420.089h-125.989c-1.535,0-2.779-1.244-2.779-2.779s1.244-2.779,2.779-2.779h125.989
		c1.535,0,2.779,1.244,2.779,2.779S2745.039,420.089,2743.504,420.089z"/>
</g>
<g id="boshang_1_">
	<path fill="#A8A8A8" d="M2803.782,191.579h-16.8c-1.16,0-2.1-1.244-2.1-2.779s0.94-2.779,2.1-2.779h16.8
		c1.16,0,2.1,1.244,2.1,2.779S2804.942,191.579,2803.782,191.579z"/>
	<path opacity="0.3" fill="#A8A8A8" d="M2749.616,184.197c-3.32,13.794,8.795,25.902,22.587,22.573
		c6.483-1.564,11.798-6.883,13.36-13.366c3.322-13.796-8.796-25.906-22.589-22.575
		C2756.492,172.395,2751.177,177.714,2749.616,184.197z"/>
	<path opacity="0.3" fill="#A8A8A8" d="M2805.2,184.197c-3.32,13.794,8.795,25.902,22.587,22.573
		c6.483-1.564,11.798-6.883,13.36-13.366c3.322-13.796-8.796-25.906-22.589-22.575C2812.075,172.395,2806.76,177.714,2805.2,184.197
		z"/>
	<path fill="#A8A8A8" d="M2758.603,186.499c-1.66,6.897,4.397,12.951,11.294,11.287c3.241-0.782,5.899-3.441,6.68-6.683
		c1.661-6.898-4.398-12.953-11.294-11.288C2762.041,180.597,2759.384,183.257,2758.603,186.499z"/>
	<path fill="#A8A8A8" d="M2814.187,186.499c-1.66,6.897,4.398,12.951,11.294,11.287c3.241-0.782,5.899-3.441,6.68-6.683
		c1.661-6.898-4.398-12.953-11.295-11.287C2817.625,180.597,2814.967,183.257,2814.187,186.499z"/>
</g>
<path fill="#C3C1B5" d="M84.759,716.226h-3.706v-7.411h3.706V716.226z M84.759,697.698h-3.706v-7.411h3.706V697.698z M84.759,679.17
	h-3.706v-7.411h3.706V679.17z M84.759,660.643h-3.706v-7.411h3.706V660.643z M84.759,642.114h-3.706v-7.411h3.706V642.114z
	 M84.759,623.587h-3.706v-7.411h3.706V623.587z M84.759,605.059h-3.706v-7.411h3.706V605.059z M84.759,586.531h-3.706v-7.411h3.706
	V586.531z M84.759,568.003h-3.706v-7.411h3.706V568.003z M84.759,549.476h-3.706v-7.411h3.706V549.476z M84.759,530.947h-3.706
	v-7.411h3.706V530.947z M84.759,512.42h-3.706v-7.411h3.706V512.42z M84.759,493.892h-3.706v-7.411h3.706V493.892z M84.759,475.364
	h-3.706v-7.411h3.706V475.364z M84.759,456.836h-3.706v-7.411h3.706V456.836z M84.759,438.309h-3.706v-7.411h3.706V438.309z
	 M84.759,419.78h-3.706v-7.411h3.706V419.78z M84.759,401.253h-3.706v-7.411h3.706V401.253z M84.759,382.725h-3.706v-7.411h3.706
	V382.725z M84.759,364.197h-3.706v-7.411h3.706V364.197z M84.759,345.669h-3.706v-7.411h3.706V345.669z"/>
</svg>
