<?xml version="1.0" encoding="utf-8"?>
<!-- Generator: Adobe Illustrator 17.1.0, SVG Export Plug-In . SVG Version: 6.00 Build 0)  -->
<!DOCTYPE svg PUBLIC "-//W3C//DTD SVG 1.1//EN" "http://www.w3.org/Graphics/SVG/1.1/DTD/svg11.dtd" [
	<!ENTITY ns_extend "http://ns.adobe.com/Extensibility/1.0/">
	<!ENTITY ns_ai "http://ns.adobe.com/AdobeIllustrator/10.0/">
	<!ENTITY ns_graphs "http://ns.adobe.com/Graphs/1.0/">
	<!ENTITY ns_vars "http://ns.adobe.com/Variables/1.0/">
	<!ENTITY ns_imrep "http://ns.adobe.com/ImageReplacement/1.0/">
	<!ENTITY ns_sfw "http://ns.adobe.com/SaveForWeb/1.0/">
	<!ENTITY ns_custom "http://ns.adobe.com/GenericCustomNamespace/1.0/">
	<!ENTITY ns_adobe_xpath "http://ns.adobe.com/XPath/1.0/">
]>
<svg version="1.1" id="Layer_1" xmlns:x="&ns_extend;" xmlns:i="&ns_ai;" xmlns:graph="&ns_graphs;"
	 xmlns="http://www.w3.org/2000/svg" xmlns:xlink="http://www.w3.org/1999/xlink" x="0px" y="0px" viewBox="0 0 557 324"
	 enable-background="new 0 0 557 324" xml:space="preserve">
<metadata>
	<sfw  xmlns="&ns_sfw;">
		<slices></slices>
		<sliceSourceBounds  height="322" width="547" bottomLeftOrigin="true" x="368.2" y="879.8"></sliceSourceBounds>
	</sfw>
</metadata>
<g enable-background="new    ">
	
		<image overflow="visible" opacity="0.1" width="547" height="322" xlink:href="152E614CC7C9D779.png"  transform="matrix(1 0 0 1 7.2055 1.2055)">
	</image>
	<g>
		<path fill="#828282" d="M450,6.4H326.4c-17,0-33,4.4-46.8,12.1c-13.9-7.7-29.8-12.1-46.8-12.1H109.2c-53.3,0-96.5,43.2-96.5,96.6
			v115.9c0,53.4,43.2,96.6,96.5,96.6h123.6c17,0,33-4.4,46.8-12.1c13.9,7.7,29.8,12.1,46.8,12.1H450c53.3,0,96.5-43.2,96.5-96.6V103
			C546.6,49.6,503.3,6.4,450,6.4z"/>
	</g>
</g>
<path fill="#FFFFFF" enable-background="new    " d="M547.6,219.1c0,53.6-43.4,97-96.9,97H326.6c-53.5,0-96.9-43.4-96.9-97V102.8
	c0-53.6,43.4-97,96.9-97h124.1c53.5,0,96.9,43.4,96.9,97V219.1z"/>
<path fill="#828282" enable-background="new    " d="M329.5,219.1c0,53.6-43.4,97-96.9,97H108.5c-53.5,0-96.9-43.4-96.9-97V102.8
	c0-53.6,43.4-97,96.9-97h124.1c53.5,0,96.9,43.4,96.9,97V219.1z"/>
<path opacity="0.45" fill="#FFFFFF" enable-background="new    " d="M547.6,219.1c0,53.6-43.4,97-96.9,97H326.6
	c-53.5,0-96.9-43.4-96.9-97V102.8c0-53.6,43.4-97,96.9-97h124.1c53.5,0,96.9,43.4,96.9,97V219.1z"/>
<text transform="matrix(0.9995 0 0 1 133.5276 186.9102)" fill="#FFFFFF" font-family="'MyriadPro-Bold'" font-size="65.6887" letter-spacing="3">UI</text>
<text transform="matrix(0.9995 0 0 1 348.1255 186.9102)" fill="#FFC000" font-family="'MyriadPro-Bold'" font-size="65.6887">UX</text>
</svg>
